<?xml version="1.0" encoding="UTF-8"?>
<svg id="svg14" width="192" height="192" enable-background="new 0 0 100 100" version="1.1" viewBox="0 0 192 192" xml:space="preserve" xmlns="http://www.w3.org/2000/svg"><path id="rect1173" d="m48 0c-26.592 0-48 21.408-48 48v96c0 26.592 21.408 48 48 48h96c26.592 0 48-21.408 48-48v-96c0-26.592-21.408-48-48-48z" fill="#0f0f0f" stroke-width="3"/><path id="path823" d="m75.71 30.257c-0.22176 0-0.40673 0.0177-0.63281 0.0177-0.23904 0.0174-0.49484 0.03288-0.73388 0.07032-0.13248 0.0186-0.28059 0.04167-0.41308 0.07911-0.3312 0.036-0.64447 0.10998-0.97999 0.20214-0.036 0-0.09288 0.0207-0.12744 0.03516-1.3162 0.33552-2.5733 0.83506-3.7442 1.5205h0.0177l0.07032 0.07032c0.76176 0.33408 1.4508 0.65097 2.083 1.0239l31.556 18.237-17.411-17.35c-0.39024-0.39168-0.79574-0.74-1.2393-1.0942 0 0-0.0219-2.97e-4 -0.0219-0.0177-0.34848-0.2592-0.6671-0.50076-1.0415-0.74268-0.03312-0.0201-0.08532-0.03288-0.10548-0.07032-0.3312-0.2016-0.66348-0.39287-0.99756-0.58007-0.09216-0.036-0.20484-0.09-0.27687-0.12744-0.29808-0.13104-0.59688-0.27438-0.89208-0.38673-0.14976-0.07488-0.29871-0.11199-0.46143-0.14943-0.26496-0.0936-0.51574-0.16569-0.77782-0.25926-0.036-0.0201-0.11055-0.03954-0.14943-0.03954-0.14688-0.03888-0.29406-0.06909-0.44384-0.08349-0.22176-0.04032-0.44728-0.11751-0.646-0.13623-0.24192-0.03744-0.48166-0.07242-0.7207-0.10986-0.2088-0.0186-0.3712-0.03438-0.57568-0.0747-0.23616-0.0174-0.50227-0.0165-0.74707-0.03516h-0.58887zm-13.856 5.8887c-0.144 0-0.2943 0.0132-0.45702 0.0132-0.22176 0-0.46204 0.0222-0.66798 0.03954-0.23904 0.0201-0.48166 0.03756-0.7207 0.09228-0.20592 0.0186-0.37559 0.03468-0.58007 0.09228-0.23904 0.03312-0.48015 0.11196-0.71631 0.1494-0.20592 0.036-0.3928 0.08886-0.57568 0.14502-0.20304 0.07632-0.40779 0.13311-0.61083 0.20655-0.24192 0.09216-0.48575 0.16575-0.70751 0.26367-0.12672 0.03312-0.25425 0.10203-0.38673 0.15819-0.2952 0.1296-0.61006 0.27978-0.90526 0.44824-0.036 0.0201-0.09303 0.03432-0.13623 0.07032-2.0894 1.1333-3.9211 2.8359-5.1811 5.0404-0.74304 1.2773-1.2265 2.6341-1.5073 4.0034 0 0.0174 0.0014 0.03612-0.0132 0.09228-0.09504 0.39024-0.13098 0.78014-0.16698 1.1689-0.0174 0.12816-0.0177 0.25416-0.0177 0.38232-0.0204 0.29808-0.03954 0.59544-0.03954 0.89208v99.08c0 0.29232 0.021 0.59394 0.03954 0.88769 0 0.13249 0.0177 0.25714 0.0177 0.38673 0.036 0.3888 0.11082 0.78015 0.16698 1.1689 0 0.0186-0.0014 0.0391 0.0132 0.0967 0.2808 1.368 0.76428 2.7187 1.5073 3.9947 1.26 2.2018 3.0902 3.8884 5.1811 5.0362 0.04176 0.0204 0.09879 0.0358 0.13623 0.0747 0.2952 0.14832 0.61006 0.29409 0.90526 0.44386 0.13248 0.0763 0.25998 0.11667 0.38673 0.17139 0.24192 0.0893 0.46559 0.16566 0.70751 0.25926 0.20304 0.072 0.38907 0.13158 0.61083 0.20214 0.20304 0.0331 0.3712 0.11199 0.57568 0.1494 0.23616 0.0749 0.47727 0.10758 0.71631 0.14502 0.1656 0.0389 0.37559 0.0793 0.58007 0.0923 0.23904 0.0374 0.48166 0.0779 0.7207 0.0923 0.22176 0.0174 0.4462 0.0222 0.66798 0.0395 0.14688 0 0.2943 0.0177 0.45702 0.0177h0.17139c0.27504 0 0.53098-0.018 0.82618-0.0352 0.14976-0.0174 0.33651-0.0207 0.48339-0.0352 0.33696-0.1512 0.64886-0.20631 0.98438-0.27687 0.11232-0.0186 0.20517-0.0207 0.29445-0.0395 0.36864-0.0922 0.74462-0.17037 1.1118-0.28125 0.03888-0.0159 0.08712-0.0105 0.12744-0.0308 0.39024-0.12816 0.79659-0.27537 1.2041-0.44383h0.0219c0.50112-0.2232 0.99848-0.45014 1.4766-0.7295l85.532-49.367c1.6819-0.96336 3.0519-2.2404 4.109-3.7222 0.0734-0.0893 0.1287-0.20955 0.20214-0.29883 0.17136-0.24336 0.35698-0.49811 0.50098-0.75587 0.0204-0.036 0.0749-0.0918 0.0879-0.1494 0.0979-0.13248 0.15357-0.27681 0.22413-0.44383 0.0922-0.16848 0.2031-0.35591 0.25926-0.52295 0.13248-0.26064 0.23925-0.53181 0.35156-0.79101 0.036-0.11376 0.0944-0.22347 0.13185-0.35595 0.10944-0.2952 0.22251-0.62507 0.29883-0.94043 0.0174-0.0922 0.0373-0.16719 0.0747-0.26367 0.0922-0.32976 0.14334-0.62688 0.21534-0.9624 0.0204-0.10944 0.0432-0.22014 0.0835-0.32958 0.0331-0.27936 0.0882-0.59364 0.10548-0.87012 0.0201-0.16704 0.0219-0.33545 0.0352-0.50537 0.0231-0.2376 0.0219-0.45826 0.0219-0.69874 0-0.24336-4.5e-4 -0.46271-0.0219-0.70751 0-0.16416-0.0123-0.32954-0.0307-0.49658-0.0174-0.27936-0.0767-0.5922-0.10986-0.87012-0.0204-0.11232-0.0388-0.22014-0.0791-0.32958-0.0734-0.33984-0.12756-0.65583-0.21972-0.97119-0.0204-0.0936-0.0346-0.1659-0.0879-0.27246-0.0979-0.3384-0.21252-0.63241-0.30323-0.94921-0.0331-0.108-0.0929-0.21909-0.12744-0.35156-0.10944-0.26064-0.21909-0.53917-0.35156-0.79981-0.095-0.16416-0.16167-0.34742-0.27687-0.53174-0.0763-0.13104-0.12756-0.28119-0.21972-0.44824-0.0204-0.036-0.0751-0.0903-0.0967-0.14502-0.144-0.26064-0.33098-0.52272-0.49658-0.76464-0.0763-0.09072-0.13023-0.20229-0.20655-0.29442-1.0714-1.4832-2.4444-2.743-4.1132-3.7222l-85.491-49.356c-0.47808-0.27504-0.97688-0.51478-1.4766-0.7207h-0.0219c-0.38891-0.1656-0.77643-0.29697-1.2041-0.44386-0.03888-0.0186-0.08712-0.015-0.12744-0.03516-0.36864-0.11088-0.74462-0.22509-1.1118-0.28125-0.10944-0.0174-0.20229-0.03516-0.29442-0.03516-0.33408-0.072-0.64598-0.10908-0.98438-0.1494-0.14688-0.0201-0.33363-0.018-0.48339-0.03516-0.27504-0.0201-0.53386-0.03516-0.82618-0.03516h-0.17139zm17.877 39.906h0.2373c0.10944 0 0.20667 0.0018 0.29883 0.0219 0.07632 0 0.10794-1e-3 0.16698 0.0177 0.10944 0.0204 0.23925 0.018 0.35156 0.03516 0.036 0 0.07236 0.0219 0.10548 0.0219 0.13248 0.0159 0.26187 0.07251 0.41308 0.11427 0.0144 0 0.015-0.0014 0.03075 0.0132 0.1512 0.036 0.28119 0.1134 0.44824 0.1494 0.1656 0.09216 0.36918 0.14991 0.54054 0.26367l31.021 17.903c0.60768 0.34992 1.1094 0.79472 1.4766 1.3491 0.0204 0.036 0.0344 0.07827 0.0747 0.11427 0.0734 0.08928 0.13098 0.16599 0.16698 0.27687 0.0204 0.0174 0.0192 0.03516 0.0352 0.03516 0.0204 0.036 0.0361 0.11631 0.0923 0.14943 0.0331 0.07488 0.0754 0.12726 0.11427 0.20214 0.0331 0.09072 0.09 0.20343 0.12744 0.27687 0.0174 0.036 0.0395 0.09441 0.0395 0.13185 0.0389 0.11088 0.0853 0.21909 0.10548 0.35156 0 0.036 0.0219 0.07395 0.0219 0.11427 0.0204 0.10944 0.0747 0.23775 0.0747 0.34718 0 0.03888 0.0177 0.09303 0.0177 0.13623 0.0204 0.10368 0.0192 0.21726 0.0352 0.32958 0 0.07344 2e-3 0.11514 0.0219 0.16698v0.51855c0 0.07488-2e-3 0.11082-0.0219 0.16698 0 0.11232-0.0123 0.22158-0.0307 0.32958 0 0.03744-0.0219 0.09297-0.0219 0.13185-0.0204 0.11088-0.0332 0.24069-0.0923 0.35156 0 0.0374-0.0219 0.0768-0.0219 0.11427-0.0204 0.10944-0.071 0.2406-0.10986 0.34718-0.0174 0.0389-0.0177 0.0987-0.0307 0.13185-0.0389 0.11376-0.0915 0.20487-0.13185 0.27687-0.0204 0.0763-0.0739 0.13023-0.10986 0.20655-0.0201 0.036-0.039 0.10902-0.0923 0.14502 0 0.0204-0.021 0.0352-0.0395 0.0352-0.0734 0.0893-0.1122 0.20925-0.1626 0.28125-0.0231 0.0374-0.0401 0.071-0.0747 0.10986-0.39024 0.53424-0.89208 0.99927-1.4854 1.3535l-31.021 17.908c-0.16848 0.10944-0.35325 0.20598-0.53613 0.25926-0.14976 0.0763-0.27831 0.11637-0.44824 0.15381-0.0144 0-0.0165-2e-3 -0.03516 0.0177-0.13248 0.0331-0.26325 0.0897-0.40869 0.10986-0.036 0-0.07524 0.0177-0.10548 0.0177-0.11232 0.0204-0.24075 0.0395-0.35595 0.0395-0.07056 0-0.10929 3.2e-4 -0.1626 0.0177-0.11232 0-0.20229 0.0219-0.29445 0.0219h-0.24609c-0.09216 0-0.15099 1e-3 -0.24171-0.0219-0.09216 0-0.16416-0.0177-0.25488-0.0177-0.0792 0-0.13461-0.0219-0.21093-0.0219-0.08928-0.0204-0.16278-0.0358-0.25926-0.0747-0.07056-0.0216-0.12756-0.0352-0.21972-0.0352-0.07344-0.0201-0.1506-0.0388-0.21972-0.0791-0.09504-0.0174-0.16854-0.0692-0.25926-0.0879-0.036-0.0186-0.09036-0.0358-0.1494-0.0747-0.11232-0.0346-0.22014-0.11052-0.32958-0.1494-0.0204 0-0.0237-0.0219-0.03954-0.0219-0.75888-0.40752-1.4098-1.0145-1.8677-1.8281-0.26208-0.4608-0.44836-0.9652-0.54052-1.4678v-0.0177c-0.0204-0.14976-0.03438-0.27678-0.0747-0.44386v-0.13182c0-0.11088-0.0177-0.21726-0.0177-0.32958v-35.89h0.0177v-0.0747c0-0.10944 0.0018-0.2187 0.0219-0.32958v-0.13623c0.0201-0.14832 0.03288-0.2724 0.07032-0.43945v-0.0219c0.11232-0.49824 0.27693-0.97659 0.53613-1.459 0.46368-0.79632 1.1146-1.4092 1.8721-1.8369 0.0204 0 0.0192-0.0177 0.03516-0.0177 0.11232-0.07632 0.22167-0.10614 0.33399-0.14502 0.03888-0.0174 0.09471-0.0387 0.1494-0.0747 0.09216-0.036 0.16854-0.075 0.25929-0.09228 0.07632-0.0204 0.15069-0.03735 0.22413-0.07911 0.07344-0.0204 0.13044-0.03516 0.21972-0.03516 0.09216-0.0216 0.16566-0.03432 0.25929-0.07032 0.07632-0.0201 0.1287-0.0219 0.20214-0.0219 0.09216-0.0186 0.16854-0.0177 0.25926-0.0177 0.09216 0 0.15249-0.0018 0.24612-0.0219zm79.524 37.323c-0.77904 0.64944-1.6267 1.2408-2.518 1.7578l-29.932 17.24 22.574-6.0952c1.8562-0.50112 3.5194-1.3877 4.9264-2.518 0.0893-0.072 0.17028-0.15243 0.27687-0.24171 0.24192-0.20592 0.46494-0.38468 0.66798-0.60644 0.0389-0.0374 0.0915-0.0941 0.13185-0.11427 0.11232-0.11232 0.22167-0.24075 0.33399-0.35594 0.12672-0.14688 0.25422-0.26952 0.38673-0.43945 0.20304-0.22176 0.36918-0.46409 0.54054-0.70313 0.0706-0.10944 0.14484-0.2037 0.21972-0.29445 0.20304-0.27648 0.36765-0.53687 0.53613-0.83495 0.036-0.0922 0.0947-0.14955 0.1494-0.24168 0.14976-0.27648 0.29295-0.5922 0.46143-0.87012 0.0331-0.10944 0.0915-0.20514 0.13185-0.29442 0.10368-0.26064 0.2187-0.54119 0.32958-0.83495 0.0792-0.14832 0.11196-0.29583 0.1494-0.46143 0.0734-0.22176 0.13311-0.44325 0.20655-0.66357 0.0706-0.22176 0.10908-0.46789 0.1494-0.67237 0.0331-0.14688 0.0764-0.33212 0.0923-0.479 0.036-0.27936 0.0929-0.5922 0.12744-0.87012 0.0201-0.11232 0.0219-0.22599 0.0219-0.33399 0.0174-0.33552 0.0352-0.64591 0.0352-0.97999v-0.0923zm-116.1 1.5161-5.4976 20.738c-0.0231 0.072-0.0237 0.11082-0.03954 0.16698-0.07344 0.27648-0.12948 0.57348-0.1626 0.87012-0.0174 0.12816-0.03879 0.26295-0.07911 0.39111-0.07344 0.39024-0.11457 0.7772-0.13185 1.1646v0.0967c-0.09216 1.3882 0.03927 2.831 0.44824 4.2363 0.61056 2.484 1.9486 4.5765 3.6695 6.205 0.036 0.0174 0.07098 0.0736 0.10986 0.0923 0.24192 0.24336 0.4981 0.46463 0.75586 0.65039 0.11232 0.0893 0.22167 0.16424 0.33399 0.25926 0.20592 0.14975 0.40779 0.27383 0.61083 0.43944 0.036 0.0216 0.07539 0.0417 0.11427 0.0835v-0.0264c-0.0204-0.14688-0.021-0.3278-0.03954-0.479v-0.0703c-0.0174-0.3528-0.03726-0.72446-0.0747-1.1118 0-0.11232-0.0177-0.22377-0.0177-0.37354v-33.332z" fill="#fff" stroke-width="2.25"/></svg>
