<?xml version="1.0" encoding="UTF-8"?>
<!-- Created with Inkscape (http://www.inkscape.org/) -->
<svg id="svg5" width="432" height="432" version="1.1" viewBox="0 0 432 432" xmlns="http://www.w3.org/2000/svg">
 <g id="layer1">
  <path id="path823-3" d="m187.77 113.73c-0.3451 0-0.63269 0.02734-0.98437 0.02734-0.37184 0.028-0.77074 0.05127-1.1426 0.10937-0.20615 0.028-0.4365 0.06455-0.64258 0.12305-0.5152 0.056-1.0015 0.1713-1.5234 0.31445-0.056 0-0.14371 0.03159-0.19726 0.05469-2.0474 0.52196-4.0031 1.299-5.8242 2.3652h0.02734l0.10938 0.10937c1.185 0.51968 2.2568 1.0136 3.2402 1.5938l49.088 28.369-27.084-26.988c-0.60707-0.60928-1.2378-1.1521-1.9277-1.7031 0 0-0.03515 1.9e-4 -0.03515-0.02735-0.54208-0.4032-1.0367-0.77993-1.6191-1.1562-0.0515-0.0315-0.13257-0.05127-0.16407-0.10937-0.5152-0.3136-1.033-0.61115-1.5527-0.90235-0.14315-0.056-0.31755-0.13916-0.42969-0.19726-0.46368-0.2037-0.92948-0.42685-1.3887-0.60157-0.2331-0.11655-0.46368-0.17432-0.7168-0.23242-0.41219-0.1456-0.80325-0.25855-1.2109-0.40429-0.056-0.0315-0.17187-0.06055-0.23243-0.06055-0.22855-0.0605-0.4565-0.10846-0.68945-0.13086-0.34511-0.0627-0.69674-0.18154-1.0059-0.21094-0.37632-0.0581-0.74926-0.11377-1.1211-0.17187-0.3248-0.028-0.57645-0.05264-0.89453-0.11524-0.36722-0.028-0.78131-0.02458-1.1621-0.05468h-0.91602zm-21.555 9.1602c-0.224 0-0.45781 0.02149-0.71093 0.02149-0.3451 0-0.71872 0.03394-1.0391 0.06054-0.37184 0.0315-0.74925 0.05943-1.1211 0.14453-0.32025 0.028-0.58426 0.05298-0.90234 0.14258-0.37184 0.0515-0.74593 0.17432-1.1133 0.23242-0.32024 0.056-0.612 0.13907-0.89648 0.22657-0.3157 0.11865-0.63338 0.20586-0.94922 0.32031-0.37632 0.1435-0.7566 0.25793-1.1016 0.41015-0.19705 0.05151-0.39548 0.1586-0.60156 0.2461-0.4592 0.2016-0.94901 0.43518-1.4082 0.69726-0.056 0.0315-0.14338 0.05378-0.21093 0.10938-3.2502 1.7629-6.1006 4.4123-8.0606 7.8418-1.1558 1.9869-1.907 4.0963-2.3438 6.2266 0 0.028 0.00152 0.05733-0.02148 0.14453-0.1477 0.60704-0.20377 1.2136-0.25977 1.8184-0.028 0.1995-0.02734 0.39439-0.02734 0.59375-0.0315 0.46368-0.0625 0.92723-0.0625 1.3887v0.25977 153.6 0.25977c0 0.45472 0.0324 0.9239 0.0625 1.3809 0 0.20615 0.02734 0.39996 0.02734 0.60156 0.056 0.60484 0.17262 1.2135 0.25977 1.8184 0 0.028-0.00152 0.06079 0.02148 0.15039 0.4368 2.128 1.1879 4.2282 2.3438 6.2129 1.96 3.425 4.8081 6.0487 8.0606 7.834 0.0651 0.0315 0.15248 0.05669 0.21093 0.11719 0.4592 0.23065 0.94902 0.4565 1.4082 0.68946 0.20615 0.11865 0.40444 0.18252 0.60156 0.26757 0.37632 0.13895 0.72524 0.25661 1.1016 0.40235 0.3157 0.112 0.60426 0.2049 0.94922 0.31445 0.3157 0.0514 0.57841 0.17432 0.89648 0.23242 0.36736 0.11655 0.74145 0.16812 1.1133 0.22656 0.2576 0.06061 0.58426 0.12263 0.90234 0.14258 0.37184 0.0581 0.74925 0.12213 1.1211 0.14453 0.3451 0.028 0.69411 0.03395 1.0391 0.06055 0.22855 0 0.45781 0.0293 0.71093 0.0293h0.26758c0.42784 0 0.82596-0.02809 1.2852-0.05469 0.2331-0.028 0.52343-0.03159 0.75195-0.05469 0.52416-0.2352 1.0093-0.32191 1.5312-0.43164 0.17465-0.028 0.32018-0.03044 0.45899-0.06054 0.57344-0.1435 1.1573-0.26495 1.7285-0.4375 0.0605-0.0245 0.13462-0.01833 0.19727-0.04883 0.60704-0.1995 1.2391-0.42738 1.873-0.68946h0.03516c0.77952-0.3472 1.5532-0.7002 2.2969-1.1348l133.05-76.795c2.6164-1.4986 4.7465-3.4861 6.3906-5.791 0.11411-0.13895 0.20035-0.32582 0.31445-0.46484 0.2667-0.37856 0.5553-0.77482 0.7793-1.1758 0.0315-0.056 0.11642-0.14283 0.13672-0.23243 0.15225-0.20615 0.24006-0.42961 0.34961-0.68945 0.1435-0.26215 0.31508-0.55461 0.40234-0.81445 0.20615-0.40544 0.37216-0.82727 0.54688-1.2305 0.05599-0.1771 0.14662-0.34655 0.20507-0.55273 0.1701-0.45921 0.34613-0.97234 0.46485-1.4629 0.028-0.1435 0.05908-0.26007 0.11718-0.41015 0.1435-0.51296 0.22199-0.97613 0.33399-1.498 0.0315-0.1701 0.06821-0.34134 0.13086-0.51172 0.0514-0.43456 0.13711-0.92343 0.16406-1.3535 0.0315-0.2597 0.03509-0.52279 0.05469-0.78711 0.0357-0.3696 0.03515-0.71186 0.03515-1.0859 0-0.37856-8.5e-4 -0.72076-0.03515-1.1016 0-0.2555-0.01833-0.51165-0.04883-0.77149-0.028-0.43456-0.11847-0.92119-0.16992-1.3535-0.0315-0.17465-0.06005-0.34326-0.12305-0.51367-0.1141-0.52864-0.1983-1.0192-0.3418-1.5098-0.0315-0.1456-0.05376-0.25796-0.13671-0.42383-0.15225-0.5264-0.33137-0.98376-0.47266-1.4766-0.0514-0.168-0.14372-0.34091-0.19727-0.54688-0.1701-0.4054-0.34089-0.8387-0.54687-1.2441-0.1477-0.2555-0.25227-0.54139-0.43164-0.82812-0.11865-0.20369-0.1983-0.43742-0.3418-0.69727-0.0315-0.056-0.11679-0.13955-0.15039-0.22461-0.224-0.40543-0.51584-0.81313-0.77344-1.1894-0.11865-0.14105-0.20166-0.31565-0.32031-0.45898-1.6666-2.3072-3.8023-4.2659-6.3984-5.7891l-132.99-76.775c-0.74368-0.42784-1.5196-0.80077-2.2969-1.1211h-0.03516c-0.60498-0.2576-1.2077-0.46097-1.873-0.68945-0.0606-0.028-0.13462-0.02459-0.19727-0.05469-0.57344-0.17255-1.1593-0.35014-1.7305-0.4375-0.1701-0.028-0.31367-0.05469-0.45703-0.05469-0.51968-0.112-1.0048-0.16977-1.5312-0.23242-0.22855-0.0315-0.51899-0.02809-0.75195-0.05469-0.42784-0.0315-0.83044-0.05469-1.2852-0.05469l-0.26758-0.00195zm27.809 62.074v0.00391h0.25976 0.10938c0.1701 0 0.32166 0.0012 0.46484 0.0332 0.11865 0 0.16807-7e-4 0.25977 0.0293 0.1701 0.0315 0.37215 0.02808 0.54687 0.05468 0.056 0 0.11262 0.03516 0.16406 0.03516 0.20616 0.0245 0.40739 0.11263 0.64258 0.17773 0.021 0 0.02543-0.00346 0.04883 0.01954 0.2352 0.056 0.43743 0.17642 0.69727 0.23242 0.2576 0.1435 0.57328 0.23312 0.83984 0.41015l48.256 27.85c0.94528 0.54432 1.7257 1.2372 2.2969 2.0996 0.03149 0.056 0.05263 0.12174 0.11523 0.17774 0.1141 0.13895 0.20377 0.2573 0.25977 0.42968 0.03149 0.028 0.03158 0.05469 0.05468 0.05469 0.0315 0.056 0.05743 0.18098 0.14453 0.23242 0.0515 0.11655 0.11719 0.19827 0.17774 0.31446 0.0514 0.14105 0.13916 0.31739 0.19726 0.43164 0.028 0.056 0.0625 0.14662 0.0625 0.20508 0.0606 0.17255 0.13257 0.3409 0.16407 0.54687 0 0.056 0.03515 0.11509 0.03515 0.17774 0.0315 0.17009 0.11524 0.36882 0.11524 0.53906 0 0.0606 0.02929 0.14534 0.02929 0.21289 0.0315 0.16135 0.03159 0.33714 0.05469 0.51172 0 0.1141 0.0012 0.17926 0.0332 0.25976v0.4043 0.40234c0 0.11655-0.0012 0.17262-0.0332 0.25977 0 0.17465-0.01843 0.34574-0.04883 0.51367 0 0.0581-0.03515 0.14453-0.03515 0.20508-0.0315 0.17255-0.05088 0.37438-0.14258 0.54687 0 0.0581-0.03516 0.11928-0.03516 0.17774-0.0315 0.1701-0.11167 0.3733-0.17187 0.53906-0.028 0.0606-0.02698 0.15363-0.04688 0.20508-0.0606 0.1771-0.14243 0.31947-0.20508 0.43164-0.0315 0.11865-0.11587 0.20166-0.17187 0.32031-0.0315 0.056-0.05968 0.17091-0.14258 0.22656 0 0.0315-0.0324 0.05469-0.0625 0.05469-0.1141 0.13895-0.17355 0.3255-0.25195 0.4375-0.0357 0.0581-0.06329 0.10972-0.11719 0.16992-0.60704 0.83104-1.3876 1.5544-2.3106 2.1055l-48.254 27.857c-0.26215 0.1701-0.54951 0.3193-0.83399 0.40235-0.2331 0.11865-0.43294 0.18178-0.69726 0.24023-0.021 0-0.02459-0.00365-0.05469 0.02735-0.20615 0.0514-0.41048 0.13877-0.63672 0.16992-0.056 0-0.11716 0.0293-0.16406 0.0293-0.17465 0.03149-0.37354 0.06054-0.55274 0.06054-0.1099 0-0.17095 0.00179-0.2539 0.0293-0.17465 0-0.31367 0.03515-0.45703 0.03516h-0.12305-0.25977c-0.1435 0-0.23583 0.00184-0.37695-0.03516-0.1435 0-0.2555-0.0293-0.39648-0.0293-0.1232 0-0.20948-0.03515-0.32813-0.03515-0.13895-0.0315-0.2524-0.05474-0.40234-0.11524-0.1099-0.035-0.1983-0.05469-0.3418-0.05469-0.1141-0.0315-0.234-0.06004-0.3418-0.12304-0.1477-0.028-0.26313-0.10732-0.40429-0.13672-0.056-0.028-0.14072-0.05659-0.23242-0.11719-0.17465-0.0539-0.34131-0.17187-0.51172-0.23242-0.0315 0-0.0376-0.03516-0.0625-0.03516-1.1805-0.63392-2.192-1.5782-2.9043-2.8438-0.40768-0.7168-0.69844-1.5014-0.8418-2.2832v-0.02734c-0.0315-0.2331-0.05263-0.42962-0.11523-0.68946v-0.20508c0-0.17255-0.0293-0.33905-0.0293-0.51367v-0.11523-55.713h0.0293v-0.11719c0-0.1701 0.00315-0.33921 0.03515-0.51172v-0.21289c0.0315-0.23065 0.04933-0.42375 0.10743-0.68359v-0.03516c0.17465-0.77504 0.43078-1.5191 0.83398-2.2695 0.72131-1.2387 1.7338-2.1921 2.9121-2.8574 0.0315 0 0.03159-0.02735 0.05469-0.02735 0.17465-0.11865 0.34478-0.16636 0.51953-0.22656 0.0606-0.028 0.14737-0.05923 0.23242-0.11523 0.1435-0.056 0.26311-0.11758 0.4043-0.14453 0.11865-0.0315 0.23355-0.05795 0.34765-0.12305 0.1141-0.0315 0.20285-0.05469 0.3418-0.05469 0.1435-0.035 0.25859-0.05182 0.4043-0.10742 0.11865-0.0315 0.20035-0.03516 0.31445-0.03516 0.1435-0.028 0.26115-0.02929 0.40234-0.02929 0.1435 0 0.23733-0.00316 0.38282-0.03516zm123.7 58.061c-1.2119 1.0102-2.5294 1.9302-3.916 2.7344l-46.561 26.818 35.117-9.4824c2.8874-0.77952 5.4736-2.1596 7.6621-3.918 0.13896-0.112 0.26591-0.23598 0.43164-0.375 0.37632-0.32025 0.72321-0.5984 1.0391-0.94336 0.0605-0.0581 0.14243-0.14623 0.20508-0.17773 0.17465-0.17465 0.34473-0.37549 0.51953-0.55469 0.19704-0.22855 0.39548-0.41927 0.60156-0.68359 0.3157-0.3451 0.57329-0.72191 0.83985-1.0938 0.1099-0.1701 0.2272-0.31578 0.34375-0.45704 0.3157-0.43009 0.5719-0.83514 0.83398-1.2988 0.056-0.1435 0.14737-0.23374 0.23242-0.37696 0.2331-0.43008 0.45472-0.92119 0.7168-1.3535 0.0514-0.1701 0.14243-0.31822 0.20508-0.45703 0.16135-0.40544 0.34119-0.84186 0.51367-1.2988 0.1232-0.23065 0.17432-0.46115 0.23242-0.71875 0.1141-0.3451 0.20621-0.68853 0.32031-1.0312 0.1099-0.3451 0.16978-0.7288 0.23243-1.0469 0.0514-0.22855 0.11807-0.51566 0.14257-0.74414 0.056-0.43455 0.14567-0.9212 0.19922-1.3535 0.0315-0.17465 0.03516-0.35153 0.03516-0.51953 0.028-0.52192 0.05469-1.0057 0.05469-1.5254l-0.00196-0.14258zm-180.61 2.3574-8.5508 32.26c-0.0357 0.112-0.0377 0.17261-0.0625 0.25977-0.1141 0.43008-0.20015 0.89208-0.25195 1.3535-0.028 0.1995-0.06005 0.40806-0.12305 0.60742-0.1141 0.60704-0.17813 1.2099-0.20508 1.8125v0.15039c-0.1435 2.1594 0.0613 4.4036 0.69727 6.5898 0.94976 3.864 3.0302 7.1189 5.707 9.6524 0.056 0.028 0.11168 0.11352 0.17188 0.14257 0.37632 0.37856 0.77482 0.72276 1.1758 1.0117 0.17465 0.13895 0.34474 0.25646 0.51953 0.4043 0.32025 0.2331 0.63338 0.42599 0.94922 0.68359 0.056 0.035 0.11718 0.06386 0.17773 0.12891v-0.04102c-0.0315-0.22855-0.03044-0.50894-0.06055-0.74414v-0.10937c-0.02799-0.5488-0.05908-1.126-0.11718-1.7285 0-0.17465-0.02735-0.34886-0.02735-0.58203v-51.852z" fill="#fff"/>
 </g>
</svg>
