<?xml version="1.0" encoding="UTF-8" standalone="no"?>
<svg
   version="1.1"
   x="0px"
   y="0px"
   viewBox="0 0 512 512"
   enable-background="new 0 0 100 100"
   xml:space="preserve"
   id="svg14"
   sodipodi:docname="store_main.svg"
   width="512"
   height="512"
   inkscape:export-filename="/home/nathan/workspace/personal/open-player/App/Branding/Android/store_main.png"
   inkscape:export-xdpi="96"
   inkscape:export-ydpi="96"
   inkscape:version="1.1.1 (3bf5ae0d25, 2021-09-20)"
   xmlns:inkscape="http://www.inkscape.org/namespaces/inkscape"
   xmlns:sodipodi="http://sodipodi.sourceforge.net/DTD/sodipodi-0.dtd"
   xmlns="http://www.w3.org/2000/svg"
   xmlns:svg="http://www.w3.org/2000/svg"><defs
     id="defs18" /><sodipodi:namedview
     id="namedview16"
     pagecolor="#505050"
     bordercolor="#ffffff"
     borderopacity="1"
     inkscape:pageshadow="0"
     inkscape:pageopacity="0"
     inkscape:pagecheckerboard="1"
     showgrid="false"
     inkscape:zoom="0.833"
     inkscape:cx="308.52341"
     inkscape:cy="287.51501"
     inkscape:window-width="1920"
     inkscape:window-height="1024"
     inkscape:window-x="1920"
     inkscape:window-y="0"
     inkscape:window-maximized="1"
     inkscape:current-layer="svg14"
     inkscape:snap-page="true" /><rect
     style="fill:#0f0f0f;fill-opacity:1;stroke-width:1.18979;stroke-linejoin:round"
     id="rect843"
     width="512"
     height="512"
     x="0"
     y="0" /><path
     id="path823"
     style="fill:#ffffff;stroke:none;stroke-width:6.4;stroke-miterlimit:4;stroke-dasharray:none;stroke-opacity:1"
     d="m 189.75232,69.000019 c -0.63078,0 -1.15693,0.04998 -1.8,0.04998 -0.67993,0.04915 -1.40756,0.0935 -2.08749,0.2 -0.37683,0.05325 -0.79817,0.118502 -1.17501,0.224998 -0.94208,0.1024 -1.83312,0.312858 -2.7875,0.575002 -0.1024,0 -0.26419,0.05901 -0.36249,0.1 -3.74377,0.954374 -7.31993,2.375292 -10.65,4.325 h 0.0499 l 0.2,0.2 c 2.1668,0.950278 4.12685,1.85163 5.92501,2.9125 l 89.76256,51.875021 -49.525,-49.350005 c -1.11002,-1.114118 -2.26341,-2.104878 -3.525,-3.1125 0,0 -0.0627,-8.8e-4 -0.0627,-0.04998 -0.99123,-0.737285 -1.89752,-1.424367 -2.96249,-2.1125 -0.0942,-0.05734 -0.24269,-0.0935 -0.30003,-0.2 -0.94208,-0.57344 -1.88723,-1.117517 -2.8375,-1.65 -0.26214,-0.1024 -0.58272,-0.256006 -0.7875,-0.362502 -0.84788,-0.372736 -1.69781,-0.78051 -2.5375,-1.1 -0.42598,-0.212992 -0.84965,-0.318509 -1.3125,-0.424999 -0.75367,-0.26624 -1.46702,-0.471257 -2.2125,-0.7375 -0.1024,-0.05734 -0.31443,-0.112499 -0.42502,-0.112499 -0.4178,-0.110592 -0.83651,-0.196538 -1.2625,-0.237498 -0.63078,-0.114688 -1.27225,-0.334253 -1.8375,-0.387501 -0.68813,-0.106496 -1.37006,-0.206003 -2.05,-0.312499 -0.59392,-0.05325 -1.05587,-0.09781 -1.6375,-0.212499 -0.67149,-0.04917 -1.42842,-0.04677 -2.12474,-0.100019 z m -39.4125,16.75 c -0.4096,0 -0.83715,0.0375 -1.3,0.0375 -0.63078,0 -1.31426,0.06336 -1.9,0.112499 -0.67994,0.05734 -1.37005,0.106855 -2.05,0.262503 -0.58572,0.05325 -1.06835,0.09866 -1.65,0.262502 -0.67993,0.09421 -1.36576,0.318509 -2.0375,0.424998 -0.58572,0.1024 -1.1173,0.252756 -1.63749,0.4125 -0.57754,0.217088 -1.15997,0.378598 -1.73751,0.5875 -0.68813,0.262144 -1.38171,0.471476 -2.0125,0.75 -0.36044,0.09421 -0.72316,0.290253 -1.1,0.449997 -0.83969,0.36864 -1.73532,0.795765 -2.575,1.275 -0.1024,0.05734 -0.26464,0.0976 -0.38752,0.2 -5.94331,3.223569 -11.15348,8.066491 -14.7375,14.337502 -2.11355,3.63318 -3.48877,7.49218 -4.2875,11.3875 0,0.0493 0.004,0.10278 -0.0375,0.26252 -0.27034,1.11003 -0.3726,2.21908 -0.475,3.325 -0.0493,0.36455 -0.05,0.72296 -0.05,1.0875 -0.0576,0.84788 -0.1125,1.69373 -0.1125,2.53751 v 0.47501 280.875 0.475 c 0,0.83149 0.0595,1.68941 0.1125,2.525 0,0.37684 0.05,0.73136 0.05,1.1 0.1024,1.10593 0.31525,2.21908 0.475,3.325 0,0.0531 -0.004,0.11117 0.0375,0.27501 0.79873,3.89123 2.17395,7.73343 4.2875,11.36251 3.58402,6.26281 8.79006,11.06046 14.7375,14.32499 0.11879,0.0576 0.28103,0.10189 0.38752,0.21248 0.83968,0.42189 1.73532,0.83652 2.575,1.2625 0.37684,0.21709 0.73955,0.33184 1.1,0.48749 0.68813,0.25395 1.32437,0.47123 2.0125,0.7375 0.57754,0.2048 1.10672,0.37427 1.73751,0.57497 0.57753,0.0942 1.05586,0.31853 1.63749,0.42503 0.67175,0.21299 1.35757,0.30598 2.0375,0.41248 0.47104,0.11059 1.06837,0.22566 1.65,0.26252 0.67995,0.1065 1.37006,0.22157 2.05,0.26253 0.63079,0.0493 1.26921,0.0634 1.9,0.11251 0.41779,0 0.83715,0.0499 1.3,0.0499 h 0.48749 c 0.78234,0 1.51032,-0.0512 2.35,-0.10003 0.42599,-0.0493 0.9572,-0.0589 1.375,-0.10003 0.95847,-0.43008 1.84562,-0.58682 2.80001,-0.7875 0.31948,-0.0531 0.58355,-0.0589 0.83749,-0.11251 1.04859,-0.26214 2.11801,-0.48461 3.16251,-0.8 0.11059,-0.0448 0.2478,-0.0301 0.36249,-0.0875 1.11002,-0.36454 2.26583,-0.78325 3.42499,-1.26249 h 0.0627 c 1.42543,-0.63488 2.84013,-1.28038 4.2,-2.075 l 243.2873,-140.4249 c 4.78417,-2.74024 8.68102,-6.37269 11.6875,-10.5875 0.2089,-0.25395 0.36608,-0.59603 0.57498,-0.85 0.48742,-0.69223 1.01539,-1.4168 1.425,-2.15 0.0576,-0.1024 0.21312,-0.26118 0.24998,-0.42502 0.27853,-0.37683 0.4368,-0.78736 0.63751,-1.2625 0.26214,-0.47923 0.57773,-1.01236 0.73749,-1.4875 0.37684,-0.74138 0.68052,-1.51271 1,-2.25 0.1024,-0.32358 0.26848,-0.63565 0.37498,-1.0125 0.3113,-0.83968 0.6329,-1.77797 0.85,-2.675 0.0493,-0.26214 0.10598,-0.47558 0.21248,-0.75 0.26214,-0.93799 0.40768,-1.78312 0.61248,-2.7375 0.0576,-0.3113 0.12282,-0.62618 0.2375,-0.9375 0.0942,-0.79463 0.25082,-1.68856 0.29997,-2.475 0.0576,-0.47514 0.0627,-0.95417 0.10003,-1.4375 0.0655,-0.67585 0.0627,-1.30346 0.0627,-1.9875 0,-0.69223 -0.002,-1.31618 -0.0627,-2.0125 0,-0.46694 -0.0346,-0.93736 -0.0875,-1.4125 -0.0493,-0.79462 -0.21831,-1.68447 -0.31252,-2.475 -0.0576,-0.31949 -0.11033,-0.62618 -0.22502,-0.9375 -0.2089,-0.96666 -0.36288,-1.86547 -0.62502,-2.7625 -0.0576,-0.26624 -0.0984,-0.47188 -0.24999,-0.775 -0.27853,-0.96256 -0.60448,-1.79888 -0.8625,-2.7 -0.0942,-0.3072 -0.26419,-0.62316 -0.3625,-1 -0.31129,-0.74137 -0.62317,-1.53362 -1,-2.275 -0.27033,-0.46694 -0.45984,-0.98821 -0.7875,-1.5125 -0.21709,-0.37274 -0.36288,-0.79986 -0.62503,-1.275 -0.0576,-0.1024 -0.21356,-0.25683 -0.275,-0.41248 -0.4096,-0.74138 -0.94146,-1.48687 -1.4125,-2.175 -0.21709,-0.25805 -0.37043,-0.57536 -0.58752,-0.8375 -3.04745,-4.2189 -6.95271,-7.8022 -11.7,-10.5875 L 169.40232,90.687519 c -1.35988,-0.78234 -2.77868,-1.464269 -4.2,-2.05 h -0.0627 c -1.10624,-0.471046 -2.20848,-0.844705 -3.425,-1.2625 -0.11059,-0.05325 -0.2478,-0.04262 -0.36249,-0.1 -1.04859,-0.315392 -2.11802,-0.640258 -3.16251,-0.8 -0.31129,-0.04915 -0.57536,-0.1 -0.83749,-0.1 -0.95029,-0.2048 -1.83744,-0.310317 -2.8,-0.424998 -0.41779,-0.05734 -0.94902,-0.05088 -1.375,-0.1 -0.78235,-0.05734 -1.5185,-0.1 -2.35001,-0.1 z m 50.85,113.512501 h 0.47501 0.2 c 0.31129,0 0.58784,0.006 0.85,0.0627 0.21709,0 0.30707,-0.003 0.47501,0.0499 0.31129,0.0576 0.68051,0.0512 1,0.10004 0.1024,0 0.20576,0.0627 0.29996,0.0627 0.37684,0.0448 0.74492,0.2062 1.175,0.32499 0.041,0 0.0422,-0.004 0.0875,0.0378 0.43008,0.1024 0.79987,0.32262 1.275,0.42502 0.47104,0.26215 1.05008,0.42643 1.53751,0.75 L 296.80233,252 c 1.72852,0.99534 3.15552,2.26053 4.2,3.8375 0.0576,0.1024 0.0978,0.22259 0.21248,0.32499 0.2089,0.25395 0.37261,0.47213 0.47501,0.7875 0.0576,0.0493 0.055,0.10003 0.10003,0.1 0.0576,0.1024 0.10279,0.33082 0.26253,0.42502 0.0942,0.213 0.2144,0.36199 0.32499,0.57498 0.0942,0.25805 0.256,0.57862 0.3625,0.7875 0.0493,0.1024 0.11251,0.26848 0.11251,0.37497 0.11059,0.31539 0.24263,0.62317 0.30003,1 0,0.1024 0.0627,0.21031 0.0627,0.32499 0.0576,0.3113 0.21248,0.67621 0.21248,0.98751 0,0.11059 0.0499,0.26464 0.0499,0.38752 0.0576,0.29491 0.055,0.61798 0.10004,0.93749 0,0.2089 0.006,0.32756 0.0627,0.47501 v 0.73755 0.7375 c 0,0.21299 -0.005,0.31526 -0.0627,0.47501 0,0.31949 -0.0346,0.63027 -0.0875,0.93749 0,0.1065 -0.0627,0.26439 -0.0627,0.37498 -0.0576,0.31539 -0.0946,0.6846 -0.26253,1 0,0.1065 -0.0627,0.2185 -0.0627,0.32499 -0.0576,0.3113 -0.20192,0.6844 -0.31251,0.98751 -0.0493,0.11059 -0.0506,0.28076 -0.0875,0.37497 -0.11059,0.32359 -0.26029,0.58272 -0.37498,0.7875 -0.0576,0.21709 -0.21011,0.37043 -0.31251,0.58752 -0.0576,0.1024 -0.11097,0.31008 -0.26253,0.41248 0,0.0576 -0.0595,0.10003 -0.11251,0.10003 -0.20889,0.25395 -0.31917,0.5952 -0.46253,0.8 -0.0655,0.1065 -0.11417,0.20192 -0.21248,0.31251 -1.11002,1.51963 -2.53744,2.84238 -4.225,3.85 l -88.2375,50.93751 c -0.47923,0.31129 -1.00481,0.58592 -1.525,0.73749 -0.42598,0.21709 -0.79166,0.33101 -1.275,0.43751 -0.041,0 -0.0467,-0.007 -0.10003,0.0499 -0.37683,0.0942 -0.74881,0.25516 -1.16251,0.31251 -0.1024,0 -0.21408,0.0499 -0.29996,0.0499 -0.31949,0.0576 -0.68481,0.11251 -1.0125,0.11251 -0.2007,0 -0.31085,8e-4 -0.46253,0.0499 -0.31949,0 -0.57536,0.0627 -0.8375,0.0627 h -0.22471 -0.475 c -0.26214,0 -0.42944,0.003 -0.6875,-0.0627 -0.26214,0 -0.46694,-0.0499 -0.725,-0.0499 -0.22528,0 -0.38291,-0.0627 -0.6,-0.0627 -0.25395,-0.0576 -0.46304,-0.10189 -0.7375,-0.21248 -0.2007,-0.0614 -0.36288,-0.10003 -0.62502,-0.10003 -0.2089,-0.0576 -0.42842,-0.11034 -0.62502,-0.22503 -0.27034,-0.0493 -0.47943,-0.19673 -0.7375,-0.24998 -0.1024,-0.0531 -0.25709,-0.10189 -0.42502,-0.21248 -0.31949,-0.0983 -0.62618,-0.31443 -0.93751,-0.42502 -0.0576,0 -0.0674,-0.0627 -0.11251,-0.0627 -2.15862,-1.15918 -4.00997,-2.88575 -5.3125,-5.2 -0.74548,-1.31073 -1.27536,-2.74548 -1.5375,-4.175 v -0.0499 c -0.0576,-0.42599 -0.0978,-0.78736 -0.21248,-1.26251 v -0.37497 c 0,-0.3154 -0.0499,-0.61799 -0.0499,-0.93751 v -0.21248 -101.875 h 0.0499 v -0.21248 c 0,-0.31129 0.006,-0.62208 0.0627,-0.93749 v -0.38752 c 0.0576,-0.42189 0.0935,-0.77486 0.2,-1.25001 v -0.0627 c 0.31949,-1.41723 0.78772,-2.77783 1.525,-4.15 1.31893,-2.26511 3.1705,-4.00848 5.32501,-5.225 0.0576,0 0.055,-0.0499 0.10003,-0.0499 0.31949,-0.21709 0.63053,-0.30189 0.94999,-0.41248 0.11059,-0.0493 0.26938,-0.11008 0.42503,-0.21248 0.26214,-0.1024 0.47942,-0.21338 0.7375,-0.26253 0.21709,-0.0576 0.42861,-0.10624 0.6375,-0.22502 0.2089,-0.0576 0.37108,-0.10004 0.62503,-0.10004 0.26214,-0.0614 0.47123,-0.0976 0.7375,-0.2 0.21709,-0.0576 0.36608,-0.0627 0.57498,-0.0627 0.26214,-0.0531 0.47942,-0.0499 0.73749,-0.0499 0.26215,0 0.43373,-0.006 0.7,-0.0627 z m 226.2,106.1625 c -2.21594,1.8473 -4.62706,3.52953 -7.1625,5 l -85.1375,49.0375 64.2125,-17.3375 c 5.27977,-1.42542 10.01068,-3.94712 14.0125,-7.1625 0.25395,-0.2048 0.48442,-0.43353 0.7875,-0.6875 0.68814,-0.58573 1.32247,-1.09422 1.9,-1.725 0.1106,-0.1065 0.26029,-0.26765 0.37498,-0.32499 0.31949,-0.31949 0.63053,-0.68482 0.94999,-1.0125 0.36045,-0.41779 0.72317,-0.76666 1.1,-1.25 0.57754,-0.63078 1.05008,-1.32005 1.53751,-2 0.2007,-0.31129 0.41203,-0.57945 0.62502,-0.8375 0.57754,-0.78643 1.04576,-1.52712 1.525,-2.37499 0.1024,-0.26215 0.26938,-0.42535 0.42502,-0.68751 0.42599,-0.78643 0.83327,-1.68447 1.31251,-2.475 0.0942,-0.31129 0.26029,-0.58355 0.37497,-0.83749 0.29492,-0.7414 0.62208,-1.53941 0.93751,-2.375 0.22528,-0.42189 0.31853,-0.84146 0.42502,-1.31251 0.2089,-0.63078 0.37863,-1.2608 0.58752,-1.88749 0.20071,-0.63079 0.31034,-1.33087 0.42503,-1.91251 0.0942,-0.41779 0.21747,-0.9447 0.26252,-1.36249 0.1024,-0.79464 0.2642,-1.68448 0.3625,-2.47501 0.0576,-0.31949 0.0627,-0.64279 0.0627,-0.94999 0.0493,-0.95438 0.10003,-1.83723 0.10003,-2.78751 z m -330.249995,4.3125 -15.637501,58.9875 c -0.06554,0.2048 -0.06744,0.31526 -0.112499,0.47501 -0.208896,0.78644 -0.368295,1.63121 -0.462503,2.475 -0.04928,0.36454 -0.11031,0.74795 -0.224998,1.11249 -0.208896,1.11003 -0.32585,2.21068 -0.375002,3.31251 v 0.27501 c -0.262144,3.94856 0.111731,8.05228 1.275,12.04999 1.736717,7.06565 5.542749,13.0174 10.437501,17.65001 0.1024,0.0493 0.201907,0.20928 0.312499,0.26252 0.688128,0.69223 1.416816,1.32161 2.15,1.85 0.319488,0.25396 0.630503,0.46714 0.95,0.7375 0.585728,0.42598 1.159964,0.77897 1.7375,1.25001 0.1024,0.0614 0.214407,0.11872 0.324999,0.2375 v -0.075 c -0.0576,-0.41779 -0.05939,-0.93241 -0.1125,-1.36249 v -0.2 c -0.04928,-1.00353 -0.106003,-2.06068 -0.212499,-3.16251 0,-0.31949 -0.04998,-0.63648 -0.04998,-1.06249 z" /></svg>
