<?xml version="1.0" encoding="UTF-8"?>
<svg id="svg14" width="64" height="64" enable-background="new 0 0 100 100" version="1.1" viewBox="0 0 64 64" xml:space="preserve" xmlns="http://www.w3.org/2000/svg"><path id="path823" d="m21.648 2.7812c-0.09856 0-0.18077 0.0078125-0.28125 0.0078125-0.10624 0.00768-0.21993 0.01461-0.32617 0.03125-0.05888 0.00832-0.12471 0.018516-0.18359 0.035156-0.1472 0.016-0.28643 0.048884-0.43555 0.089844-0.016 0-0.041281 0.009225-0.056641 0.015625-0.58496 0.14912-1.1437 0.37114-1.6641 0.67578h0.007812l0.03125 0.03125c0.33856 0.14848 0.64482 0.28932 0.92578 0.45508l14.025 8.1055-7.7383-7.7109c-0.17344-0.17408-0.35366-0.32889-0.55078-0.48633 0 0-0.009766-1.325e-4 -0.009766-0.0078125-0.15488-0.1152-0.29649-0.22256-0.46289-0.33008-0.014721-0.00896-0.037915-0.01461-0.046876-0.03125-0.1472-0.0896-0.29488-0.17461-0.44336-0.25781-0.04096-0.016-0.091047-0.040001-0.12305-0.056641-0.13248-0.05824-0.26528-0.12195-0.39648-0.17188-0.06656-0.03328-0.13276-0.049767-0.20508-0.066406-0.11776-0.0416-0.22922-0.073634-0.3457-0.11523-0.016-0.00896-0.049127-0.017578-0.066407-0.017578-0.06528-0.01728-0.1307-0.030709-0.19726-0.037109-0.09856-0.01792-0.19879-0.052227-0.28711-0.060547-0.10752-0.01664-0.21407-0.032188-0.32031-0.048828-0.0928-0.00832-0.16498-0.015283-0.25586-0.033203-0.10496-0.00768-0.22323-0.007305-0.33203-0.015625h-0.26172zm-6.1582 2.6172c-0.064 0-0.1308 0.0058594-0.20312 0.0058594-0.09856 0-0.20535 0.0099001-0.29688 0.017578-0.10624 0.00896-0.21407 0.016696-0.32031 0.041016-0.09152 0.00832-0.16693 0.015416-0.25781 0.041016-0.10624 0.01472-0.2134 0.049767-0.31836 0.066406-0.09152 0.016-0.17458 0.039493-0.25586 0.064453-0.09024 0.03392-0.18124 0.059156-0.27148 0.091797-0.10752 0.04096-0.21589 0.073668-0.31445 0.11719-0.05632 0.01472-0.113 0.045352-0.17188 0.070312-0.1312 0.0576-0.27114 0.12434-0.40234 0.19922-0.016 0.0089601-0.041348 0.01525-0.060546 0.03125-0.92864 0.50368-1.7427 1.2604-2.3027 2.2402-0.33024 0.56768-0.54512 1.1707-0.66992 1.7793 0 0.0077 6.317e-4 0.016056-0.0058593 0.041016-0.04224 0.17344-0.058219 0.34673-0.074219 0.51953-0.0077 0.05696-0.0078125 0.11296-0.0078125 0.16992-9e-3 0.13248-0.017578 0.26464-0.017578 0.39648v0.074218 43.887 0.074219c0 0.12992 0.0092981 0.26397 0.017578 0.39453 0 0.05888 0.0078125 0.11428 0.0078125 0.17188 0.016 0.1728 0.049259 0.34673 0.074219 0.51953 0 0.0083-6.315e-4 0.017369 0.0058593 0.042969 0.1248 0.608 0.33968 1.2083 0.66992 1.7754 0.56 0.97857 1.3734 1.7282 2.3027 2.2383 0.018559 9e-3 0.043906 0.015923 0.060546 0.033203 0.1312 0.06592 0.27114 0.13071 0.40234 0.19727 0.05888 0.03392 0.11555 0.051852 0.17188 0.076172 0.10752 0.03968 0.20693 0.07363 0.31445 0.11523 0.09024 0.032 0.17292 0.058484 0.27148 0.089844 0.09024 0.01472 0.16498 0.049766 0.25586 0.066406 0.10496 0.03328 0.21212 0.047813 0.31836 0.064453 0.0736 0.01728 0.16693 0.035256 0.25781 0.041016 0.10624 0.01664 0.21407 0.034615 0.32031 0.041015 0.09856 0.0077 0.19831 0.009898 0.29688 0.017579 0.06528 0 0.1308 0.007812 0.20312 0.007812h0.076172c0.12224 0 0.23599-0.007995 0.36719-0.015625 0.06656-0.0077 0.14956-0.009195 0.21484-0.015625 0.14976-0.0672 0.28838-0.09169 0.4375-0.12305 0.04992-0.0083 0.09118-0.009198 0.13086-0.017578 0.16384-0.04096 0.33094-0.07572 0.49414-0.125 0.017279-7e-3 0.03872-0.004702 0.05664-0.013672 0.17344-0.05696 0.35404-0.12238 0.53516-0.19726h0.009766c0.22272-0.099202 0.44377-0.20006 0.65625-0.32422l38.014-21.941c0.74753-0.42816 1.3564-0.99573 1.8262-1.6543 0.03264-0.03968 0.057202-0.09313 0.089844-0.13281 0.07616-0.10816 0.15866-0.22138 0.22266-0.33594 9e-3 -0.016 0.033302-0.040807 0.039062-0.066407 0.04352-0.05888 0.06825-0.12302 0.09961-0.19726 0.04096-0.07488 0.09027-0.15818 0.11523-0.23242 0.05888-0.11584 0.10633-0.23636 0.15625-0.35156 0.016-0.05056 0.041954-0.09932 0.058594-0.1582 0.04864-0.1312 0.09889-0.27781 0.13281-0.41797 0.0077-0.04096 0.016563-0.07431 0.033203-0.11719 0.04096-0.14656 0.063705-0.27861 0.095703-0.42773 0.009001-0.04864 0.01919-0.09784 0.03711-0.14648 0.01472-0.12416 0.039195-0.26384 0.046875-0.38672 9e-3 -0.07424 0.009795-0.14909 0.015625-0.22461 0.01024-0.1056 0.009765-0.20367 0.009766-0.31055 0-0.10816-2e-4 -0.20565-0.009766-0.31445 0-0.07296-0.005402-0.14646-0.013672-0.2207-0.0077-0.12416-0.034108-0.2632-0.048828-0.38672-9e-3 -0.04992-0.017236-0.09784-0.035156-0.14648-0.03264-0.15104-0.056697-0.29148-0.097657-0.43164-9e-3 -0.0416-0.015382-0.073729-0.039062-0.12109-0.04352-0.1504-0.09445-0.28107-0.13477-0.42187-0.01472-0.048-0.04128-0.097371-0.05664-0.15625-0.04864-0.11584-0.09737-0.23963-0.15625-0.35547-0.04224-0.07296-0.07185-0.15441-0.12305-0.23633-0.03392-0.05824-0.056697-0.12498-0.097656-0.19922-0.009001-0.016-0.033369-0.040133-0.042969-0.064453-0.064-0.11584-0.1471-0.23232-0.2207-0.33984-0.03392-0.04032-0.057877-0.0899-0.091797-0.13086-0.47616-0.6592-1.0864-1.2191-1.8281-1.6543l-37.996-21.936c-0.21248-0.12224-0.43417-0.22879-0.65625-0.32031h-0.009766c-0.17285-0.073601-0.34508-0.13199-0.53516-0.19727-0.01728-0.0083201-0.038721-0.00666-0.05664-0.015625-0.16384-0.04928-0.33094-0.10004-0.49414-0.125-0.04864-0.00768-0.0899-0.015625-0.13086-0.015625-0.14848-0.032-0.2871-0.048487-0.4375-0.066406-0.065281-0.00896-0.14828-0.00795-0.21484-0.015625-0.12224-0.00896-0.23727-0.015625-0.36719-0.015625h-0.076172zm7.9453 17.736h0.074219 0.03125c0.04864 0 0.09185 8.19e-4 0.13281 0.009765 0.03392 0 0.047979-4.44e-4 0.074219 0.007813 0.04864 9e-3 0.10633 0.007995 0.15625 0.015625 0.016 0 0.032155 0.009765 0.046875 0.009765 0.05888 7e-3 0.11639 0.032222 0.18359 0.050782 0.0064 0 0.006602-6.32e-4 0.013672 0.005859 0.067199 0.016 0.12498 0.050406 0.19922 0.066406 0.0736 0.04096 0.16408 0.06663 0.24024 0.11719l13.787 7.957c0.27008 0.15552 0.49305 0.35321 0.65625 0.59961 9e-3 0.016 0.015283 0.034782 0.033203 0.050782 0.03264 0.03968 0.058219 0.07377 0.074219 0.12305 9e-3 0.007699 0.008595 0.015625 0.015625 0.015624 9e-3 0.016 0.016055 0.051687 0.041015 0.066407 0.01472 0.03328 0.033502 0.056564 0.050782 0.089843 0.01472 0.040321 0.04 0.09041 0.05664 0.12305 0.0077 0.016 0.017579 0.041954 0.017578 0.058594 0.01728 0.04928 0.037915 0.09737 0.046876 0.15625 0 0.016 0.009765 0.032861 0.009765 0.050781 9e-3 0.04864 0.033203 0.10566 0.033203 0.1543 0 0.01728 0.007813 0.041347 0.007813 0.060547 9e-3 0.04608 0.008595 0.096562 0.015625 0.14648 0 0.032641 8.2e-4 0.051179 0.009765 0.074219v0.11524 0.11523c0 0.03328-7.3e-4 0.049259-0.009765 0.074219 0 0.04992-0.005402 0.09848-0.013672 0.14648 0 0.01664-0.009766 0.041314-0.009766 0.058594-9e-3 0.04928-0.014775 0.10697-0.041015 0.15625 0 0.01664-0.009766 0.034141-0.009766 0.050781-9e-3 0.04864-0.031548 0.10694-0.048828 0.1543-0.0077 0.01728-0.007902 0.043874-0.013672 0.058594-0.01728 0.05056-0.040674 0.09105-0.058594 0.12305-9e-3 0.03392-0.032828 0.057877-0.048828 0.091796-9e-3 0.016-0.017336 0.048454-0.041015 0.064454 0 9e-3 -0.009299 0.015625-0.017579 0.015625-0.03264 0.03968-0.049865 0.093-0.072265 0.125-0.01024 0.01664-0.017843 0.031548-0.033203 0.048828-0.17344 0.23744-0.39648 0.44412-0.66016 0.60156l-13.787 7.959c-0.07488 0.04864-0.157 0.09155-0.23828 0.11523-0.06656 0.03392-0.1237 0.051719-0.19922 0.068359-0.0064 0-0.007295-0.001087-0.015625 0.007813-0.05888 0.01472-0.117 0.039868-0.18164 0.048828-0.016 0-0.033445 0.007812-0.046875 0.007812-0.04992 0.009001-0.107 0.017579-0.1582 0.017579-0.03136 0-0.048575 1.44e-4 -0.072265 0.007812-0.04992 0-0.089901 0.009766-0.13086 0.009766h-0.035156-0.074219c-0.04096 0-0.067101 5.08e-4 -0.10742-0.009766-0.04096 0-0.072959-0.007812-0.11328-0.007812-0.0352 0-0.05983-0.009766-0.09375-0.009766-0.03968-9e-3 -0.07235-0.015923-0.11523-0.033203-0.03136-0.0096-0.056696-0.015625-0.097656-0.015625-0.032641-9e-3 -0.066937-0.017236-0.097657-0.035156-0.04224-0.0077-0.07491-0.030743-0.11523-0.039063-0.016-0.0083-0.040166-0.015923-0.066406-0.033203-0.04992-0.01536-0.09784-0.049126-0.14648-0.066406-9e-3 0-0.010528-0.009766-0.017578-0.009766-0.33728-0.18112-0.62656-0.4509-0.83008-0.8125-0.11648-0.2048-0.19927-0.42898-0.24023-0.65234v-0.007812c-9e-3 -0.06656-0.015283-0.12302-0.033204-0.19727v-0.058593c0-0.049282-0.007812-0.09656-0.007812-0.14648v-0.033203-15.918h0.007812v-0.033203c0-0.04864 8.22e-4 -0.0972 0.009766-0.14648v-0.060547c9e-3 -0.06592 0.01461-0.12107 0.03125-0.19531v-0.009765c0.04992-0.22144 0.12308-0.43404 0.23828-0.64844 0.20608-0.35392 0.49539-0.62632 0.83203-0.81641 9e-3 0 0.008595-0.007813 0.015625-0.007813 0.04992-0.033919 0.09852-0.047173 0.14844-0.064453 0.01728-0.0077 0.042086-0.017203 0.066406-0.033203 0.04096-0.016 0.07491-0.033335 0.11524-0.041015 0.03392-9e-3 0.066969-0.016597 0.099609-0.035157 0.03264-9e-3 0.057976-0.015625 0.097656-0.015625 0.04096-0.0096 0.07363-0.01525 0.11524-0.03125 0.03392-9e-3 0.057203-0.009765 0.089844-0.009765 0.040959-0.0083 0.07491-0.007813 0.11523-0.007813 0.04096 0 0.06777-8.2e-4 0.10938-0.009765zm35.344 16.588c-0.34624 0.28864-0.72298 0.55149-1.1191 0.78125l-13.303 7.6621 10.033-2.709c0.82496-0.22272 1.5642-0.61674 2.1895-1.1191 0.03968-0.032 0.075687-0.067741 0.12305-0.10742 0.10752-0.09152 0.20664-0.17097 0.29688-0.26953 0.01728-0.016641 0.040674-0.041822 0.058594-0.050782 0.04992-0.04992 0.098516-0.107 0.14844-0.1582 0.05632-0.06528 0.11299-0.11979 0.17188-0.19531 0.09024-0.09856 0.16408-0.20626 0.24024-0.3125 0.03136-0.04864 0.064376-0.090539 0.097656-0.13086 0.09024-0.12288 0.1634-0.23861 0.23828-0.37109 0.016-0.04096 0.042086-0.066462 0.066406-0.10742 0.06656-0.12288 0.1302-0.2632 0.20508-0.38672 0.01472-0.04864 0.040674-0.091178 0.058594-0.13086 0.04608-0.11584 0.097204-0.24053 0.14648-0.37109 0.0352-0.06592 0.049766-0.13148 0.066406-0.20508 0.03264-0.09856 0.059157-0.197 0.091797-0.29492 0.03136-0.09856 0.048486-0.20795 0.066406-0.29883 0.01472-0.06528 0.033976-0.14761 0.041016-0.21289 0.016-0.12416 0.04128-0.2632 0.05664-0.38672 9e-3 -0.04992 0.009766-0.10044 0.009766-0.14844 0.0077-0.14912 0.015625-0.28707 0.015625-0.43555v-0.041016zm-51.602 0.67383-2.4434 9.2168c-0.01024 0.032-0.010538 0.049259-0.017578 0.074219-0.03264 0.12288-0.057546 0.25488-0.072266 0.38672-0.0076999 0.05696-0.017236 0.11687-0.035156 0.17383-0.03264 0.17344-0.050914 0.34542-0.058594 0.51758v0.042969c-0.04096 0.61696 0.017458 1.2582 0.19922 1.8828 0.27136 1.104 0.86605 2.034 1.6309 2.7578 0.016 0.0077 0.031548 0.032695 0.048828 0.041015 0.10752 0.10816 0.22138 0.2065 0.33594 0.28906 0.04992 0.03968 0.098516 0.072994 0.14844 0.11523 0.09152 0.06656 0.18124 0.12171 0.27148 0.19531 0.016 0.0096 0.033501 0.018549 0.050781 0.037109v-0.011719c-9e-3 -0.06528-0.0092781-0.14569-0.017578-0.21289v-0.03125c-0.0077-0.1568-0.016563-0.32198-0.033203-0.49414 0-0.04992-0.0078125-0.099455-0.0078125-0.16602v-14.814z" fill="#fff"/></svg>
