<?xml version="1.0" encoding="UTF-8"?>
<svg id="svg14" width="64" height="64" enable-background="new 0 0 100 100" version="1.1" viewBox="0 0 64 64" xml:space="preserve" xmlns="http://www.w3.org/2000/svg"><path id="path823" d="m21.649 2.7812c-0.09856 0-0.18077 0.00781-0.28125 0.00781-0.10624 0.00768-0.21993 0.01461-0.32617 0.03125-0.05888 0.00832-0.12471 0.018516-0.18359 0.035156-0.1472 0.016-0.28643 0.048884-0.43555 0.089844-0.016 0-0.04128 0.00922-0.05664 0.015625-0.58496 0.14912-1.1437 0.37114-1.6641 0.67578h0.0078l0.03125 0.03125c0.33856 0.14848 0.64482 0.28932 0.92578 0.45508l14.025 8.1055-7.7383-7.7109c-0.17344-0.17408-0.35366-0.32889-0.55078-0.48633 0 0-0.0098-1.325e-4 -0.0098-0.00781-0.15488-0.1152-0.29649-0.22256-0.46289-0.33008-0.01472-0.00896-0.03791-0.01461-0.04688-0.03125-0.1472-0.0896-0.29488-0.17461-0.44336-0.25781-0.04096-0.016-0.09105-0.040001-0.12305-0.056641-0.13248-0.05824-0.26528-0.12195-0.39648-0.17188-0.06656-0.03328-0.13276-0.049767-0.20508-0.066406-0.11776-0.0416-0.22922-0.073634-0.3457-0.11523-0.016-0.00896-0.04913-0.017578-0.06641-0.017578-0.06528-0.01728-0.1307-0.030709-0.19726-0.037109-0.09856-0.01792-0.19879-0.052227-0.28711-0.060547-0.10752-0.01664-0.21407-0.032188-0.32031-0.048828-0.0928-0.00832-0.16498-0.015283-0.25586-0.033203-0.10496-0.00768-0.22323-0.0073-0.33203-0.015625h-0.26172zm-6.1582 2.6172c-0.064 0-0.1308 0.00586-0.20312 0.00586-0.09856 0-0.20535 0.0099-0.29688 0.017578-0.10624 0.00896-0.21407 0.016696-0.32031 0.041016-0.09152 0.00832-0.16693 0.015416-0.25781 0.041016-0.10624 0.01472-0.2134 0.049767-0.31836 0.066406-0.09152 0.016-0.17458 0.039493-0.25586 0.064453-0.09024 0.03392-0.18124 0.059156-0.27148 0.091797-0.10752 0.04096-0.21589 0.073668-0.31445 0.11719-0.05632 0.01472-0.113 0.045352-0.17188 0.070312-0.1312 0.0576-0.27114 0.12434-0.40234 0.19922-0.016 0.00896-0.04135 0.01525-0.06055 0.03125-0.92864 0.50368-1.7427 1.2604-2.3027 2.2402-0.33024 0.56768-0.54512 1.1707-0.66992 1.7793 0 0.0077 6.317e-4 0.01606-0.00586 0.04102-0.04224 0.17344-0.058219 0.34673-0.074219 0.51953-0.0077 0.05696-0.00781 0.11296-0.00781 0.16992-9e-3 0.13248-0.017578 0.26464-0.017578 0.39648v44.035c0 0.12992 0.0093 0.26397 0.017578 0.39453 0 0.05888 0.00781 0.11428 0.00781 0.17188 0.016 0.1728 0.049259 0.34673 0.074219 0.51953 0 0.0083-6.315e-4 0.01737 0.00586 0.04297 0.1248 0.608 0.33968 1.2083 0.66992 1.7754 0.56 0.97857 1.3734 1.7282 2.3027 2.2383 0.01856 9e-3 0.04391 0.01592 0.06055 0.0332 0.1312 0.06592 0.27114 0.13071 0.40234 0.19727 0.05888 0.03392 0.11555 0.05185 0.17188 0.07617 0.10752 0.03968 0.20693 0.07363 0.31445 0.11523 0.09024 0.032 0.17292 0.05848 0.27148 0.08984 0.09024 0.01472 0.16498 0.04977 0.25586 0.06641 0.10496 0.03328 0.21212 0.04781 0.31836 0.06445 0.0736 0.01728 0.16693 0.03526 0.25781 0.04102 0.10624 0.01664 0.21407 0.03462 0.32031 0.04102 0.09856 0.0077 0.19831 0.0099 0.29688 0.01758 0.06528 0 0.1308 0.0078 0.20312 0.0078h0.07617c0.12224 0 0.23599-8e-3 0.36719-0.01563 0.06656-0.0077 0.14956-0.0092 0.21484-0.01563 0.14976-0.0672 0.28838-0.09169 0.4375-0.12305 0.04992-0.0083 0.09118-0.0092 0.13086-0.01758 0.16384-0.04096 0.33094-0.07572 0.49414-0.125 0.01728-7e-3 0.03872-0.0047 0.05664-0.01367 0.17344-0.05696 0.35404-0.12238 0.53516-0.19726h0.0098c0.22272-0.0992 0.44377-0.20006 0.65625-0.32422l38.014-21.941c0.74753-0.42816 1.3564-0.99573 1.8262-1.6543 0.03264-0.03968 0.0572-0.09313 0.08984-0.13281 0.07616-0.10816 0.15866-0.22138 0.22266-0.33594 9e-3 -0.016 0.0333-0.04081 0.03906-0.06641 0.04352-0.05888 0.06825-0.12302 0.09961-0.19726 0.04096-0.07488 0.09027-0.15818 0.11523-0.23242 0.05888-0.11584 0.10633-0.23636 0.15625-0.35156 0.016-0.05056 0.04195-0.09932 0.05859-0.1582 0.04864-0.1312 0.09889-0.27781 0.13281-0.41797 0.0077-0.04096 0.01656-0.07431 0.0332-0.11719 0.04096-0.14656 0.0637-0.27861 0.0957-0.42773 9e-3 -0.04864 0.01919-0.09784 0.03711-0.14648 0.01472-0.12416 0.03919-0.26384 0.04687-0.38672 9e-3 -0.07424 0.0098-0.14909 0.01563-0.22461 0.01024-0.1056 0.0098-0.20367 0.0098-0.31055 0-0.10816-2e-4 -0.20565-0.0098-0.31445 0-0.07296-0.0054-0.14646-0.01367-0.2207-0.0077-0.12416-0.03411-0.2632-0.04883-0.38672-9e-3 -0.04992-0.01724-0.09784-0.03516-0.14648-0.03264-0.15104-0.0567-0.29148-0.09766-0.43164-9e-3 -0.0416-0.01538-0.07373-0.03906-0.12109-0.04352-0.1504-0.09445-0.28107-0.13477-0.42187-0.01472-0.048-0.04128-0.09737-0.05664-0.15625-0.04864-0.11584-0.09737-0.23963-0.15625-0.35547-0.04224-0.07296-0.07185-0.15441-0.12305-0.23633-0.03392-0.05824-0.0567-0.12498-0.09766-0.19922-9e-3 -0.016-0.03337-0.04013-0.04297-0.06445-0.064-0.11584-0.1471-0.23232-0.2207-0.33984-0.03392-0.04032-0.05788-0.0899-0.0918-0.13086-0.47616-0.6592-1.0864-1.2191-1.8281-1.6543l-37.996-21.936c-0.21248-0.12224-0.43417-0.22879-0.65625-0.32031h-0.0098c-0.17285-0.073601-0.34508-0.13199-0.53516-0.19727-0.01728-0.00832-0.03872-0.00666-0.05664-0.015625-0.16384-0.04928-0.33094-0.10004-0.49414-0.125-0.04864-0.00768-0.0899-0.015625-0.13086-0.015625-0.14848-0.032-0.2871-0.048487-0.4375-0.066406-0.06528-0.00896-0.14828-0.00795-0.21484-0.015625-0.12224-0.00896-0.23727-0.015625-0.36719-0.015625h-0.07617zm7.9453 17.736h0.10547c0.04864 0 0.09185 8.19e-4 0.13281 0.0098 0.03392 0 0.04798-4.44e-4 0.07422 0.0078 0.04864 9e-3 0.10633 8e-3 0.15625 0.01563 0.016 0 0.03216 0.0098 0.04687 0.0098 0.05888 7e-3 0.11639 0.03222 0.18359 0.05078 0.0064 0 0.0066-6.32e-4 0.01367 0.0059 0.0672 0.016 0.12498 0.05041 0.19922 0.06641 0.0736 0.04096 0.16408 0.06663 0.24024 0.11719l13.787 7.957c0.27008 0.15552 0.49305 0.35321 0.65625 0.59961 9e-3 0.016 0.01528 0.03478 0.0332 0.05078 0.03264 0.03968 0.05822 0.07377 0.07422 0.12305 9e-3 0.0077 0.0086 0.01563 0.01563 0.01562 9e-3 0.016 0.01605 0.05169 0.04101 0.06641 0.01472 0.03328 0.0335 0.05656 0.05078 0.08984 0.01472 0.04032 0.04 0.09041 0.05664 0.12305 0.0077 0.016 0.01758 0.04195 0.01758 0.05859 0.01728 0.04928 0.03792 0.09737 0.04688 0.15625 0 0.016 0.0098 0.03286 0.0098 0.05078 9e-3 0.04864 0.0332 0.10566 0.0332 0.1543 0 0.01728 0.0078 0.04135 0.0078 0.06055 9e-3 0.04608 0.0086 0.09656 0.01563 0.14648 0 0.03264 8.2e-4 0.05118 0.0098 0.07422v0.23047c0 0.03328-7.3e-4 0.04926-0.0098 0.07422 0 0.04992-0.0054 0.09848-0.01367 0.14648 0 0.01664-0.0098 0.04131-0.0098 0.05859-9e-3 0.04928-0.01478 0.10697-0.04101 0.15625 0 0.01664-0.0098 0.03414-0.0098 0.05078-9e-3 0.04864-0.03155 0.10694-0.04883 0.1543-0.0077 0.01728-0.0079 0.04387-0.01367 0.05859-0.01728 0.05056-0.04067 0.09105-0.05859 0.12305-9e-3 0.03392-0.03283 0.05788-0.04883 0.0918-9e-3 0.016-0.01734 0.04845-0.04101 0.06445 0 9e-3 -0.0093 0.01563-0.01758 0.01563-0.03264 0.03968-0.04986 0.093-0.07226 0.125-0.01024 0.01664-0.01784 0.03155-0.0332 0.04883-0.17344 0.23744-0.39648 0.44412-0.66016 0.60156l-13.787 7.959c-0.07488 0.04864-0.157 0.09155-0.23828 0.11523-0.06656 0.03392-0.1237 0.05172-0.19922 0.06836-0.0064 0-0.0073-0.0011-0.01563 0.0078-0.05888 0.01472-0.117 0.03987-0.18164 0.04883-0.016 0-0.03345 0.0078-0.04687 0.0078-0.04992 9e-3 -0.107 0.01758-0.1582 0.01758-0.03136 0-0.04857 1.44e-4 -0.07227 0.0078-0.04992 0-0.0899 0.0098-0.13086 0.0098h-0.10938c-0.04096 0-0.0671 5.08e-4 -0.10742-0.0098-0.04096 0-0.07296-0.0078-0.11328-0.0078-0.0352 0-0.05983-0.0098-0.09375-0.0098-0.03968-9e-3 -0.07235-0.01592-0.11523-0.0332-0.03136-0.0096-0.0567-0.01563-0.09766-0.01563-0.03264-9e-3 -0.06694-0.01724-0.09766-0.03516-0.04224-0.0077-0.07491-0.03074-0.11523-0.03906-0.016-0.0083-0.04017-0.01592-0.06641-0.0332-0.04992-0.01536-0.09784-0.04913-0.14648-0.06641-9e-3 0-0.01053-0.0098-0.01758-0.0098-0.33728-0.18112-0.62656-0.4509-0.83008-0.8125-0.11648-0.2048-0.19927-0.42898-0.24023-0.65234v-0.0078c-9e-3 -0.06656-0.01528-0.12302-0.0332-0.19727v-0.05859c0-0.04928-0.0078-0.09656-0.0078-0.14648v-15.951h0.0078v-0.0332c0-0.04864 8.22e-4 -0.0972 0.0098-0.14648v-0.06055c9e-3 -0.06592 0.01461-0.12107 0.03125-0.19531v-0.0098c0.04992-0.22144 0.12308-0.43404 0.23828-0.64844 0.20608-0.35392 0.49539-0.62632 0.83203-0.81641 9e-3 0 0.0086-0.0078 0.01563-0.0078 0.04992-0.03392 0.09852-0.04717 0.14844-0.06445 0.01728-0.0077 0.04209-0.0172 0.06641-0.0332 0.04096-0.016 0.07491-0.03334 0.11524-0.04101 0.03392-9e-3 0.06697-0.0166 0.09961-0.03516 0.03264-9e-3 0.05798-0.01563 0.09766-0.01563 0.04096-0.0096 0.07363-0.01525 0.11524-0.03125 0.03392-9e-3 0.0572-0.0098 0.08984-0.0098 0.04096-0.0083 0.07491-0.0078 0.11523-0.0078 0.04096 0 0.06777-8.2e-4 0.10938-0.0098zm35.344 16.588c-0.34624 0.28864-0.72298 0.55149-1.1191 0.78125l-13.303 7.6621 10.033-2.709c0.82496-0.22272 1.5642-0.61674 2.1895-1.1191 0.03968-0.032 0.07569-0.06774 0.12305-0.10742 0.10752-0.09152 0.20664-0.17097 0.29688-0.26953 0.01728-0.01664 0.04067-0.04182 0.05859-0.05078 0.04992-0.04992 0.09852-0.107 0.14844-0.1582 0.05632-0.06528 0.11299-0.11979 0.17188-0.19531 0.09024-0.09856 0.16408-0.20626 0.24024-0.3125 0.03136-0.04864 0.06438-0.09054 0.09766-0.13086 0.09024-0.12288 0.1634-0.23861 0.23828-0.37109 0.016-0.04096 0.04209-0.06646 0.06641-0.10742 0.06656-0.12288 0.1302-0.2632 0.20508-0.38672 0.01472-0.04864 0.04067-0.09118 0.05859-0.13086 0.04608-0.11584 0.0972-0.24053 0.14648-0.37109 0.0352-0.06592 0.04977-0.13148 0.06641-0.20508 0.03264-0.09856 0.05916-0.197 0.0918-0.29492 0.03136-0.09856 0.04849-0.20795 0.06641-0.29883 0.01472-0.06528 0.03398-0.14761 0.04102-0.21289 0.016-0.12416 0.04128-0.2632 0.05664-0.38672 9e-3 -0.04992 0.0098-0.10044 0.0098-0.14844 0.0077-0.14912 0.01563-0.28707 0.01563-0.43555v-0.04102zm-51.602 0.67383-2.4434 9.2168c-0.01024 0.032-0.010538 0.04926-0.017578 0.07422-0.03264 0.12288-0.057546 0.25488-0.072266 0.38672-0.0077 0.05696-0.017236 0.11687-0.035156 0.17383-0.03264 0.17344-0.050914 0.34542-0.058594 0.51758v0.04297c-0.04096 0.61696 0.017458 1.2582 0.19922 1.8828 0.27136 1.104 0.86605 2.034 1.6309 2.7578 0.016 0.0077 0.031548 0.03269 0.048828 0.04102 0.10752 0.10816 0.22138 0.2065 0.33594 0.28906 0.04992 0.03968 0.098516 0.07299 0.14844 0.11523 0.09152 0.06656 0.18124 0.12171 0.27148 0.19531 0.016 0.0096 0.033501 0.01855 0.050781 0.03711v-0.01172c-9e-3 -0.06528-0.00928-0.14569-0.017578-0.21289v-0.03125c-0.0077-0.1568-0.016563-0.32198-0.033203-0.49414 0-0.04992-0.00781-0.09945-0.00781-0.16602v-14.814z" fill="#fff"/></svg>
