<?xml version="1.0" encoding="UTF-8"?>
<svg id="svg14" width="64" height="64" enable-background="new 0 0 100 100" version="1.1" viewBox="0 0 64 64" xml:space="preserve" xmlns="http://www.w3.org/2000/svg"><path id="rect1173" d="m16 0c-8.864 0-16 7.136-16 16v32c0 8.864 7.136 16 16 16h32c8.864 0 16-7.136 16-16v-32c0-8.864-7.136-16-16-16h-32z" fill="#0f0f0f"/><path id="path823" d="m25.237 10.086c-0.07392 0-0.13558 0.0059-0.21094 0.0059-0.07968 0.0058-0.16495 0.01096-0.24463 0.02344-0.04416 0.0062-0.09353 0.01389-0.13769 0.02637-0.1104 0.012-0.21482 0.03666-0.32666 0.06738-0.012 0-0.03096 0.0069-0.04248 0.01172-0.43872 0.11184-0.85778 0.27836-1.2481 0.50684h0.0059l0.02344 0.02344c0.25392 0.11136 0.48362 0.21699 0.69434 0.34131l10.519 6.0791-5.8037-5.7832c-0.13008-0.13056-0.26524-0.24667-0.41308-0.36475 0 0-0.0073-9.9e-5 -0.0073-0.0059-0.11616-0.0864-0.22237-0.16692-0.34717-0.24756-0.01104-0.0067-0.02844-0.01096-0.03516-0.02344-0.1104-0.0672-0.22116-0.13096-0.33252-0.19336-0.03072-0.012-0.06828-0.03-0.09229-0.04248-0.09936-0.04368-0.19896-0.09146-0.29736-0.12891-0.04992-0.02496-0.09957-0.03733-0.15381-0.04981-0.08832-0.0312-0.17192-0.05523-0.25928-0.08642-0.012-0.0067-0.03685-0.01318-0.04981-0.01318-0.04896-0.01296-0.09802-0.02303-0.14794-0.02783-0.07392-0.01344-0.14909-0.03917-0.21533-0.04541-0.08064-0.01248-0.16055-0.02414-0.24023-0.03662-0.0696-0.0062-0.12374-0.01146-0.1919-0.0249-0.07872-0.0058-0.16742-0.0055-0.24902-0.01172h-0.19629zm-4.6186 1.9629c-0.048 0-0.0981 0.0044-0.15234 0.0044-0.07392 0-0.15401 0.0074-0.22266 0.01318-0.07968 0.0067-0.16055 0.01252-0.24023 0.03076-0.06864 0.0062-0.1252 0.01156-0.19336 0.03076-0.07968 0.01104-0.16005 0.03732-0.23877 0.0498-0.06864 0.012-0.13094 0.02962-0.1919 0.04834-0.06768 0.02544-0.13593 0.04437-0.20361 0.06885-0.08064 0.03072-0.16192 0.05525-0.23584 0.08789-0.04224 0.01104-0.08475 0.03401-0.12891 0.05273-0.0984 0.0432-0.20336 0.09326-0.30176 0.14942-0.012 0.0067-0.03101 0.01144-0.04541 0.02344-0.69648 0.37776-1.307 0.9453-1.727 1.6802-0.24768 0.42576-0.40884 0.87802-0.50244 1.3345 0 0.0058 4.74e-4 0.01204-0.0044 0.03076-0.03168 0.13008-0.04366 0.26005-0.05566 0.38965-0.0058 0.04272-0.0059 0.08472-0.0059 0.12744-0.0068 0.09936-0.01318 0.19848-0.01318 0.29736v33.027c0 0.09744 7e-3 0.19798 0.01318 0.2959 0 0.04416 0.0059 0.08571 0.0059 0.12891 0.012 0.1296 0.03694 0.26005 0.05566 0.38965 0 0.0062-4.74e-4 0.01303 0.0044 0.03223 0.0936 0.456 0.25476 0.90623 0.50244 1.3316 0.42 0.73393 1.03 1.2962 1.727 1.6787 0.01392 0.0068 0.03293 0.01194 0.04541 0.0249 0.0984 0.04944 0.20336 0.09803 0.30176 0.14795 0.04416 0.02544 0.08666 0.03889 0.12891 0.05713 0.08064 0.02976 0.1552 0.05522 0.23584 0.08642 0.06768 0.024 0.12969 0.04386 0.20361 0.06738 0.06768 0.01104 0.12374 0.03733 0.1919 0.0498 0.07872 0.02496 0.15909 0.03586 0.23877 0.04834 0.0552 0.01296 0.1252 0.02644 0.19336 0.03076 0.07968 0.01248 0.16055 0.02596 0.24023 0.03076 0.07392 0.0058 0.14873 0.0074 0.22266 0.01318 0.04896 0 0.0981 0.0059 0.15234 0.0059h0.05713c0.09168 0 0.17699-6e-3 0.27539-0.01172 0.04992-0.0058 0.11217-0.0069 0.16113-0.01172 0.11232-0.0504 0.21628-0.06877 0.32812-0.09229 0.03744-0.0062 0.06839-0.0069 0.09815-0.01318 0.12288-0.03072 0.2482-0.05679 0.3706-0.09375 0.01296-0.0053 0.02904-0.0035 0.04248-0.01025 0.13008-0.04272 0.26553-0.09179 0.40137-0.14794h0.0073c0.16704-0.0744 0.33283-0.15004 0.49219-0.24316l28.51-16.456c0.56065-0.32112 1.0173-0.7468 1.3696-1.2407 0.02448-0.02976 0.0429-0.06985 0.06738-0.09961 0.05712-0.08112 0.119-0.16604 0.167-0.25196 0.0068-0.012 0.02498-0.0306 0.0293-0.0498 0.03264-0.04416 0.05119-0.09227 0.07471-0.14794 0.03072-0.05616 0.0677-0.11864 0.08642-0.17432 0.04416-0.08688 0.07975-0.17727 0.11719-0.26367 0.012-0.03792 0.03147-0.07449 0.04395-0.11865 0.03648-0.0984 0.07417-0.20836 0.09961-0.31348 0.0058-0.03072 0.01242-0.05573 0.0249-0.08789 0.03072-0.10992 0.04778-0.20896 0.07178-0.3208 0.0068-0.03648 0.01439-0.07338 0.02783-0.10986 0.01104-0.09312 0.0294-0.19788 0.03516-0.29004 0.0067-0.05568 0.0073-0.11182 0.01172-0.16846 0.0077-0.0792 0.0073-0.15275 0.0073-0.23291 0-0.08112-1.5e-4 -0.15424-0.0073-0.23584 0-0.05472-0.0041-0.10984-0.01025-0.16552-0.0058-0.09312-0.02558-0.1974-0.03662-0.29004-0.0068-0.03744-0.01293-0.07338-0.02637-0.10986-0.02448-0.11328-0.04252-0.21861-0.07324-0.32373-0.0068-0.0312-0.01154-0.0553-0.0293-0.09082-0.03264-0.1128-0.07084-0.2108-0.10108-0.3164-0.01104-0.036-0.03096-0.07303-0.04248-0.11719-0.03648-0.08688-0.07303-0.17972-0.11719-0.2666-0.03168-0.05472-0.05389-0.11581-0.09229-0.17725-0.02544-0.04368-0.04252-0.09373-0.07324-0.14942-0.0068-0.012-0.02503-0.0301-0.03223-0.04834-0.048-0.08688-0.11032-0.17424-0.16552-0.25488-0.02544-0.03024-0.04341-0.06743-0.06885-0.09814-0.35712-0.4944-0.8148-0.91432-1.3711-1.2407l-28.497-16.452c-0.15936-0.09168-0.32563-0.17159-0.49219-0.24023h-0.0073c-0.12964-0.0552-0.25881-0.09899-0.40137-0.14795-0.01296-0.0062-0.02904-5e-3 -0.04248-0.01172-0.12288-0.03696-0.2482-0.07503-0.3706-0.09375-0.03648-0.0058-0.06743-0.01172-0.09814-0.01172-0.11136-0.024-0.21532-0.03636-0.32812-0.0498-0.04896-0.0067-0.11121-6e-3 -0.16113-0.01172-0.09168-0.0067-0.17795-0.01172-0.27539-0.01172h-0.05713zm5.959 13.302h0.0791c0.03648 0 0.06889 6.13e-4 0.09961 0.0073 0.02544 0 0.03598-3.34e-4 0.05566 0.0059 0.03648 0.0068 0.07975 6e-3 0.11719 0.01172 0.012 0 0.02412 0.0073 0.03516 0.0073 0.04416 0.0053 0.08729 0.02417 0.13769 0.03809 0.0048 0 5e-3 -4.74e-4 0.01025 0.0044 0.0504 0.012 0.09373 0.0378 0.14942 0.0498 0.0552 0.03072 0.12306 0.04997 0.18018 0.08789l10.34 5.9678c0.20256 0.11664 0.36979 0.26491 0.49219 0.44971 0.0068 0.012 0.01146 0.02609 0.0249 0.03809 0.02448 0.02976 0.04366 0.05533 0.05566 0.09229 0.0068 0.0058 0.0064 0.01172 0.01172 0.01172 0.0068 0.012 0.01204 0.03877 0.03076 0.04981 0.01104 0.02496 0.02513 0.04242 0.03809 0.06738 0.01104 0.03024 0.03 0.06781 0.04248 0.09229 0.0058 0.012 0.01318 0.03147 0.01318 0.04395 0.01296 0.03696 0.02844 0.07303 0.03516 0.11719 0 0.012 0.0073 0.02465 0.0073 0.03809 0.0068 0.03648 0.0249 0.07925 0.0249 0.11572 0 0.01296 0.0059 0.03101 0.0059 0.04541 0.0068 0.03456 0.0064 0.07242 0.01172 0.10986 0 0.02448 6.15e-4 0.03838 0.0073 0.05566v0.17285c0 0.02496-5.48e-4 0.03694-0.0073 0.05566 0 0.03744-0.0041 0.07386-0.01025 0.10986 0 0.01248-0.0073 0.03099-0.0073 0.04395-0.0068 0.03696-0.01108 0.08023-0.03076 0.11719 0 0.01248-0.0073 0.02561-0.0073 0.03809-0.0068 0.03648-0.02366 0.0802-0.03662 0.11572-0.0058 0.01296-0.0059 0.0329-0.01025 0.04395-0.01296 0.03792-0.03051 0.06829-0.04395 0.09229-0.0068 0.02544-0.02462 0.04341-0.03662 0.06885-0.0067 0.012-0.013 0.03634-0.03076 0.04834 0 0.0068-7e-3 0.01172-0.01318 0.01172-0.02448 0.02976-0.0374 0.06975-0.0542 0.09375-0.0077 0.01248-0.01338 0.02366-0.0249 0.03662-0.13008 0.17808-0.29736 0.33309-0.49512 0.45117l-10.34 5.9692c-0.05616 0.03648-0.11775 0.06866-0.17871 0.08642-0.04992 0.02544-0.09277 0.03879-0.14942 0.05127-0.0048 0-0.0055-8.15e-4 -0.01172 0.0059-0.04416 0.01104-0.08775 0.0299-0.13623 0.03662-0.012 0-0.02508 0.0059-0.03516 0.0059-0.03744 0.0068-0.08025 0.01318-0.11865 0.01318-0.02352 0-0.03643 1.08e-4 -0.0542 0.0059-0.03744 0-0.06743 0.0073-0.09815 0.0073h-0.08203c-0.03072 0-0.05033 3.81e-4 -0.08057-0.0073-0.03072 0-0.05472-0.0059-0.08496-0.0059-0.0264 0-0.04487-0.0073-0.07031-0.0073-0.02976-0.0068-0.05426-0.01194-0.08642-0.0249-0.02352-0.0072-0.04252-0.01172-0.07324-0.01172-0.02448-0.0067-0.0502-0.01293-0.07324-0.02637-0.03168-0.0058-0.05618-0.02306-0.08642-0.0293-0.012-0.0062-0.03012-0.01194-0.0498-0.0249-0.03744-0.01152-0.07338-0.03684-0.10986-0.0498-0.0068 0-0.0079-0.0073-0.01318-0.0073-0.25296-0.13584-0.46992-0.33817-0.62256-0.60938-0.08736-0.1536-0.14945-0.32173-0.18017-0.48926v-0.0059c-0.0068-0.04992-0.01146-0.09226-0.0249-0.14795v-0.04394c0-0.03696-0.0059-0.07242-0.0059-0.10986v-11.963h0.0059v-0.0249c0-0.03648 6.16e-4 -0.0729 0.0073-0.10986v-0.04541c0.0067-0.04944 0.01096-0.0908 0.02344-0.14648v-0.0073c0.03744-0.16608 0.09231-0.32553 0.17871-0.48633 0.15456-0.26544 0.37154-0.46974 0.62402-0.61231 0.0068 0 0.0064-0.0059 0.01172-0.0059 0.03744-0.02544 0.07389-0.03538 0.11133-0.04834 0.01296-0.0058 0.03157-0.0129 0.0498-0.0249 0.03072-0.012 0.05618-0.025 0.08643-0.03076 0.02544-0.0068 0.05023-0.01245 0.07471-0.02637 0.02448-0.0068 0.04348-0.01172 0.07324-0.01172 0.03072-0.0072 0.05522-0.01144 0.08643-0.02344 0.02544-0.0067 0.0429-0.0073 0.06738-0.0073 0.03072-0.0062 0.05618-0.0059 0.08642-0.0059 0.03072 0 0.05083-6.15e-4 0.08204-0.0073zm26.508 12.441c-0.25968 0.21648-0.54224 0.41362-0.83932 0.58594l-9.9772 5.7466 7.5248-2.0318c0.61872-0.16704 1.1732-0.46256 1.6421-0.83933 0.02976-0.024 0.05676-0.05081 0.09229-0.08057 0.08064-0.06864 0.15498-0.12823 0.22266-0.20215 0.01296-0.01248 0.03051-0.03137 0.04395-0.03809 0.03744-0.03744 0.07389-0.08025 0.11133-0.11865 0.04224-0.04896 0.08474-0.08984 0.12891-0.14648 0.06768-0.07392 0.12306-0.1547 0.18018-0.23438 0.02352-0.03648 0.04828-0.0679 0.07324-0.09815 0.06768-0.09216 0.12255-0.17896 0.17871-0.27832 0.012-0.03072 0.03156-0.04985 0.0498-0.08056 0.04992-0.09216 0.09765-0.1974 0.15381-0.29004 0.01104-0.03648 0.03051-0.06838 0.04395-0.09814 0.03456-0.08688 0.0729-0.1804 0.10986-0.27832 0.0264-0.04944 0.03732-0.09861 0.0498-0.15381 0.02448-0.07392 0.04437-0.14775 0.06885-0.22119 0.02352-0.07392 0.03636-0.15596 0.0498-0.22412 0.01104-0.04896 0.02548-0.11071 0.03076-0.15967 0.012-0.09312 0.03096-0.1974 0.04248-0.29004 0.0067-0.03744 0.0073-0.07533 0.0073-0.11133 0.0058-0.11184 0.01172-0.2153 0.01172-0.32666v-0.03076zm-38.702 0.50537-1.8326 6.9126c-0.0077 0.024-0.0079 0.03694-0.01318 0.05566-0.02448 0.09216-0.04316 0.19116-0.0542 0.29004-0.0058 0.04272-0.01293 0.08765-0.02637 0.13037-0.02448 0.13008-0.03819 0.25906-0.04395 0.38818v0.03223c-0.03072 0.46272 0.01309 0.94365 0.14942 1.4121 0.20352 0.828 0.64954 1.5255 1.2232 2.0683 0.012 0.0058 0.02366 0.02452 0.03662 0.03076 0.08064 0.08112 0.16604 0.15488 0.25196 0.2168 0.03744 0.02976 0.07389 0.05475 0.11133 0.08642 0.06864 0.04992 0.13593 0.09128 0.20361 0.14648 0.012 0.0072 0.02513 0.01391 0.03809 0.02783v-0.0088c-0.0068-0.04896-7e-3 -0.10927-0.01318-0.15967v-0.02344c-0.0058-0.1176-0.01242-0.24148-0.0249-0.3706 0-0.03744-0.0059-0.07459-0.0059-0.12452v-11.11z" fill="#fff" stroke-width=".75"/></svg>
