<?xml version="1.0" encoding="UTF-8" standalone="no"?>
<!-- Created with Inkscape (http://www.inkscape.org/) -->

<svg
   width="432"
   height="432"
   viewBox="0 0 432 432"
   version="1.1"
   id="svg5"
   inkscape:version="1.1.1 (3bf5ae0d25, 2021-09-20)"
   sodipodi:docname="adaptive_fg.svg"
   inkscape:export-filename="/home/nathan/workspace/personal/open-player/App/Branding/adaptive_fg.png"
   inkscape:export-xdpi="96"
   inkscape:export-ydpi="96"
   xmlns:inkscape="http://www.inkscape.org/namespaces/inkscape"
   xmlns:sodipodi="http://sodipodi.sourceforge.net/DTD/sodipodi-0.dtd"
   xmlns="http://www.w3.org/2000/svg"
   xmlns:svg="http://www.w3.org/2000/svg">
  <sodipodi:namedview
     id="namedview7"
     pagecolor="#505050"
     bordercolor="#ffffff"
     borderopacity="1"
     inkscape:pageshadow="0"
     inkscape:pageopacity="0"
     inkscape:pagecheckerboard="true"
     inkscape:document-units="px"
     showgrid="false"
     units="px"
     width="432px"
     inkscape:zoom="1.0494603"
     inkscape:cx="192.47989"
     inkscape:cy="161.51159"
     inkscape:window-width="1920"
     inkscape:window-height="1024"
     inkscape:window-x="1920"
     inkscape:window-y="0"
     inkscape:window-maximized="1"
     inkscape:current-layer="layer1"
     inkscape:snap-page="true" />
  <defs
     id="defs2" />
  <g
     inkscape:label="Layer 1"
     inkscape:groupmode="layer"
     id="layer1">
    <path
       id="path823"
       style="fill:#ffffff;stroke:none;stroke-width:3.5;stroke-miterlimit:4;stroke-dasharray:none;stroke-opacity:1"
       d="m 191.76965,113.73436 c -0.34511,0 -0.6327,0.028 -0.98438,0.028 -0.37184,0.028 -0.76976,0.0511 -1.1416,0.1092 -0.20615,0.028 -0.43652,0.0648 -0.6426,0.1232 -0.51519,0.056 -1.00247,0.17115 -1.52439,0.3143 -0.056,0 -0.14454,0.0315 -0.1981,0.0546 -2.04736,0.52192 -4.00305,1.29895 -5.8242,2.36523 h 0.028 l 0.1092,0.1092 c 1.18499,0.51968 2.25687,1.01258 3.24026,1.59275 l 49.0889,28.36917 -27.08398,-26.98828 c -0.60707,-0.60928 -1.23781,-1.15112 -1.92776,-1.70216 0,0 -0.035,-4.5e-4 -0.035,-0.028 -0.54209,-0.4032 -1.03772,-0.77896 -1.62012,-1.15528 -0.0515,-0.0315 -0.13265,-0.0511 -0.16415,-0.1092 -0.5152,-0.3136 -1.03204,-0.61113 -1.55172,-0.90233 -0.14351,-0.056 -0.31886,-0.14 -0.43068,-0.1981 -0.46368,-0.2037 -0.92852,-0.42686 -1.38772,-0.60158 -0.2331,-0.11655 -0.46462,-0.1743 -0.71774,-0.2324 -0.41219,-0.1456 -0.8023,-0.2576 -1.20999,-0.40334 -0.056,-0.0315 -0.17184,-0.0616 -0.2324,-0.0616 -0.22855,-0.0605 -0.45745,-0.10744 -0.69041,-0.12984 -0.3451,-0.0627 -0.69576,-0.1827 -1.00488,-0.21175 -0.37632,-0.0581 -0.74925,-0.1127 -1.12109,-0.1708 -0.3248,-0.028 -0.57743,-0.0536 -0.89551,-0.1162 -0.36722,-0.028 -0.78116,-0.0245 -1.16196,-0.0546 z m -21.55374,9.16016 c -0.224,0 -0.4578,0.021 -0.71092,0.021 -0.3451,0 -0.71873,0.035 -1.03908,0.0616 -0.37184,0.0315 -0.74925,0.0585 -1.12109,0.1435 -0.32025,0.028 -0.58425,0.0539 -0.90233,0.1435 -0.37184,0.0514 -0.7469,0.1743 -1.11426,0.2324 -0.32025,0.056 -0.61103,0.13825 -0.89551,0.22575 -0.3157,0.11865 -0.63434,0.2072 -0.95018,0.3213 -0.37632,0.1435 -0.75565,0.25795 -1.10061,0.41017 -0.19705,0.0515 -0.39546,0.15855 -0.60155,0.24605 -0.4592,0.2016 -0.94902,0.43519 -1.40822,0.69727 -0.056,0.0315 -0.14455,0.0532 -0.2121,0.1092 -3.25024,1.76288 -6.09956,4.41136 -8.05955,7.84084 -1.15585,1.98688 -1.90793,4.09727 -2.34473,6.22751 0,0.028 0.002,0.0563 -0.021,0.1435 -0.1477,0.60704 -0.2037,1.21356 -0.2597,1.81836 -0.028,0.1995 -0.028,0.39539 -0.028,0.59475 -0.0315,0.46368 -0.0616,0.92624 -0.0616,1.38768 v 0.2597 153.60352 0.2597 c 0,0.45472 0.0315,0.9239 0.0616,1.38086 0,0.20615 0.028,0.39994 0.028,0.60154 0.056,0.60484 0.17256,1.21356 0.2597,1.81839 0,0.028 -0.002,0.0609 0.021,0.1505 0.4368,2.128 1.18888,4.22919 2.34473,6.21387 1.95999,3.42496 4.80707,6.04866 8.05955,7.83398 0.0651,0.0315 0.15365,0.0557 0.2121,0.1162 0.4592,0.23065 0.94903,0.45745 1.40822,0.69041 0.20615,0.11865 0.40443,0.18165 0.60155,0.2667 0.37632,0.13895 0.72429,0.2576 1.10061,0.40334 0.3157,0.112 0.60522,0.20475 0.95018,0.3143 0.3157,0.0514 0.57743,0.1743 0.89551,0.2324 0.36736,0.11655 0.74242,0.1673 1.11426,0.2254 0.2576,0.0606 0.58425,0.12355 0.90233,0.1435 0.37184,0.0581 0.74925,0.1211 1.12109,0.1435 0.3451,0.028 0.69412,0.035 1.03908,0.0616 0.22855,0 0.4578,0.028 0.71092,0.028 h 0.2667 c 0.42784,0 0.82596,-0.028 1.28516,-0.0546 0.2331,-0.028 0.52346,-0.0315 0.75198,-0.0546 0.52416,-0.2352 1.00929,-0.32095 1.53125,-0.43068 0.17465,-0.028 0.3192,-0.0315 0.45801,-0.0616 0.57344,-0.1435 1.15825,-0.26495 1.72949,-0.4375 0.0606,-0.0245 0.13545,-0.0175 0.1981,-0.048 0.60704,-0.1995 1.2391,-0.42833 1.87302,-0.69041 h 0.035 c 0.77952,-0.3472 1.5532,-0.70021 2.29688,-1.13477 l 133.04774,-76.7949 c 2.61635,-1.49856 4.74743,-3.48505 6.39159,-5.79001 0.1141,-0.13895 0.2002,-0.32585 0.3143,-0.46487 0.2667,-0.37856 0.55532,-0.7748 0.77931,-1.17576 0.0315,-0.056 0.11656,-0.1428 0.13685,-0.2324 0.15225,-0.20615 0.23905,-0.4306 0.3486,-0.69044 0.14351,-0.26215 0.31605,-0.55363 0.40331,-0.81347 0.20615,-0.40544 0.37215,-0.82726 0.54687,-1.23046 0.056,-0.1771 0.14665,-0.34755 0.2051,-0.55374 0.1701,-0.4592 0.34615,-0.97233 0.46487,-1.46289 0.028,-0.1435 0.0581,-0.26005 0.1162,-0.41013 0.1435,-0.51296 0.22295,-0.97517 0.33495,-1.49709 0.0315,-0.1701 0.0672,-0.3423 0.12985,-0.51268 0.0514,-0.43456 0.1372,-0.92344 0.16415,-1.35352 0.0315,-0.2597 0.035,-0.52182 0.0546,-0.78614 0.0357,-0.3696 0.035,-0.71284 0.035,-1.08692 0,-0.37856 -7e-4,-0.71978 -0.035,-1.10058 0,-0.2555 -0.0175,-0.51261 -0.048,-0.77245 -0.028,-0.43456 -0.11935,-0.9212 -0.1708,-1.35352 -0.0315,-0.17465 -0.0602,-0.3423 -0.1232,-0.51271 -0.1141,-0.52864 -0.19845,-1.02018 -0.34195,-1.51074 -0.0315,-0.1456 -0.0539,-0.25795 -0.13685,-0.42382 -0.15225,-0.5264 -0.3304,-0.98378 -0.47169,-1.47658 -0.0514,-0.168 -0.14455,-0.3409 -0.1981,-0.54687 -0.1701,-0.40544 -0.3409,-0.83867 -0.54688,-1.24411 -0.1477,-0.2555 -0.2513,-0.54044 -0.43067,-0.82716 -0.11865,-0.2037 -0.19845,-0.43743 -0.34195,-0.69727 -0.0315,-0.056 -0.1169,-0.14035 -0.1505,-0.2254 -0.224,-0.40544 -0.51485,-0.81315 -0.77245,-1.18947 -0.11865,-0.14105 -0.20265,-0.31465 -0.3213,-0.45798 -1.66656,-2.30723 -3.80226,-4.26685 -6.39842,-5.79005 L 180.64084,125.59565 c -0.74368,-0.42784 -1.5196,-0.80077 -2.29688,-1.12109 h -0.035 c -0.60498,-0.2576 -1.20774,-0.46196 -1.87306,-0.69044 -0.0606,-0.028 -0.13545,-0.0245 -0.1981,-0.0546 -0.57344,-0.17255 -1.15829,-0.35014 -1.72949,-0.4375 -0.1701,-0.028 -0.31465,-0.0546 -0.45801,-0.0546 -0.51968,-0.112 -1.00485,-0.16975 -1.53125,-0.2324 -0.22855,-0.0315 -0.51898,-0.028 -0.75194,-0.0546 -0.42784,-0.0315 -0.83044,-0.0546 -1.28517,-0.0546 z m 27.80862,62.07716 h 0.2597 0.1092 c 0.1701,0 0.32165,0.003 0.46483,0.035 0.11865,0 0.168,-0.002 0.2597,0.028 0.1701,0.0315 0.37216,0.028 0.54688,0.0546 0.056,0 0.1127,0.035 0.16415,0.035 0.20615,0.0245 0.40737,0.1127 0.64256,0.1778 0.021,0 0.0245,-0.002 0.0479,0.021 0.2352,0.056 0.43743,0.1764 0.69727,0.2324 0.2576,0.1435 0.57428,0.2331 0.84084,0.41013 l 48.25489,27.84925 c 0.94528,0.54432 1.72567,1.23624 2.29687,2.09864 0.0315,0.056 0.0536,0.1218 0.1162,0.1778 0.1141,0.13895 0.2037,0.2583 0.2597,0.43068 0.0315,0.028 0.0315,0.0546 0.0546,0.0546 0.0315,0.056 0.0563,0.18095 0.1435,0.2324 0.0515,0.11655 0.11725,0.1981 0.1778,0.3143 0.0515,0.14105 0.14,0.3164 0.1981,0.43064 0.028,0.056 0.0616,0.147 0.0616,0.2051 0.0606,0.17255 0.13265,0.3409 0.16415,0.54687 0,0.056 0.035,0.11515 0.035,0.1778 0.0315,0.1701 0.1162,0.36981 0.1162,0.54005 0,0.0606 0.028,0.14455 0.028,0.21175 0.0315,0.16135 0.0315,0.3381 0.0546,0.51268 0,0.1141 0.003,0.1792 0.035,0.2597 v 0.40338 0.4033 c 0,0.11655 -0.003,0.17255 -0.035,0.2597 0,0.17465 -0.0175,0.34475 -0.048,0.51268 0,0.0581 -0.035,0.14455 -0.035,0.2051 -0.0315,0.17255 -0.0518,0.3744 -0.1435,0.54688 0,0.0581 -0.035,0.11935 -0.035,0.1778 -0.0315,0.1701 -0.1106,0.37429 -0.1708,0.54005 -0.028,0.0606 -0.028,0.15365 -0.0479,0.2051 -0.0606,0.1771 -0.14245,0.3185 -0.2051,0.43067 -0.0315,0.11865 -0.1148,0.20265 -0.1708,0.3213 -0.0315,0.056 -0.0606,0.16975 -0.1435,0.22575 0,0.0315 -0.0315,0.0546 -0.0616,0.0546 -0.1141,0.13895 -0.17465,0.3255 -0.25305,0.4375 -0.0357,0.0581 -0.0623,0.1106 -0.1162,0.1708 -0.60704,0.83104 -1.38768,1.55442 -2.31056,2.10546 l -48.25488,27.85643 c -0.26215,0.1701 -0.5495,0.32025 -0.83398,0.40334 -0.2331,0.11865 -0.43295,0.18095 -0.69727,0.2394 -0.021,0 -0.0245,-0.004 -0.0546,0.028 -0.20615,0.0514 -0.4095,0.13965 -0.63574,0.1708 -0.056,0 -0.11725,0.028 -0.16415,0.028 -0.17465,0.0315 -0.3745,0.0616 -0.5537,0.0616 -0.1099,0 -0.1701,4.9e-4 -0.25305,0.028 -0.17465,0 -0.31465,0.035 -0.45801,0.035 h -0.12285 -0.2597 c -0.1435,0 -0.23485,0.002 -0.37597,-0.035 -0.1435,0 -0.2555,-0.028 -0.39648,-0.028 -0.1232,0 -0.2093,-0.035 -0.32795,-0.035 -0.13895,-0.0315 -0.25305,-0.0557 -0.40334,-0.1162 -0.1099,-0.035 -0.19845,-0.0546 -0.34195,-0.0546 -0.1141,-0.0315 -0.23415,-0.0602 -0.34195,-0.1232 -0.1477,-0.028 -0.26215,-0.10745 -0.40331,-0.13685 -0.056,-0.028 -0.1407,-0.0556 -0.2324,-0.1162 -0.17465,-0.0539 -0.3423,-0.17185 -0.51271,-0.2324 -0.0315,0 -0.0367,-0.035 -0.0616,-0.035 -1.18048,-0.63392 -2.19293,-1.57815 -2.90525,-2.84375 -0.40768,-0.7168 -0.69748,-1.50143 -0.84084,-2.28322 v -0.028 c -0.0315,-0.2331 -0.0536,-0.43061 -0.1162,-0.69045 v -0.2051 c 0,-0.17255 -0.028,-0.3381 -0.028,-0.51271 v -0.1162 -55.7129 h 0.028 v -0.1162 c 0,-0.1701 0.003,-0.3402 0.035,-0.51268 v -0.2121 c 0.0315,-0.23065 0.0511,-0.42374 0.1092,-0.68358 v -0.035 c 0.17465,-0.77504 0.43078,-1.51914 0.83398,-2.26954 0.72132,-1.23872 1.73387,-2.19212 2.91214,-2.85744 0.0315,0 0.0315,-0.028 0.0546,-0.028 0.17465,-0.11865 0.34475,-0.1652 0.51951,-0.2254 0.0606,-0.028 0.14735,-0.0602 0.2324,-0.1162 0.1435,-0.056 0.26215,-0.11655 0.40334,-0.1435 0.11865,-0.0315 0.2345,-0.0581 0.3486,-0.1232 0.1141,-0.0315 0.203,-0.0546 0.34195,-0.0546 0.1435,-0.035 0.2576,-0.0536 0.4033,-0.1092 0.11865,-0.0315 0.2002,-0.035 0.3143,-0.035 0.1435,-0.028 0.26215,-0.028 0.40334,-0.028 0.1435,0 0.2373,-0.003 0.3828,-0.035 z m 123.70312,58.05761 c -1.21187,1.01024 -2.53043,1.93018 -3.91699,2.73438 l -46.55959,26.81738 35.11624,-9.48146 c 2.88736,-0.77952 5.47456,-2.15859 7.66307,-3.91699 0.13896,-0.112 0.26496,-0.23695 0.43068,-0.37597 0.37632,-0.32025 0.72321,-0.5984 1.03904,-0.94336 0.0606,-0.0581 0.14246,-0.1463 0.2051,-0.1778 0.17465,-0.17465 0.34475,-0.37453 0.51955,-0.55373 0.19704,-0.22855 0.39546,-0.41927 0.60154,-0.68359 0.3157,-0.3451 0.57428,-0.72191 0.84084,-1.09375 0.1099,-0.1701 0.2254,-0.31675 0.34195,-0.45801 0.3157,-0.43008 0.5719,-0.83513 0.83398,-1.29881 0.056,-0.1435 0.14735,-0.23275 0.2324,-0.37597 0.2331,-0.43008 0.4557,-0.9212 0.71778,-1.35352 0.0514,-0.1701 0.14245,-0.3192 0.2051,-0.45801 0.16135,-0.40544 0.3402,-0.84186 0.51268,-1.29882 0.1232,-0.23065 0.1743,-0.46018 0.2324,-0.71778 0.1141,-0.3451 0.2072,-0.6895 0.3213,-1.03222 0.1099,-0.3451 0.16975,-0.72782 0.2324,-1.0459 0.0514,-0.22855 0.119,-0.51664 0.1435,-0.74512 0.056,-0.43456 0.14455,-0.9212 0.1981,-1.35352 0.0315,-0.17465 0.035,-0.35154 0.035,-0.51954 0.028,-0.52192 0.0546,-1.00474 0.0546,-1.52442 z m -180.60549,2.35837 -8.55173,32.2588 c -0.0357,0.112 -0.0367,0.17255 -0.0616,0.2597 -0.1141,0.43008 -0.2016,0.89208 -0.25305,1.35352 -0.028,0.1995 -0.0602,0.40905 -0.1232,0.60841 -0.1141,0.60704 -0.17815,1.20893 -0.2051,1.81153 v 0.1505 c -0.1435,2.15936 0.0613,4.40356 0.69727,6.58984 0.94976,3.864 3.03118,7.11889 5.70801,9.65233 0.056,0.028 0.1106,0.11445 0.1708,0.1435 0.37632,0.37856 0.7748,0.72275 1.17576,1.01171 0.17465,0.13895 0.34475,0.2555 0.51954,0.40334 0.32025,0.2331 0.63437,0.42599 0.95021,0.68359 0.056,0.035 0.11725,0.0651 0.1778,0.12985 v -0.041 c -0.0315,-0.22855 -0.0315,-0.50992 -0.0616,-0.74512 v -0.1092 c -0.028,-0.5488 -0.0581,-1.12693 -0.1162,-1.72949 0,-0.17465 -0.028,-0.34825 -0.028,-0.58107 z" />
  </g>
</svg>
