<?xml version="1.0" encoding="UTF-8"?>
<svg id="Layer_1" width="56" height="56" version="1.1" viewBox="0 0 56 56" xml:space="preserve" xmlns="http://www.w3.org/2000/svg" xmlns:cc="http://creativecommons.org/ns#" xmlns:dc="http://purl.org/dc/elements/1.1/" xmlns:rdf="http://www.w3.org/1999/02/22-rdf-syntax-ns#"><metadata id="metadata45"><rdf:RDF><cc:Work rdf:about=""><dc:format>image/svg+xml</dc:format><dc:type rdf:resource="http://purl.org/dc/dcmitype/StillImage"/></cc:Work></rdf:RDF></metadata>
<path id="path2" d="m28.001 2c-6.9443 0-13.475 2.705-18.385 7.6156-4.9106 4.9108-7.6156 11.439-7.6156 18.383 0 6.9441 2.705 13.475 7.6156 18.385 4.9108 4.9106 11.44 7.6156 18.385 7.6156 6.945 0 13.473-2.705 18.383-7.6156 4.9106-4.9108 7.6156-11.44 7.6156-18.385 0-6.945-2.705-13.473-7.6156-18.383-4.9108-4.9106-11.439-7.6156-18.383-7.6156zm0 3.2156c12.563 0 22.783 10.22 22.783 22.783 0 12.563-10.22 22.783-22.783 22.783-12.562 0-22.785-10.22-22.785-22.783 0-12.563 10.222-22.783 22.785-22.783zm-7.5068 11.794v21.98h5.8981v-21.98zm9.1137 0v21.98h5.8981v-21.98z" fill="#fff" stroke-width=".12508"/>















</svg>
