<?xml version="1.0" encoding="UTF-8"?>
<svg id="Capa_1" width="32" height="32" version="1.1" viewBox="0 0 32 32" xml:space="preserve" xmlns="http://www.w3.org/2000/svg" xmlns:cc="http://creativecommons.org/ns#" xmlns:dc="http://purl.org/dc/elements/1.1/" xmlns:rdf="http://www.w3.org/1999/02/22-rdf-syntax-ns#"><metadata id="metadata39"><rdf:RDF><cc:Work rdf:about=""><dc:format>image/svg+xml</dc:format><dc:type rdf:resource="http://purl.org/dc/dcmitype/StillImage"/></cc:Work></rdf:RDF></metadata>
<path id="path2" d="m16 2c-7.7195 0-14 6.2805-14 14s6.2805 14 14 14 14-6.2805 14-14-6.2805-14-14-14zm4.667 6.533h3.2666v14.934h-3.2666zm-11.64 9.92e-4c0.0833 0.0048 0.16567 0.03155 0.2373 0.08008l10.266 7c0.12694 0.0868 0.20312 0.23128 0.20312 0.38574s-0.0767 0.29894-0.2041 0.38574l-10.266 7c-0.07886 0.05367-0.17076 0.08105-0.2627 0.08105-0.07466 0-0.14964-0.01829-0.21778-0.05469-0.15306-0.08074-0.24902-0.23898-0.24902-0.41211v-14c0-0.17314 0.09596-0.33138 0.24902-0.41211 0.0763-0.0406 0.16084-0.0585 0.24414-0.05371z" fill="#fff" stroke-width=".5"/>















</svg>
