<?xml version="1.0" encoding="UTF-8" standalone="no"?>
<svg
   version="1.1"
   id="Layer_1"
   x="0px"
   y="0px"
   viewBox="0 0 64 64"
   xml:space="preserve"
   sodipodi:docname="control_play.svg"
   inkscape:version="1.1 (c4e8f9ed74, 2021-05-24)"
   width="64"
   height="64"
   xmlns:inkscape="http://www.inkscape.org/namespaces/inkscape"
   xmlns:sodipodi="http://sodipodi.sourceforge.net/DTD/sodipodi-0.dtd"
   xmlns="http://www.w3.org/2000/svg"
   xmlns:svg="http://www.w3.org/2000/svg"
   xmlns:rdf="http://www.w3.org/1999/02/22-rdf-syntax-ns#"
   xmlns:cc="http://creativecommons.org/ns#"
   xmlns:dc="http://purl.org/dc/elements/1.1/"><metadata
   id="metadata43"><rdf:RDF><cc:Work
       rdf:about=""><dc:format>image/svg+xml</dc:format><dc:type
         rdf:resource="http://purl.org/dc/dcmitype/StillImage" /></cc:Work></rdf:RDF></metadata><defs
   id="defs41" /><sodipodi:namedview
   pagecolor="#ffffff"
   bordercolor="#666666"
   borderopacity="1"
   objecttolerance="10"
   gridtolerance="10"
   guidetolerance="10"
   inkscape:pageopacity="0"
   inkscape:pageshadow="2"
   inkscape:window-width="1920"
   inkscape:window-height="1056"
   id="namedview39"
   showgrid="false"
   inkscape:pagecheckerboard="true"
   inkscape:zoom="1.7463918"
   inkscape:cx="242.7863"
   inkscape:cy="242.49999"
   inkscape:window-x="0"
   inkscape:window-y="0"
   inkscape:window-maximized="1"
   inkscape:current-layer="Layer_1"
   inkscape:document-rotation="0" />
<g
   id="g6"
   style="fill:#ffffff;fill-opacity:1"
   transform="matrix(0.11546392,0,0,0.11546392,3.9999994,3.9999994)">
	<path
   d="M 413.974,71.026 C 368.171,25.225 307.274,0 242.5,0 177.726,0 116.829,25.225 71.026,71.026 25.225,116.829 0,177.726 0,242.5 0,307.274 25.225,368.171 71.026,413.974 116.829,459.775 177.726,485 242.5,485 307.274,485 368.171,459.775 413.974,413.974 459.775,368.171 485,307.274 485,242.5 485,177.726 459.775,116.829 413.974,71.026 Z M 242.5,455 C 125.327,455 30,359.673 30,242.5 30,125.327 125.327,30 242.5,30 359.673,30 455,125.327 455,242.5 455,359.673 359.673,455 242.5,455 Z"
   id="path2"
   style="fill:#ffffff;fill-opacity:1" />
	<polygon
   points="181.062,336.575 343.938,242.5 181.062,148.425 "
   id="polygon4"
   style="fill:#ffffff;fill-opacity:1" />
</g>
<g
   id="g8">
</g>
<g
   id="g10">
</g>
<g
   id="g12">
</g>
<g
   id="g14">
</g>
<g
   id="g16">
</g>
<g
   id="g18">
</g>
<g
   id="g20">
</g>
<g
   id="g22">
</g>
<g
   id="g24">
</g>
<g
   id="g26">
</g>
<g
   id="g28">
</g>
<g
   id="g30">
</g>
<g
   id="g32">
</g>
<g
   id="g34">
</g>
<g
   id="g36">
</g>
</svg>
