<?xml version="1.0" encoding="UTF-8"?>
<svg id="Layer_1" width="64" height="64" version="1.1" viewBox="0 0 64 64" xml:space="preserve" xmlns="http://www.w3.org/2000/svg" xmlns:cc="http://creativecommons.org/ns#" xmlns:dc="http://purl.org/dc/elements/1.1/" xmlns:rdf="http://www.w3.org/1999/02/22-rdf-syntax-ns#"><metadata id="metadata43"><rdf:RDF><cc:Work rdf:about=""><dc:format>image/svg+xml</dc:format><dc:type rdf:resource="http://purl.org/dc/dcmitype/StillImage"/></cc:Work></rdf:RDF></metadata>
<path id="path2" d="m32 4c-7.4783 0-14.511 2.913-19.799 8.2012-5.2882 5.2884-8.2012 12.319-8.2012 19.797s2.913 14.511 8.2012 19.799c5.2884 5.2882 12.32 8.2012 19.799 8.2012s14.509-2.913 19.797-8.2012c5.2882-5.2884 8.2012-12.32 8.2012-19.799s-2.913-14.509-8.2012-19.797c-5.2884-5.2882-12.319-8.2012-19.797-8.2012zm0 3.4629c13.529 0 24.535 11.006 24.535 24.535 0 13.529-11.006 24.535-24.535 24.535-13.528 0-24.537-11.006-24.537-24.535 0-13.529 11.008-24.535 24.537-24.535zm-7.0957 13.674v21.725l18.807-10.861-18.807-10.863z" fill="#fff" stroke-width=".11546"/>















</svg>
