<?xml version="1.0" encoding="UTF-8"?>
<svg id="Capa_1" width="64" height="64" version="1.1" viewBox="0 0 64 64" xml:space="preserve" xmlns="http://www.w3.org/2000/svg" xmlns:cc="http://creativecommons.org/ns#" xmlns:dc="http://purl.org/dc/elements/1.1/" xmlns:rdf="http://www.w3.org/1999/02/22-rdf-syntax-ns#"><metadata id="metadata39"><rdf:RDF><cc:Work rdf:about=""><dc:format>image/svg+xml</dc:format><dc:type rdf:resource="http://purl.org/dc/dcmitype/StillImage"/></cc:Work></rdf:RDF></metadata>
<path id="path2" d="m32 4c-15.439 0-28 12.561-28 28s12.561 28 28 28 28-12.561 28-28-12.561-28-28-28zm9.334 13.066h6.5332v29.867h-6.5332v-29.867zm-23.281 0.001953c0.1666 0.009567 0.33134 0.063092 0.47461 0.16016l20.533 14c0.25387 0.1736 0.40625 0.46255 0.40625 0.77148s-0.1534 0.59788-0.4082 0.77148l-20.533 14c-0.15773 0.10733-0.34152 0.16211-0.52539 0.16211-0.14933 0-0.29928-0.036575-0.43555-0.10938-0.30613-0.16147-0.49805-0.47795-0.49805-0.82422v-28c0-0.34627 0.19191-0.66275 0.49805-0.82422 0.1526-0.0812 0.32168-0.11699 0.48828-0.10742z" fill="#fff"/>















</svg>
