<?xml version="1.0" encoding="UTF-8" standalone="no"?>
<!-- Generator: Adobe Illustrator 19.0.0, SVG Export Plug-In . SVG Version: 6.00 Build 0)  -->

<svg
   version="1.1"
   id="Capa_1"
   x="0px"
   y="0px"
   viewBox="0 0 63.999998 63.999998"
   xml:space="preserve"
   sodipodi:docname="menu_search.svg"
   width="64"
   height="64"
   inkscape:version="1.1 (c4e8f9ed74, 2021-05-24)"
   xmlns:inkscape="http://www.inkscape.org/namespaces/inkscape"
   xmlns:sodipodi="http://sodipodi.sourceforge.net/DTD/sodipodi-0.dtd"
   xmlns="http://www.w3.org/2000/svg"
   xmlns:svg="http://www.w3.org/2000/svg"><defs
   id="defs41" /><sodipodi:namedview
   id="namedview39"
   pagecolor="#505050"
   bordercolor="#ffffff"
   borderopacity="1"
   inkscape:pageshadow="0"
   inkscape:pageopacity="0"
   inkscape:pagecheckerboard="1"
   showgrid="false"
   inkscape:zoom="3.4142842"
   inkscape:cx="108.07536"
   inkscape:cy="91.234351"
   inkscape:window-width="1920"
   inkscape:window-height="1024"
   inkscape:window-x="1920"
   inkscape:window-y="0"
   inkscape:window-maximized="1"
   inkscape:current-layer="Capa_1" />
<g
   id="g6"
   transform="matrix(0.11476586,0,0,0.11476586,3.9999993,3.9999993)"
   style="fill:#ffffff">
	<g
   id="g4"
   style="fill:#ffffff">
		<path
   d="M 481.8,453 341.8,312.9 C 369.4,279.8 386,237.5 386,191.3 386,85.9 299.5,0.2 193.1,0.2 86.7,0.2 0,86 0,191.4 c 0,105.4 86.5,191.1 192.9,191.1 45.2,0 86.8,-15.5 119.8,-41.4 l 140.5,140.5 c 8.2,8.2 20.4,8.2 28.6,0 8.2,-8.2 8.2,-20.4 0,-28.6 z M 41,191.4 c 0,-82.8 68.2,-150.1 151.9,-150.1 83.7,0 151.9,67.3 151.9,150.1 0,82.8 -68.2,150.1 -151.9,150.1 C 109.2,341.5 41,274.1 41,191.4 Z"
   id="path2"
   style="fill:#ffffff" />
	</g>
</g>
<g
   id="g8">
</g>
<g
   id="g10">
</g>
<g
   id="g12">
</g>
<g
   id="g14">
</g>
<g
   id="g16">
</g>
<g
   id="g18">
</g>
<g
   id="g20">
</g>
<g
   id="g22">
</g>
<g
   id="g24">
</g>
<g
   id="g26">
</g>
<g
   id="g28">
</g>
<g
   id="g30">
</g>
<g
   id="g32">
</g>
<g
   id="g34">
</g>
<g
   id="g36">
</g>
</svg>
