<?xml version="1.0" encoding="UTF-8"?>
<!-- Generator: Adobe Illustrator 19.0.0, SVG Export Plug-In . SVG Version: 6.00 Build 0)  -->
<svg id="Capa_1" width="32" height="32" version="1.1" viewBox="0 0 32 32" xml:space="preserve" xmlns="http://www.w3.org/2000/svg">
<path id="path2" d="m13.497 4.0102c-5.2334 0-9.4975 4.2197-9.4975 9.4036 0 5.1839 4.2542 9.3998 9.4876 9.3998 2.2231 0 4.2695-0.76256 5.8925-2.0365l6.9103 6.9103c0.40331 0.40331 1.0037 0.40331 1.407 0 0.40331-0.40331 0.40331-1.0037 0-1.407l-6.8859-6.8902c1.3575-1.628 2.1737-3.709 2.1737-5.9812 0-5.1841-4.2542-9.3989-9.4876-9.3989zm-0.01004 2.0214c4.1167 0 7.4713 3.3099 7.4713 7.3826 0 4.0727-3.3544 7.3826-7.4713 7.3826-4.1169 0-7.4713-3.3149-7.4713-7.3826 0-4.0725 3.3544-7.3826 7.4713-7.3826z" fill="#fff" stroke-width=".049184"/>















</svg>
