<?xml version="1.0" encoding="UTF-8"?>
<!-- Generator: Adobe Illustrator 19.0.0, SVG Export Plug-In . SVG Version: 6.00 Build 0)  -->
<svg id="Capa_1" width="64" height="64" version="1.1" viewBox="0 0 64 64" xml:space="preserve" xmlns="http://www.w3.org/2000/svg">
<path id="path2" d="m26.162 4.0234c-12.212 0-22.162 9.8466-22.162 21.943s9.9271 21.934 22.139 21.934c5.1876 0 9.9626-1.7794 13.75-4.752l16.125 16.125c0.94111 0.94111 2.3421 0.94111 3.2832 0 0.94111-0.94111 0.94111-2.3421 0-3.2832l-16.068-16.078c3.1677-3.7989 5.0723-8.6547 5.0723-13.957 0-12.097-9.9271-21.932-22.139-21.932zm-0.023437 4.7168c9.6062 0 17.434 7.7236 17.434 17.227s-7.8273 17.227-17.434 17.227-17.434-7.7351-17.434-17.227c0-9.503 7.8273-17.227 17.434-17.227z" fill="#fff" stroke-width=".11477"/>















</svg>
