<?xml version="1.0" encoding="UTF-8"?>
<!-- Generator: Adobe Illustrator 17.1.0, SVG Export Plug-In . SVG Version: 6.00 Build 0)  -->
<svg id="Capa_1" width="32" height="32" version="1.1" viewBox="0 0 32 32" xml:space="preserve" xmlns="http://www.w3.org/2000/svg">
<path id="path1207" d="m25.283 4.0001c-0.06273-7.115e-4 -0.1268 0.00223-0.19168 0.00753v-8.357e-4c-0.14832 0.01212-0.30218 0.040268-0.45956 0.085381l-10.38 3.175c-1.2591 0.36092-2.2768 1.6699-2.2768 2.9289v10.95s-0.75172-0.5058-2.4266-0.2687c-2.4633 0.34691-4.4572 2.2356-4.4572 4.2154 0 1.9809 1.9939 3.198 4.4572 2.8477 2.4586-0.3468 4.2648-2.1774 4.2648-4.1618v-9.3481c0-0.88068 1.0547-1.2539 1.0547-1.2539l9.1792-2.8795s1.0179-0.33751 1.0179 0.60266v7.5099s-0.93575-0.53795-2.6141-0.33817c-2.4598 0.30141-4.4533 2.1492-4.4533 4.13 0 1.9798 1.9935 3.234 4.4533 2.9372 2.4633-0.30131 4.4572-2.1486 4.4572-4.1284v-15.289c0-1.0328-0.68452-1.7104-1.6256-1.721z" fill="#fff" stroke-width=".42858"/>















</svg>
