<?xml version="1.0" encoding="UTF-8"?>
<!-- Generator: Adobe Illustrator 19.0.0, SVG Export Plug-In . SVG Version: 6.00 Build 0)  -->
<svg id="Layer_1" width="32" height="32" version="1.1" viewBox="0 0 32 32" xml:space="preserve" xmlns="http://www.w3.org/2000/svg">
<path id="path2" d="m14.017 4c-0.35074 0-0.63529 0.28456-0.63529 0.63529v3.3916c-0.40332 0.13274-0.79368 0.29486-1.1676 0.48465l-2.3989-2.3989c-0.24805-0.24805-0.65012-0.24805-0.89812 0l-2.8048 2.8048c-0.24805 0.248-0.24805 0.65012 0 0.89812l2.3997 2.3989c-0.18977 0.37389-0.35273 0.76347-0.48547 1.1668h-3.3916c-0.35079 0-0.63448 0.28456-0.63448 0.63529v3.9667c0 0.35074 0.28367 0.63529 0.63448 0.63529h3.3916c0.1328 0.40332 0.2957 0.79287 0.48547 1.1668l-2.3997 2.3989c-0.24805 0.248-0.24805 0.65012 0 0.89812l2.8048 2.8048c0.24805 0.248 0.65012 0.248 0.89812 0l2.3997-2.3989c0.37389 0.18977 0.76343 0.35189 1.1668 0.48465v3.3916c0 0.35074 0.2845 0.63529 0.63529 0.63529h3.9658c0.35074 0 0.63529-0.28456 0.63529-0.63529v-3.3916c0.40332-0.13274 0.79377-0.29486 1.1676-0.48465l2.3989 2.3989c0.24805 0.248 0.65012 0.248 0.89812 0l2.8048-2.8048c0.24805-0.24805 0.24805-0.65012 0-0.89812l-2.3997-2.3989c0.18977-0.37389 0.35268-0.76347 0.48547-1.1668h3.3916c0.35074 0 0.63529-0.28456 0.63529-0.63529v-3.9667c-1.57e-4 -0.35079-0.2845-0.63529-0.63529-0.63529h-3.3916c-0.1328-0.40332-0.2957-0.79291-0.48547-1.1668l2.3997-2.3989c0.24805-0.24805 0.24805-0.65097 0-0.89898l-2.8048-2.804c-0.24805-0.24805-0.65012-0.24805-0.89812 0l-2.3989 2.3989c-0.37389-0.18977-0.76433-0.35184-1.1676-0.48465v-3.3916c5.2e-5 -0.35079-0.2845-0.63529-0.63529-0.63529h-3.9658zm1.9829 8.8381c1.7463 0 3.1623 1.4151 3.1623 3.1614 0 1.7463-1.4159 3.1623-3.1623 3.1623-1.7463 0-3.1623-1.4159-3.1623-3.1623 0-1.7463 1.4159-3.1614 3.1623-3.1614z" fill="#fff" stroke-width=".052365"/>















</svg>
