<?xml version="1.0" encoding="UTF-8"?>
<!-- Generator: Adobe Illustrator 19.1.0, SVG Export Plug-In . SVG Version: 6.00 Build 0)  -->
<svg id="Capa_1" width="32" height="32" version="1.1" viewBox="0 0 32 32" xml:space="preserve" xmlns="http://www.w3.org/2000/svg">
<path id="path2" d="m15.974 4.5502c-0.16228-0.00309-0.32622 0.053083-0.45703 0.16909l-11.295 10.099c-0.27644 0.24682-0.29629 0.66695-0.054408 0.94338 0.13328 0.14809 0.31625 0.22182 0.4989 0.22182 0.15796 0 0.3153-0.05388 0.44366-0.16741l2.0341-1.8214v11.777c0 0.92311 0.75026 1.6783 1.6783 1.6783h3.5642c0.86881 0 1.5745-0.70574 1.5745-1.5745v-5.9876c0-0.13328 0.10863-0.24191 0.24191-0.24191h3.5985c0.13328 0 0.24191 0.10863 0.24191 0.24191v5.9876c0 0.86881 0.70574 1.5745 1.5745 1.5745h3.5642c0.9379 0 1.6783-0.92289 1.6783-2.1027v-11.29l2.0341 1.8214c0.12834 0.11353 0.28652 0.16825 0.44448 0.16825 0.18265 0 0.36477-0.07457 0.49805-0.22266 0.23694-0.27644 0.21207-0.69571-0.05943-0.94252l-11.294-10.1c-0.01974-0.019745-0.03977-0.034577-0.06445-0.049385-0.12341-0.11847-0.28388-0.18023-0.44615-0.18331zm-0.0084 1.5561 7.5579 6.7578v12.474c0 0.4788-0.2371 0.77011-0.34571 0.77011h-3.5642c-0.13328 0-0.24107-0.10863-0.24107-0.24191v-5.9773c0-0.86881-0.70655-1.5745-1.5754-1.5745h-3.5985c-0.86881 0-1.5745 0.70574-1.5745 1.5745v5.9876c0 0.13328-0.10863 0.24191-0.24191 0.24191h-3.5642c-0.18758 0-0.34571-0.15319-0.34571-0.34571v-12.973l7.4932-6.6931z" fill="#fff" stroke-width=".049363"/>















</svg>
