<?xml version="1.0" encoding="UTF-8" standalone="no"?>
<!-- Generator: Adobe Illustrator 17.1.0, SVG Export Plug-In . SVG Version: 6.00 Build 0)  -->

<svg
   version="1.1"
   id="Capa_1"
   x="0px"
   y="0px"
   viewBox="0 0 64 64"
   xml:space="preserve"
   sodipodi:docname="menu_music.svg"
   width="64"
   height="64"
   inkscape:version="1.1.1 (3bf5ae0d25, 2021-09-20)"
   xmlns:inkscape="http://www.inkscape.org/namespaces/inkscape"
   xmlns:sodipodi="http://sodipodi.sourceforge.net/DTD/sodipodi-0.dtd"
   xmlns="http://www.w3.org/2000/svg"
   xmlns:svg="http://www.w3.org/2000/svg"><defs
   id="defs37" /><sodipodi:namedview
   id="namedview35"
   pagecolor="#505050"
   bordercolor="#ffffff"
   borderopacity="1"
   inkscape:pageshadow="0"
   inkscape:pageopacity="0"
   inkscape:pagecheckerboard="1"
   showgrid="false"
   inkscape:zoom="8.736716"
   inkscape:cx="27.928114"
   inkscape:cy="32.792642"
   inkscape:window-width="1920"
   inkscape:window-height="1024"
   inkscape:window-x="1920"
   inkscape:window-y="0"
   inkscape:window-maximized="1"
   inkscape:current-layer="Capa_1" />
<path
   d="m 53.213202,4.0162592 c -0.346077,0.02828 -0.704598,0.09374 -1.071847,0.199005 L 27.921556,11.622405 c -2.937761,0.842136 -5.311576,3.897356 -5.311576,6.835117 V 44.00695 c 0,0 -1.755214,-1.179922 -5.663304,-0.626633 -5.747567,0.809436 -10.3996159,5.216033 -10.3996159,9.83546 0,4.622034 4.6520489,7.461935 10.3996159,6.644443 5.736668,-0.809198 9.952549,-5.080176 9.952549,-9.710503 V 28.336486 c 0,-2.054869 2.46118,-2.926759 2.46118,-2.926759 L 50.778403,18.6917 c 0,0 2.37371,-0.78727 2.37371,1.406455 v 17.52352 c 0,0 -2.183116,-1.256556 -6.099262,-0.790466 -5.739511,0.70328 -10.391287,5.014887 -10.391287,9.636921 0,4.619427 4.651776,7.546473 10.391287,6.854092 5.747567,-0.703044 10.399615,-5.014252 10.399615,-9.633679 h 4.74e-4 V 8.0144032 c 0,-2.570542 -1.81718,-4.196091 -4.239726,-3.998144 z"
   id="path1207"
   style="fill:#ffffff;stroke-width:0.236954" />
<g
   id="g4">
</g>
<g
   id="g6">
</g>
<g
   id="g8">
</g>
<g
   id="g10">
</g>
<g
   id="g12">
</g>
<g
   id="g14">
</g>
<g
   id="g16">
</g>
<g
   id="g18">
</g>
<g
   id="g20">
</g>
<g
   id="g22">
</g>
<g
   id="g24">
</g>
<g
   id="g26">
</g>
<g
   id="g28">
</g>
<g
   id="g30">
</g>
<g
   id="g32">
</g>
</svg>
