<?xml version="1.0" encoding="UTF-8"?>
<!-- Generator: Adobe Illustrator 19.0.0, SVG Export Plug-In . SVG Version: 6.00 Build 0)  -->
<svg id="Layer_1" width="64" height="64" version="1.1" viewBox="0 0 64 64" xml:space="preserve" xmlns="http://www.w3.org/2000/svg">
<path id="path2" d="m27.373 4c-0.81843 0-1.4824 0.66399-1.4824 1.4824v7.9141c-0.94111 0.30975-1.852 0.68804-2.7246 1.1309l-5.5977-5.5977c-0.57881-0.57881-1.517-0.57881-2.0957 0l-6.5449 6.5449c-0.57881 0.57869-0.57881 1.517 0 2.0957l5.5996 5.5977c-0.44282 0.87244-0.82306 1.7815-1.1328 2.7227h-7.9141c-0.81855 0-1.4805 0.66399-1.4805 1.4824v9.2559c0 0.81843 0.66192 1.4824 1.4805 1.4824h7.9141c0.30987 0.94111 0.69 1.8501 1.1328 2.7227l-5.5996 5.5977c-0.57881 0.57869-0.57881 1.517 0 2.0957l6.5449 6.5449c0.57881 0.57869 1.517 0.57869 2.0957 0l5.5996-5.5977c0.87244 0.44282 1.7814 0.82111 2.7227 1.1309v7.9141c0 0.81843 0.66387 1.4824 1.4824 1.4824h9.2539c0.81843 0 1.4824-0.66399 1.4824-1.4824v-7.9141c0.94111-0.30975 1.8522-0.68804 2.7246-1.1309l5.5977 5.5977c0.57881 0.57869 1.517 0.57869 2.0957 0l6.5449-6.5449c0.57881-0.57881 0.57881-1.517 0-2.0957l-5.5996-5.5977c0.44282-0.87244 0.82294-1.7815 1.1328-2.7227h7.9141c0.81843 0 1.4824-0.66399 1.4824-1.4824v-9.2559c-3.66e-4 -0.81855-0.66387-1.4824-1.4824-1.4824h-7.9141c-0.30987-0.94111-0.69-1.8502-1.1328-2.7227l5.5996-5.5977c0.57881-0.57881 0.57881-1.519 0-2.0977l-6.5449-6.543c-0.57881-0.57881-1.517-0.57881-2.0957 0l-5.5977 5.5977c-0.87244-0.44282-1.7835-0.82099-2.7246-1.1309v-7.9141c1.22e-4 -0.81855-0.66387-1.4824-1.4824-1.4824h-9.2539zm4.627 20.623c4.0749 0 7.3789 3.302 7.3789 7.377 0 4.0749-3.304 7.3789-7.3789 7.3789-4.0749 0-7.3789-3.304-7.3789-7.3789 0-4.0749 3.304-7.377 7.3789-7.377z" fill="#fff" stroke-width=".12219"/>















</svg>
