<?xml version="1.0" encoding="UTF-8" standalone="no"?>
<!-- Generator: Adobe Illustrator 19.1.0, SVG Export Plug-In . SVG Version: 6.00 Build 0)  -->

<svg
   version="1.1"
   id="Capa_1"
   x="0px"
   y="0px"
   viewBox="0 0 63.999998 63.999998"
   xml:space="preserve"
   sodipodi:docname="menu_home.svg"
   width="64"
   height="64"
   inkscape:version="1.1 (c4e8f9ed74, 2021-05-24)"
   xmlns:inkscape="http://www.inkscape.org/namespaces/inkscape"
   xmlns:sodipodi="http://sodipodi.sourceforge.net/DTD/sodipodi-0.dtd"
   xmlns="http://www.w3.org/2000/svg"
   xmlns:svg="http://www.w3.org/2000/svg"><defs
   id="defs39" /><sodipodi:namedview
   id="namedview37"
   pagecolor="#505050"
   bordercolor="#ffffff"
   borderopacity="1"
   inkscape:pageshadow="0"
   inkscape:pageopacity="0"
   inkscape:pagecheckerboard="1"
   showgrid="false"
   inkscape:zoom="6.853203"
   inkscape:cx="18.531481"
   inkscape:cy="18.458522"
   inkscape:window-width="1920"
   inkscape:window-height="1024"
   inkscape:window-x="1920"
   inkscape:window-y="0"
   inkscape:window-maximized="1"
   inkscape:current-layer="Capa_1" />
<g
   id="g4"
   transform="matrix(0.1151798,0,0,0.1151798,3.9999519,3.9999615)"
   style="fill:#ffffff">
	<path
   d="m 481.708,220.456 -228.8,-204.6 c -0.4,-0.4 -0.8,-0.7 -1.3,-1 -5,-4.8 -13,-5 -18.3,-0.3 l -228.8,204.6 c -5.6,5 -6,13.5 -1.1,19.1 2.7,3 6.4,4.5 10.1,4.5 3.2,0 6.4,-1.1 9,-3.4 l 41.2,-36.9 v 7.2 106.8 124.6 c 0,18.7 15.2,34 34,34 0.3,0 0.5,0 0.8,0 0.3,0 0.5,0 0.8,0 h 70.6 c 17.6,0 31.9,-14.3 31.9,-31.9 v -121.3 c 0,-2.7 2.2,-4.9 4.9,-4.9 h 72.9 c 2.7,0 4.9,2.2 4.9,4.9 v 121.3 c 0,17.6 14.3,31.9 31.9,31.9 h 72.2 c 19,0 34,-18.7 34,-42.6 v -111.2 -34 -83.5 l 41.2,36.9 c 2.6,2.3 5.8,3.4 9,3.4 3.7,0 7.4,-1.5 10.1,-4.5 4.8,-5.6 4.3,-14.1 -1.2,-19.1 z m -86.2,66.7 v 34 111.1 c 0,9.7 -4.8,15.6 -7,15.6 h -72.2 c -2.7,0 -4.9,-2.2 -4.9,-4.9 v -121.1 c 0,-17.6 -14.3,-31.9 -31.9,-31.9 h -72.9 c -17.6,0 -31.9,14.3 -31.9,31.9 v 121.3 c 0,2.7 -2.2,4.9 -4.9,4.9 h -70.6 c -0.3,0 -0.5,0 -0.8,0 -0.3,0 -0.5,0 -0.8,0 -3.8,0 -7,-3.1 -7,-7 v -124.7 -106.8 -31.3 l 151.8,-135.6 153.1,136.9 z"
   id="path2"
   style="fill:#ffffff" />
</g>
<g
   id="g6">
</g>
<g
   id="g8">
</g>
<g
   id="g10">
</g>
<g
   id="g12">
</g>
<g
   id="g14">
</g>
<g
   id="g16">
</g>
<g
   id="g18">
</g>
<g
   id="g20">
</g>
<g
   id="g22">
</g>
<g
   id="g24">
</g>
<g
   id="g26">
</g>
<g
   id="g28">
</g>
<g
   id="g30">
</g>
<g
   id="g32">
</g>
<g
   id="g34">
</g>
</svg>
