<?xml version="1.0" encoding="UTF-8" standalone="no"?>
<!-- Generator: Adobe Illustrator 19.0.0, SVG Export Plug-In . SVG Version: 6.00 Build 0)  -->

<svg
   version="1.1"
   id="Layer_1"
   x="0px"
   y="0px"
   viewBox="0 0 64.000002 64.000002"
   xml:space="preserve"
   sodipodi:docname="menu_settings.svg"
   width="64"
   height="64"
   inkscape:version="1.1 (c4e8f9ed74, 2021-05-24)"
   xmlns:inkscape="http://www.inkscape.org/namespaces/inkscape"
   xmlns:sodipodi="http://sodipodi.sourceforge.net/DTD/sodipodi-0.dtd"
   xmlns="http://www.w3.org/2000/svg"
   xmlns:svg="http://www.w3.org/2000/svg"><defs
   id="defs41" /><sodipodi:namedview
   id="namedview39"
   pagecolor="#505050"
   bordercolor="#ffffff"
   borderopacity="1"
   inkscape:pageshadow="0"
   inkscape:pageopacity="0"
   inkscape:pagecheckerboard="1"
   showgrid="false"
   inkscape:zoom="7.2700775"
   inkscape:cx="33.149578"
   inkscape:cy="34.456304"
   inkscape:window-width="1920"
   inkscape:window-height="1024"
   inkscape:window-x="1920"
   inkscape:window-y="0"
   inkscape:window-maximized="1"
   inkscape:current-layer="Layer_1" />
<g
   id="g6"
   transform="matrix(0.12218617,0,0,0.12218617,4.0000006,3.9999395)"
   style="fill:#ffffff">
	<g
   id="g4"
   style="fill:#ffffff">
		<path
   d="m 446.185,179.159 h -64.768 c -2.536,-7.702 -5.636,-15.15 -9.26,-22.29 l 45.818,-45.818 c 4.737,-4.737 4.737,-12.416 0,-17.152 L 364.416,40.34 c -4.737,-4.737 -12.416,-4.737 -17.152,0 l -45.818,45.818 c -7.14,-3.624 -14.587,-6.724 -22.289,-9.26 V 12.131 C 279.158,5.432 273.728,0.002 267.029,0.002 h -75.743 c -6.698,0 -12.129,5.43 -12.129,12.128 v 64.768 c -7.702,2.535 -15.149,5.636 -22.29,9.26 L 111.05,40.341 c -4.737,-4.737 -12.416,-4.737 -17.152,0 L 40.339,93.9 c -4.737,4.736 -4.737,12.416 0,17.152 l 45.817,45.817 c -3.624,7.14 -6.725,14.588 -9.26,22.29 H 12.129 C 5.43,179.159 0,184.59 0,191.288 v 75.743 c 0,6.698 5.43,12.128 12.129,12.128 h 64.768 c 2.536,7.702 5.636,15.149 9.26,22.29 L 40.34,347.266 c -4.737,4.736 -4.737,12.416 0,17.152 l 53.559,53.559 c 4.737,4.736 12.416,4.736 17.152,0 l 45.817,-45.817 c 7.14,3.624 14.587,6.725 22.29,9.26 v 64.768 c 0,6.698 5.43,12.128 12.129,12.128 h 75.743 c 6.698,0 12.129,-5.43 12.129,-12.128 V 381.42 c 7.702,-2.535 15.149,-5.636 22.289,-9.26 l 45.818,45.817 c 4.737,4.736 12.416,4.736 17.152,0 l 53.559,-53.559 c 4.737,-4.737 4.737,-12.416 0,-17.152 L 372.16,301.449 c 3.624,-7.14 6.724,-14.587 9.26,-22.289 h 64.768 c 6.698,0 12.129,-5.43 12.129,-12.128 v -75.743 c -0.003,-6.699 -5.433,-12.13 -12.132,-12.13 z M 229.157,289.542 c -33.349,0 -60.384,-27.035 -60.384,-60.384 0,-33.349 27.035,-60.384 60.384,-60.384 33.349,0 60.384,27.035 60.384,60.384 0,33.349 -27.035,60.384 -60.384,60.384 z"
   id="path2"
   style="fill:#ffffff" />
	</g>
</g>
<g
   id="g8">
</g>
<g
   id="g10">
</g>
<g
   id="g12">
</g>
<g
   id="g14">
</g>
<g
   id="g16">
</g>
<g
   id="g18">
</g>
<g
   id="g20">
</g>
<g
   id="g22">
</g>
<g
   id="g24">
</g>
<g
   id="g26">
</g>
<g
   id="g28">
</g>
<g
   id="g30">
</g>
<g
   id="g32">
</g>
<g
   id="g34">
</g>
<g
   id="g36">
</g>
</svg>
