<?xml version="1.0" encoding="UTF-8"?>
<!-- Generator: Adobe Illustrator 18.0.0, SVG Export Plug-In . SVG Version: 6.00 Build 0)  -->
<svg id="Capa_1" width="64" height="64" version="1.1" viewBox="0 0 64 64" xml:space="preserve" xmlns="http://www.w3.org/2000/svg">
<path id="path2" d="m9.25 4c-1.933 0-3.5 1.5668-3.5 3.5 0 1.933 1.567 3.5 3.5 3.5h17.502c1.933 0 3.5-1.567 3.5-3.5 0-1.9332-1.567-3.5-3.5-3.5h-17.502zm31.502 0c-1.933 0-3.5 1.567-3.5 3.5v32.111c-1.0963-0.38819-2.2708-0.60938-3.5-0.60938-5.7993 0-10.5 4.7007-10.5 10.5s4.7007 10.5 10.5 10.5c5.7993 0 10.5-4.7007 10.5-10.5v-32.016c0.15466 0.11966 0.30866 0.24015 0.46289 0.35938 3.9492 3.0465 6.5371 5.2582 6.5371 8.127 0 4.459-2.3715 6.9487-2.4395 7.0195-1.3861 1.3476-1.4179 3.5632-0.070312 4.9492 0.68614 0.70583 1.5971 1.0605 2.5098 1.0605 0.87887 0 1.7592-0.32881 2.4395-0.99023 0.46705-0.45371 4.5605-4.6476 4.5605-12.039 1.1e-4 -6.5234-5.1336-10.486-9.2598-13.67-2-1.5432-4.7402-3.6568-4.7402-4.8027 0-1.933-1.567-3.5-3.5-3.5zm-31.502 10.5c-1.933 0-3.5 1.5668-3.5 3.5 0 1.933 1.567 3.5 3.5 3.5h17.502c1.933 0 3.5-1.567 3.5-3.5 0-1.9332-1.567-3.5-3.5-3.5h-17.502zm0 10.5c-1.933 0-3.5 1.5688-3.5 3.502 0 1.933 1.567 3.5 3.5 3.5h17.502c1.933 0 3.5-1.567 3.5-3.5 0-1.9332-1.567-3.502-3.5-3.502h-17.502z" fill="#fff" stroke-width=".10938"/>















</svg>
