<?xml version="1.0" encoding="UTF-8" standalone="no"?>
<!-- Generator: Adobe Illustrator 18.0.0, SVG Export Plug-In . SVG Version: 6.00 Build 0)  -->

<svg
   version="1.1"
   id="Capa_1"
   x="0px"
   y="0px"
   viewBox="0 0 64 64"
   xml:space="preserve"
   sodipodi:docname="menu_tracks.svg"
   width="64"
   height="64"
   inkscape:version="1.1 (c4e8f9ed74, 2021-05-24)"
   xmlns:inkscape="http://www.inkscape.org/namespaces/inkscape"
   xmlns:sodipodi="http://sodipodi.sourceforge.net/DTD/sodipodi-0.dtd"
   xmlns="http://www.w3.org/2000/svg"
   xmlns:svg="http://www.w3.org/2000/svg"><defs
   id="defs45" /><sodipodi:namedview
   id="namedview43"
   pagecolor="#505050"
   bordercolor="#ffffff"
   borderopacity="1"
   inkscape:pageshadow="0"
   inkscape:pageopacity="0"
   inkscape:pagecheckerboard="1"
   showgrid="false"
   inkscape:zoom="6.5078125"
   inkscape:cx="57.315726"
   inkscape:cy="57.853541"
   inkscape:window-width="1920"
   inkscape:window-height="1024"
   inkscape:window-x="1920"
   inkscape:window-y="0"
   inkscape:window-maximized="1"
   inkscape:current-layer="Capa_1" />
<g
   id="g10"
   transform="matrix(0.109375,0,0,0.109375,4.0000547,4)"
   style="fill:#ffffff">
	<path
   d="M 48,64 H 208 C 225.672,64 240,49.672 240,32 240,14.326 225.672,0 208,0 H 48 C 30.328,0 16,14.326 16,32 16,49.672 30.328,64 48,64 Z"
   id="path2"
   style="fill:#ffffff" />
	<path
   d="m 48,160 h 160 c 17.672,0 32,-14.328 32,-32 0,-17.674 -14.328,-32 -32,-32 H 48 c -17.672,0 -32,14.326 -32,32 0,17.672 14.328,32 32,32 z"
   id="path4"
   style="fill:#ffffff" />
	<path
   d="m 240,224 c 0,-17.674 -14.328,-32 -32,-32 H 48 c -17.672,0 -32,14.326 -32,32 0,17.672 14.328,32 32,32 h 160 c 17.672,0 32,-14.328 32,-32 z"
   id="path6"
   style="fill:#ffffff" />
	<path
   d="M 411.328,75.914 C 393.043,61.805 368,42.477 368,32 368,14.328 353.672,0 336,0 318.328,0 304,14.328 304,32 V 325.58 C 293.977,322.031 283.238,320 272,320 c -53.02,0 -96,42.98 -96,96 0,53.02 42.98,96 96,96 53.02,0 96,-42.98 96,-96 V 123.293 c 1.414,1.094 2.82,2.203 4.23,3.293 36.105,27.852 59.77,48.078 59.77,74.305 0,40.766 -21.684,63.516 -22.305,64.164 -12.672,12.32 -12.961,32.578 -0.641,45.25 6.273,6.453 14.605,9.695 22.949,9.695 8.035,0 16.082,-3.008 22.301,-9.055 4.27,-4.148 41.695,-42.484 41.695,-110.055 C 496,141.25 449.051,105.023 411.328,75.914 Z"
   id="path8"
   style="fill:#ffffff" />
</g>
<g
   id="g12">
</g>
<g
   id="g14">
</g>
<g
   id="g16">
</g>
<g
   id="g18">
</g>
<g
   id="g20">
</g>
<g
   id="g22">
</g>
<g
   id="g24">
</g>
<g
   id="g26">
</g>
<g
   id="g28">
</g>
<g
   id="g30">
</g>
<g
   id="g32">
</g>
<g
   id="g34">
</g>
<g
   id="g36">
</g>
<g
   id="g38">
</g>
<g
   id="g40">
</g>
</svg>
