<?xml version="1.0" encoding="UTF-8"?>
<!-- Generator: Adobe Illustrator 19.1.0, SVG Export Plug-In . SVG Version: 6.00 Build 0)  -->
<svg id="Capa_1" width="64" height="64" version="1.1" viewBox="0 0 64 64" xml:space="preserve" xmlns="http://www.w3.org/2000/svg">
<path id="path2" d="m31.939 5.2832c-0.37865-0.0071987-0.76118 0.12386-1.0664 0.39453l-26.354 23.564c-0.64501 0.5759-0.69134 1.5562-0.12695 2.2012 0.31099 0.34554 0.7379 0.51758 1.1641 0.51758 0.36858 0 0.73569-0.12571 1.0352-0.39063l4.7461-4.25v27.48c0 2.1539 1.7506 3.916 3.916 3.916h8.3164c2.0272 0 3.6738-1.6467 3.6738-3.6738v-13.971c0-0.31099 0.25347-0.56445 0.56445-0.56445h8.3965c0.31099 0 0.56445 0.25347 0.56445 0.56445v13.971c0 2.0272 1.6467 3.6738 3.6738 3.6738h8.3164c2.1884 0 3.916-2.1534 3.916-4.9062v-26.342l4.7461 4.25c0.29947 0.26491 0.66853 0.39258 1.0371 0.39258 0.42617 0 0.85112-0.17399 1.1621-0.51953 0.55286-0.64501 0.49482-1.6233-0.13867-2.1992l-26.352-23.566c-0.04607-0.046072-0.092796-0.08068-0.15039-0.11523-0.28795-0.27643-0.66236-0.42054-1.041-0.42773zm-0.019531 3.6309 17.635 15.768v12.393 16.713c0 1.1172-0.55324 1.7969-0.80664 1.7969h-8.3164c-0.31099 0-0.5625-0.25347-0.5625-0.56445v-13.947c0-2.0272-1.6486-3.6738-3.6758-3.6738h-8.3965c-2.0272 0-3.6738 1.6467-3.6738 3.6738v13.971c0 0.31099-0.25347 0.56445-0.56445 0.56445h-8.3164c-0.43768 0-0.80664-0.35744-0.80664-0.80664v-30.27l17.484-15.617z" fill="#fff" stroke-width=".11518"/>















</svg>
