<?xml version="1.0" encoding="UTF-8"?>
<!-- Generator: Adobe Illustrator 18.0.0, SVG Export Plug-In . SVG Version: 6.00 Build 0)  -->
<svg id="Capa_1" width="32" height="32" version="1.1" viewBox="0 0 32 32" xml:space="preserve" xmlns="http://www.w3.org/2000/svg">
<path id="path2" d="m6.25 4.0003c-0.82839 0-1.4999 0.67146-1.4999 1.4999 0 0.82839 0.67154 1.4999 1.4999 1.4999h7.5005c0.82839 0 1.4999-0.67154 1.4999-1.4999 0-0.82848-0.67154-1.4999-1.4999-1.4999zm13.5 0c-0.82839 0-1.4999 0.67154-1.4999 1.4999v13.761c-0.46982-0.16636-0.97316-0.26115-1.4999-0.26115-2.4853 0-4.4998 2.0145-4.4998 4.4998s2.0145 4.4998 4.4998 4.4998 4.4998-2.0145 4.4998-4.4998v-13.721c0.06628 0.051281 0.13228 0.10292 0.19837 0.15401 1.6924 1.3056 2.8015 2.2534 2.8015 3.4829 0 1.9109-1.0163 2.9779-1.0455 3.0082-0.59402 0.57752-0.60765 1.527-0.03013 2.121 0.29405 0.30249 0.68444 0.45448 1.0756 0.45448 0.37664 0 0.75391-0.14091 1.0455-0.42437 0.20016-0.19444 1.9544-1.9917 1.9544-5.1594 4.8e-5 -2.7956-2.2-4.4938-3.9683-5.8583-0.85711-0.66134-2.0314-1.5671-2.0314-2.0582 0-0.82839-0.67154-1.4999-1.4999-1.4999zm-13.5 4.4998c-0.82839 0-1.4999 0.67146-1.4999 1.4999 0 0.82839 0.67154 1.4999 1.4999 1.4999h7.5005c0.82839 0 1.4999-0.67154 1.4999-1.4999 0-0.82848-0.67154-1.4999-1.4999-1.4999zm0 4.4998c-0.82839 0-1.4999 0.67232-1.4999 1.5008 0 0.82839 0.67154 1.4999 1.4999 1.4999h7.5005c0.82839 0 1.4999-0.67154 1.4999-1.4999 0-0.82848-0.67154-1.5008-1.4999-1.5008z" fill="#fff" stroke-width=".046875"/>















</svg>
