<?xml version="1.0" encoding="UTF-8"?>
<!-- Generator: Adobe Illustrator 17.1.0, SVG Export Plug-In . SVG Version: 6.00 Build 0)  -->
<svg id="Capa_1" width="64" height="64" version="1.1" viewBox="0 0 64 64" xml:space="preserve" xmlns="http://www.w3.org/2000/svg">
<path id="path1207" d="m53.66 4c-0.14638-0.0016573-0.29586 0.0052031-0.44726 0.017578v-0.0019531c-0.34608 0.02828-0.70507 0.093959-1.0723 0.19922l-24.219 7.4082c-2.9378 0.84214-5.3125 3.8963-5.3125 6.834v25.549s-1.754-1.1802-5.6621-0.62695c-5.7476 0.80944-10.4 5.2164-10.4 9.8359 0 4.622 4.6524 7.462 10.4 6.6445 5.7367-0.8092 9.9512-5.0806 9.9512-9.7109v-21.812c0-2.0549 2.4609-2.9258 2.4609-2.9258l21.418-6.7188s2.375-0.78752 2.375 1.4062v17.523s-2.1834-1.2552-6.0996-0.78906c-5.7395 0.70328-10.391 5.0147-10.391 9.6367 0 4.6194 4.6514 7.5459 10.391 6.8535 5.7476-0.70304 10.4-5.0134 10.4-9.6328v-35.674c0-2.4098-1.5972-3.9908-3.793-4.0156z" fill="#fff"/>















</svg>
