<?xml version="1.0" encoding="UTF-8"?>
<svg id="Capa_1" width="64" height="64" version="1.1" viewBox="0 0 64 64" xml:space="preserve" xmlns="http://www.w3.org/2000/svg" xmlns:cc="http://creativecommons.org/ns#" xmlns:dc="http://purl.org/dc/elements/1.1/" xmlns:rdf="http://www.w3.org/1999/02/22-rdf-syntax-ns#"><metadata id="metadata56"><rdf:RDF><cc:Work rdf:about=""><dc:format>image/svg+xml</dc:format><dc:type rdf:resource="http://purl.org/dc/dcmitype/StillImage"/></cc:Work></rdf:RDF></metadata>
<path id="path2" d="m42.338 4c-0.52733 0-1.0546 0.20202-1.457 0.60547-0.80485 0.8069-0.80485 2.1169 0 2.9238l6.6289 6.709h-35.988c-1.1305 0-2.0488 0.91846-2.0488 2.0488v18.432c0 1.1303 0.91846 2.0469 2.0488 2.0469 1.1305 0 2.0469-0.9165 2.0469-2.0469v-16.385h33.979l-6.666 6.7461c-0.80485 0.80894-0.80485 2.1188 0 2.9277 0.80485 0.8069 2.1093 0.8069 2.9141 0l10.117-10.238c0.80485-0.80894 0.80485-2.1169 0-2.9258l-10.117-10.238c-0.40243-0.40345-0.92967-0.60352-1.457-0.60352v-0.0019531zm10.141 23.219c-1.1305 0-2.0469 0.91654-2.0469 2.0469v16.447h-34.051l6.7246-6.8203c0.80485-0.80894 0.80485-2.1208 0-2.9297s-2.1093-0.80894-2.9141 0l-10.064 10.207c-0.85814 0.81098-0.86426 2.2085 0 3.0195l10.066 10.205c0.80485 0.80894 2.1093 0.80894 2.9141 0s0.80485-2.1227 0-2.9316l-6.5586-6.6523h35.93c1.1305 0 2.0488-0.9165 2.0488-2.0469v-18.494c0-1.1325-0.91832-2.0508-2.0488-2.0508z" fill="#007fff"/>















</svg>
