<?xml version="1.0" encoding="UTF-8"?>
<svg id="Capa_1" width="64" height="64" version="1.1" viewBox="0 0 64 64" xml:space="preserve" xmlns="http://www.w3.org/2000/svg" xmlns:cc="http://creativecommons.org/ns#" xmlns:dc="http://purl.org/dc/elements/1.1/" xmlns:rdf="http://www.w3.org/1999/02/22-rdf-syntax-ns#"><metadata id="metadata41"><rdf:RDF><cc:Work rdf:about=""><dc:format>image/svg+xml</dc:format><dc:type rdf:resource="http://purl.org/dc/dcmitype/StillImage"/></cc:Work></rdf:RDF></metadata>
<path id="path2" d="m32.012 4c-2.0686 0-3.7363 1.6791-3.7363 3.7363v39.521l-12.961-12.959c-0.73146-0.73146-1.6806-1.0977-2.6406-1.0977s-1.9072 0.3662-2.6387 1.0977c-1.4629 1.4629-1.4629 3.8164 0 5.2793l19.326 19.326c0.69717 0.7086 1.6463 1.0977 2.6406 1.0977s1.9415-0.40049 2.6387-1.0977l19.326-19.326c1.4629-1.4629 1.4629-3.8164 0-5.2793s-3.8164-1.4629-5.2793 0l-12.938 12.959v-39.521c0-2.0686-1.6811-3.7363-3.7383-3.7363z" fill="#fff" stroke-width=".11429"/>















</svg>
