<?xml version="1.0" encoding="UTF-8" standalone="no"?>
<svg
   width="64"
   height="64"
   viewBox="0 0 64 64"
   fill="none"
   version="1.1"
   id="svg8"
   sodipodi:docname="queue_shuffle.svg"
   inkscape:version="1.1 (c4e8f9ed74, 2021-05-24)"
   xmlns:inkscape="http://www.inkscape.org/namespaces/inkscape"
   xmlns:sodipodi="http://sodipodi.sourceforge.net/DTD/sodipodi-0.dtd"
   xmlns="http://www.w3.org/2000/svg"
   xmlns:svg="http://www.w3.org/2000/svg"
   xmlns:rdf="http://www.w3.org/1999/02/22-rdf-syntax-ns#"
   xmlns:cc="http://creativecommons.org/ns#"
   xmlns:dc="http://purl.org/dc/elements/1.1/">
  <metadata
     id="metadata14">
    <rdf:RDF>
      <cc:Work
         rdf:about="">
        <dc:format>image/svg+xml</dc:format>
        <dc:type
           rdf:resource="http://purl.org/dc/dcmitype/StillImage" />
      </cc:Work>
    </rdf:RDF>
  </metadata>
  <defs
     id="defs12" />
  <sodipodi:namedview
     pagecolor="#ffffff"
     bordercolor="#666666"
     borderopacity="1"
     objecttolerance="10"
     gridtolerance="10"
     guidetolerance="10"
     inkscape:pageopacity="0"
     inkscape:pageshadow="2"
     inkscape:window-width="1920"
     inkscape:window-height="1056"
     id="namedview10"
     showgrid="false"
     inkscape:pagecheckerboard="true"
     inkscape:zoom="6.2387443"
     inkscape:cx="40.553033"
     inkscape:cy="53.45627"
     inkscape:window-x="0"
     inkscape:window-y="0"
     inkscape:window-maximized="1"
     inkscape:current-layer="svg8"
     inkscape:document-rotation="0" />
  <path
     id="path2"
     style="fill:#388e3c;fill-opacity:1;stroke-width:3.61268"
     d="m 50.061767,7.6126881 c -0.693364,0 -1.390156,0.2612153 -1.919239,0.7902755 -1.058155,1.05812 -1.058155,2.7803604 0,3.8384804 l 2.603676,2.59662 H 36.972831 c -2.423386,0 -4.630813,1.382316 -5.68716,3.563295 l -0.762048,1.573495 c -0.192546,0.397866 -0.192546,0.858144 0,1.255973 l 2.053301,4.247728 c 0.263368,0.543352 1.034945,0.543352 1.298313,0 l 2.286151,-4.713426 c 0.15064,-0.311559 0.464987,-0.508035 0.811443,-0.508035 h 13.773373 l -2.603676,2.59662 c -1.058155,1.05812 -1.058155,2.780326 0,3.838481 1.05816,1.058156 2.780323,1.058156 3.838478,0 l 7.225381,-7.225375 c 1.058151,-1.05812 1.058151,-2.780361 0,-3.838481 L 51.981006,8.4029636 C 51.451934,7.8739034 50.755136,7.6126881 50.061767,7.6126881 Z M 6.7095156,14.838064 c -1.4964112,0 -2.7095157,1.213104 -2.7095157,2.709515 0,1.496412 1.2131045,2.709515 2.7095157,2.709515 H 18.443696 c 0.346203,0 0.660504,0.196467 0.811442,0.508035 l 12.030533,24.830173 c 1.056347,2.180983 3.263774,3.563294 5.68716,3.563294 h 13.773373 l -2.603676,2.59662 c -1.058155,1.05816 -1.058155,2.780323 0,3.838478 1.05816,1.058157 2.780323,1.058157 3.838478,0 l 7.225381,-7.225372 c 1.058151,-1.058155 1.058151,-2.780325 0,-3.838483 l -7.225381,-7.225374 c -1.058155,-1.058155 -2.780318,-1.058155 -3.838478,0 -1.058155,1.058162 -1.058155,2.780325 0,3.83848 l 2.603676,2.59662 H 36.972831 c -0.346456,0 -0.660793,-0.19663 -0.811443,-0.508034 L 24.130856,18.401359 C 23.074434,16.22038 20.867049,14.838064 18.443696,14.838064 Z M 22.190448,38.115907 c -0.259338,0 -0.517544,0.130527 -0.649154,0.402197 l -2.286156,4.713427 c -0.150941,0.311413 -0.465239,0.508034 -0.811442,0.508034 H 6.7095156 c -1.4964112,0 -2.7095157,1.213144 -2.7095157,2.70952 0,1.496372 1.2131045,2.709511 2.7095157,2.709511 H 18.443696 c 2.423353,0 4.630738,-1.382311 5.68716,-3.563294 l 0.762053,-1.573492 c 0.192546,-0.398121 0.192546,-0.858219 0,-1.255975 l -2.053306,-4.247731 c -0.1316,-0.271677 -0.389819,-0.402197 -0.649155,-0.402197 z" />
</svg>
