<?xml version="1.0" encoding="UTF-8" standalone="no"?>
<svg
   version="1.1"
   id="Capa_1"
   x="0px"
   y="0px"
   viewBox="0 0 63.999998 63.999998"
   xml:space="preserve"
   sodipodi:docname="queue_repeat_single.svg"
   inkscape:version="1.1 (c4e8f9ed74, 2021-05-24)"
   width="64"
   height="64"
   xmlns:inkscape="http://www.inkscape.org/namespaces/inkscape"
   xmlns:sodipodi="http://sodipodi.sourceforge.net/DTD/sodipodi-0.dtd"
   xmlns="http://www.w3.org/2000/svg"
   xmlns:svg="http://www.w3.org/2000/svg"
   xmlns:rdf="http://www.w3.org/1999/02/22-rdf-syntax-ns#"
   xmlns:cc="http://creativecommons.org/ns#"
   xmlns:dc="http://purl.org/dc/elements/1.1/"><metadata
   id="metadata56"><rdf:RDF><cc:Work
       rdf:about=""><dc:format>image/svg+xml</dc:format><dc:type
         rdf:resource="http://purl.org/dc/dcmitype/StillImage" /></cc:Work></rdf:RDF></metadata><defs
   id="defs54" /><sodipodi:namedview
   pagecolor="#ffffff"
   bordercolor="#666666"
   borderopacity="1"
   objecttolerance="10"
   gridtolerance="10"
   guidetolerance="10"
   inkscape:pageopacity="0"
   inkscape:pageshadow="2"
   inkscape:window-width="1920"
   inkscape:window-height="1056"
   id="namedview52"
   showgrid="false"
   inkscape:pagecheckerboard="true"
   inkscape:zoom="1.8335089"
   inkscape:cx="187.07299"
   inkscape:cy="190.07271"
   inkscape:window-x="0"
   inkscape:window-y="0"
   inkscape:window-maximized="1"
   inkscape:current-layer="Group_Arrows"
   inkscape:document-rotation="0" />
<g
   id="g19"
   style="fill:#ffffff">
	<g
   id="Group_Arrows"
   style="fill:#ffffff">
		<path
   id="path2"
   style="fill:#0288d1;fill-opacity:1;stroke-width:0.170231"
   d="m 42.336726,3.9999999 c -0.527334,0 -1.054514,0.201671 -1.456941,0.605119 -0.804853,0.806896 -0.804853,2.11729 0,2.924186 l 6.629043,6.7091701 h -35.98827 c -1.130506,0 -2.0477625,0.917427 -2.0477625,2.047762 v 18.431517 c 0,1.130335 0.9174265,2.047762 2.0477625,2.047762 1.130505,0 2.048094,-0.917427 2.048094,-2.047762 V 18.333999 h 33.977082 l -6.665949,6.746075 c -0.804853,0.808938 -0.804853,2.117575 0,2.926514 0.804853,0.806896 2.109362,0.806896 2.914212,0 L 53.910785,17.76911 c 0.80485,-0.808938 0.80485,-2.117575 0,-2.926514 L 43.793997,4.6051189 C 43.39157,4.2016709 42.86406,3.9999999 42.336726,3.9999999 Z M 30.827501,21.997294 26.04407,22.962159 v 2.46536 l 4.810363,-0.964533 v 15.261626 h -4.421689 v 2.27784 h 11.523188 v -2.27784 H 33.534243 V 21.997294 Z m 21.651614,5.220977 c -1.13051,0 -2.04776,0.917759 -2.04776,2.048094 V 45.712959 H 16.380459 l 6.725462,-6.819553 c 0.804853,-0.808939 0.804853,-2.121566 0,-2.930505 -0.804853,-0.808939 -2.109359,-0.808939 -2.914212,0 L 10.12812,46.169791 c -0.8581365,0.810982 -0.8642645,2.20763 0,3.018611 l 10.065583,10.204894 c 0.804853,0.808939 2.109359,0.808939 2.914213,0 0.804852,-0.808939 0.804852,-2.121564 0,-2.930503 l -6.559555,-6.651651 h 35.931083 c 1.13051,0 2.04776,-0.917427 2.04776,-2.047762 V 29.26836 c 0,-1.132548 -0.91759,-2.050089 -2.048089,-2.050089 z" />
		
	</g>
	<g
   id="g7"
   style="fill:#ffffff">
	</g>
	<g
   id="g9"
   style="fill:#ffffff">
	</g>
	<g
   id="g11"
   style="fill:#ffffff">
	</g>
	<g
   id="g13"
   style="fill:#ffffff">
	</g>
	<g
   id="g15"
   style="fill:#ffffff">
	</g>
	<g
   id="g17"
   style="fill:#ffffff">
	</g>
</g>
<g
   id="g21">
</g>
<g
   id="g23">
</g>
<g
   id="g25">
</g>
<g
   id="g27">
</g>
<g
   id="g29">
</g>
<g
   id="g31">
</g>
<g
   id="g33">
</g>
<g
   id="g35">
</g>
<g
   id="g37">
</g>
<g
   id="g39">
</g>
<g
   id="g41">
</g>
<g
   id="g43">
</g>
<g
   id="g45">
</g>
<g
   id="g47">
</g>
<g
   id="g49">
</g>
</svg>
