<?xml version="1.0" encoding="UTF-8"?>
<svg id="svg8" width="32" height="32" fill="none" version="1.1" viewBox="0 0 32 32" xmlns="http://www.w3.org/2000/svg" xmlns:cc="http://creativecommons.org/ns#" xmlns:dc="http://purl.org/dc/elements/1.1/" xmlns:rdf="http://www.w3.org/1999/02/22-rdf-syntax-ns#">
 <metadata id="metadata14">
  <rdf:RDF>
   <cc:Work rdf:about="">
    <dc:format>image/svg+xml</dc:format>
    <dc:type rdf:resource="http://purl.org/dc/dcmitype/StillImage"/>
   </cc:Work>
  </rdf:RDF>
 </metadata>
 <path id="path2" d="m23.741 5.5487c-0.29715 0-0.59609 0.11143-0.8228 0.33816-0.4535 0.45346-0.4535 1.1921 0 1.6456l1.1158 1.1124h-5.9026c-1.0386 0-1.9839 0.59291-2.4366 1.5276l-0.32728 0.67383c-0.08252 0.17051-0.08252 0.3677 0 0.53823l0.88056 1.8205c0.11287 0.23286 0.44292 0.23286 0.5558 0l0.98016-2.0198c0.06456-0.13352 0.1989-0.21763 0.34737-0.21763h5.9026l-1.1158 1.1124c-0.4535 0.45346-0.4535 1.1913 0 1.6448 0.4535 0.4535 1.1913 0.4535 1.6448 0l3.097-3.0962c0.4535-0.45346 0.4535-1.1913 0-1.6448l-3.097-3.097c-0.22674-0.22673-0.52486-0.33816-0.82198-0.33816zm-18.579 3.0962c-0.6413 0-1.1618 0.51967-1.1618 1.161 0 0.6413 0.52049 1.1618 1.1618 1.1618h5.0279c0.14837 0 0.28352 0.0841 0.3482 0.21763l5.156 10.641c0.45269 0.93469 1.3989 1.5267 2.4374 1.5267h5.9017l-1.1158 1.1133c-0.4535 0.4535-0.4535 1.1913 0 1.6448 0.4535 0.4535 1.1913 0.4535 1.6448 0l3.097-3.097c0.4535-0.4535 0.4535-1.1913 0-1.6448l-3.097-3.0962c-0.4535-0.4535-1.1913-0.4535-1.6448 0-0.4535 0.4535-0.4535 1.1913 0 1.6448l1.1158 1.1133h-5.9017c-0.14848 0-0.28364-0.08501-0.34821-0.21846l-5.156-10.641c-0.45273-0.93469-1.3989-1.5267-2.4374-1.5267h-5.0279zm6.6341 9.9756c-0.11114 0-0.22233 0.056-0.27873 0.17243l-0.97935 2.0206c-0.06469 0.13346-0.19984 0.21763-0.3482 0.21763h-5.0279c-0.6413 0-1.1618 0.51967-1.1618 1.161s0.52049 1.161 1.1618 1.161h5.0279c1.0386 0 1.9847-0.59206 2.4374-1.5268l0.32644-0.67464c0.08252-0.17062 0.08252-0.36774 0-0.53823l-0.87971-1.8205c-0.0564-0.11643-0.16675-0.17243-0.2779-0.17243z" fill="#3fbf3f" stroke-width=".42856"/>
</svg>
