<?xml version="1.0" encoding="UTF-8"?>
<svg id="Capa_1" width="32" height="32" version="1.1" viewBox="0 0 32 32" xml:space="preserve" xmlns="http://www.w3.org/2000/svg" xmlns:cc="http://creativecommons.org/ns#" xmlns:dc="http://purl.org/dc/elements/1.1/" xmlns:rdf="http://www.w3.org/1999/02/22-rdf-syntax-ns#"><metadata id="metadata41"><rdf:RDF><cc:Work rdf:about=""><dc:format>image/svg+xml</dc:format><dc:type rdf:resource="http://purl.org/dc/dcmitype/StillImage"/></cc:Work></rdf:RDF></metadata>
<path id="path2" d="m16.005 4c-0.88652 0-1.6012 0.7196-1.6012 1.6012v16.937l-5.5546-5.5537c-0.31348-0.31348-0.72024-0.47043-1.1317-0.47043s-0.81735 0.15694-1.1308 0.47043c-0.62694 0.62694-0.62694 1.6356 0 2.2625l8.2824 8.2824c0.29878 0.30368 0.70554 0.47043 1.1317 0.47043 0.42612 0 0.83205-0.17163 1.1308-0.47043l8.2824-8.2824c0.62694-0.62694 0.62694-1.6356 0-2.2625s-1.6356-0.62694-2.2625 0l-5.5447 5.5537v-16.937c0-0.88652-0.72046-1.6012-1.6021-1.6012z" fill="#fff" stroke-width=".04898"/>















</svg>
