<?xml version="1.0" encoding="UTF-8"?>
<svg id="svg8" width="64" height="64" fill="none" version="1.1" viewBox="0 0 64 64" xmlns="http://www.w3.org/2000/svg" xmlns:cc="http://creativecommons.org/ns#" xmlns:dc="http://purl.org/dc/elements/1.1/" xmlns:rdf="http://www.w3.org/1999/02/22-rdf-syntax-ns#">
 <metadata id="metadata14">
  <rdf:RDF>
   <cc:Work rdf:about="">
    <dc:format>image/svg+xml</dc:format>
    <dc:type rdf:resource="http://purl.org/dc/dcmitype/StillImage"/>
   </cc:Work>
  </rdf:RDF>
 </metadata>
 <path id="path2" d="m50.062 7.6133c-0.69336 0-1.3909 0.26-1.9199 0.78906-1.0582 1.0581-1.0582 2.7817 0 3.8398l2.6035 2.5957h-13.773c-2.4234 0-4.6291 1.3835-5.6855 3.5645l-0.76367 1.5723c-0.19255 0.39787-0.19255 0.858 0 1.2559l2.0547 4.248c0.26337 0.54335 1.0335 0.54335 1.2969 0l2.2871-4.7129c0.15064-0.31156 0.4641-0.50781 0.81055-0.50781h13.773l-2.6035 2.5957c-1.0582 1.0581-1.0582 2.7797 0 3.8379s2.7797 1.0582 3.8379 0l7.2266-7.2246c1.0582-1.0581 1.0582-2.7798 0-3.8379l-7.2266-7.2266c-0.52907-0.52906-1.2247-0.78906-1.918-0.78906zm-43.352 7.2246c-1.4964 0-2.7109 1.2126-2.7109 2.709s1.2145 2.7109 2.7109 2.7109h11.732c0.3462 0 0.66156 0.19624 0.8125 0.50781l12.031 24.83c1.0563 2.181 3.2641 3.5625 5.6875 3.5625h13.771l-2.6035 2.5977c-1.0582 1.0582-1.0582 2.7797 0 3.8379s2.7797 1.0582 3.8379 0l7.2266-7.2266c1.0582-1.0582 1.0582-2.7797 0-3.8379l-7.2266-7.2246c-1.0582-1.0582-2.7797-1.0582-3.8379 0-1.0582 1.0582-1.0582 2.7797 0 3.8379l2.6035 2.5977h-13.771c-0.34646 0-0.66185-0.19836-0.8125-0.50976l-12.031-24.83c-1.0564-2.181-3.2641-3.5625-5.6875-3.5625h-11.732zm15.48 23.277c-0.25934 0-0.51878 0.13067-0.65039 0.40234l-2.2852 4.7148c-0.15094 0.31141-0.4663 0.50781-0.8125 0.50781h-11.732c-1.4964 0-2.7109 1.2126-2.7109 2.709s1.2145 2.709 2.7109 2.709h11.732c2.4234 0 4.631-1.3815 5.6875-3.5625l0.76172-1.5742c0.19255-0.39812 0.19255-0.85808 0-1.2559l-2.0527-4.248c-0.1316-0.27168-0.3891-0.40234-0.64844-0.40234z" fill="#3fbf3f"/>
</svg>
