<?xml version="1.0" encoding="UTF-8"?>
<svg id="Capa_1" width="32" height="32" version="1.1" viewBox="0 0 32 32" xml:space="preserve" xmlns="http://www.w3.org/2000/svg" xmlns:cc="http://creativecommons.org/ns#" xmlns:dc="http://purl.org/dc/elements/1.1/" xmlns:rdf="http://www.w3.org/1999/02/22-rdf-syntax-ns#"><metadata id="metadata56"><rdf:RDF><cc:Work rdf:about=""><dc:format>image/svg+xml</dc:format><dc:type rdf:resource="http://purl.org/dc/dcmitype/StillImage"/></cc:Work></rdf:RDF></metadata>
<path id="path2" d="m20.43 4c-0.226 0-0.45196 0.086579-0.62442 0.25948-0.34493 0.34581-0.34493 0.90722 0 1.253l2.8409 2.8752h-15.423c-0.48449 0-0.87804 0.39362-0.87804 0.87804v7.8993c0 0.48441 0.39362 0.87723 0.87804 0.87723 0.48449 0 0.87723-0.39278 0.87723-0.87723v-7.022h14.562l-2.8568 2.8911c-0.34493 0.34668-0.34493 0.90804 0 1.2547 0.34493 0.34581 0.90397 0.34581 1.2489 0l4.3358-4.3876c0.34493-0.34668 0.34493-0.90722 0-1.2539l-4.3358-4.3876c-0.17247-0.1729-0.39842-0.25865-0.62442-0.25865v-8.371e-4zm4.3461 9.9508c-0.48449 0-0.87722 0.3928-0.87722 0.87722v7.0486h-14.593l2.8819-2.9229c0.34493-0.34668 0.34493-0.9089 0-1.2556-0.34493-0.34667-0.90397-0.34668-1.2489 0l-4.3131 4.3743c-0.36777 0.34756-0.37039 0.94648 0 1.294l4.3139 4.3735c0.34493 0.34668 0.90397 0.34668 1.2489 0 0.34491-0.34668 0.34493-0.90971 0-1.2564l-2.8108-2.8509h15.398c0.48449 0 0.87804-0.39278 0.87804-0.87723v-7.9258c0-0.48535-0.39356-0.8789-0.87804-0.8789z" fill="#007fff" stroke-width=".42856"/>















</svg>
