<?xml version="1.0" encoding="UTF-8"?>
<!-- Created with Inkscape (http://www.inkscape.org/) -->
<svg id="svg53" width="96" height="96" version="1.1" viewBox="0 0 25.4 25.4" xmlns="http://www.w3.org/2000/svg">
 <path id="path28" transform="scale(.26458)" d="m74.312 18.779v0.037109a1.8 1.8 0 0 0-1.5 2.8691 44.202 44.202 0 0 1 0 52.502 1.8 1.8 0 1 0 2.8711 2.1309 47.8 47.8 0 0 0 0-56.799 1.8 1.8 0 0 0-1.3711-0.74023zm-12.398 6.6562a1.8 1.8 0 0 0-1.3301 2.9609 30.4 30.4 0 0 1 0 39.098 1.8 1.8 0 1 0 2.7383 2.3008 34 34 0 0 0 0-43.699 1.8 1.8 0 0 0-1.4082-0.65039v-0.009765zm-21.141 0.89062 0.019531 0.14062a1.2 1.2 0 0 0-0.74024 0.29883l-12.799 11h-12.701c-0.99999 0-1.829 0.49112-2.459 1.1211a3.47 3.47 0 0 0-1.1309 2.459v13.1c0 0.99999 0.49108 1.8309 1.1211 2.4609a3.47 3.47 0 0 0 2.459 1.1191h12.699l12.801 11a1.2 1.2 0 0 0 1.9609-0.90039v-40.6a1.2 1.2 0 0 0-1.2305-1.1992zm9.5391 6.7109v0.029297a1.8 1.8 0 0 0-1.2402 3.0801 16.7 16.7 0 0 1 0 23.6 1.8 1.8 0 1 0 2.5312 2.5293 20.3 20.3 0 0 0 0-28.699 1.8 1.8 0 0 0-1.291-0.53906z" fill="#fff"/>
</svg>
