<?xml version="1.0" encoding="UTF-8"?>
<!-- Created with Inkscape (http://www.inkscape.org/) -->
<svg id="svg53" width="96" height="96" version="1.1" viewBox="0 0 25.4 25.4" xmlns="http://www.w3.org/2000/svg">
 <path id="path20" transform="scale(.26458)" d="m61.904 25.426a1.8 1.8 0 0 0-1.3301 2.959 30.4 30.4 0 0 1 0 39.1 1.8 1.8 0 1 0 2.7402 2.3008 34 34 0 0 0 0-43.699 1.8 1.8 0 0 0-1.4102-0.66016zm-21.119 1v0.039063a1.2 1.2 0 0 0-0.74023 0.30078l-12.801 11h-12.699c-0.99999 0-1.8309 0.49915-2.4609 1.1191a3.47 3.47 0 0 0-1.1191 2.4609v13.1c0 1.01 0.49915 1.8407 1.1191 2.4707a3.47 3.47 0 0 0 2.4609 1.1094h12.699l12.801 11.1a1.2 1.2 0 0 0 1.9707-0.89844v-40.6a1.2 1.2 0 0 0-1.2305-1.2012zm9.5195 6.6094v0.03125a1.8 1.8 0 0 0-1.25 3.0684 16.7 16.7 0 0 1 0 23.602 1.8 1.8 0 1 0 2.5293 2.5391 20.3 20.3 0 0 0 0-28.699 1.8 1.8 0 0 0-1.2793-0.54102z" fill="#fff"/>
</svg>
