<?xml version="1.0" encoding="UTF-8"?>
<!-- Created with Inkscape (http://www.inkscape.org/) -->
<svg id="svg53" width="96" height="96" version="1.1" viewBox="0 0 25.4 25.4" xmlns="http://www.w3.org/2000/svg">
 <path id="path12" transform="scale(.26458)" d="m40.785 26.336v0.11914a1.2 1.2 0 0 0-0.74023 0.30078l-12.801 11h-12.699c-0.99999 0-1.8309 0.49915-2.4609 1.1191a3.47 3.47 0 0 0-1.1191 2.4609v13.1c0 1.01 0.49915 1.8407 1.1191 2.4707a3.47 3.47 0 0 0 2.4609 1.1191h12.699l12.801 11a1.2 1.2 0 0 0 1.9707-0.90039v-40.6a1.2 1.2 0 0 0-1.2305-1.1895zm9.5195 6.6895v0.03125a1.8 1.8 0 0 0-1.25 3.0684 16.7 16.7 0 0 1 0 23.602 1.8 1.8 0 1 0 2.5293 2.5391 20.3 20.3 0 0 0 0-28.699 1.8 1.8 0 0 0-1.2793-0.54102z" fill="#fff"/>
</svg>
