<?xml version="1.0" encoding="UTF-8"?>
<!-- Created with Inkscape (http://www.inkscape.org/) -->
<svg id="svg53" width="32" height="32" version="1.1" viewBox="0 0 8.4667 8.4667" xmlns="http://www.w3.org/2000/svg">
 <path id="path28" d="m6.8651 1.3108v0.00371a0.18003 0.18003 0 0 0-0.15002 0.28695 4.4209 4.4209 0 0 1 0 5.251 0.18003 0.18003 0 1 0 0.28715 0.21312 4.7807 4.7807 0 0 0 0-5.6808 0.18003 0.18003 0 0 0-0.13713-0.074034zm-1.24 0.66572a0.18003 0.18003 0 0 0-0.13303 0.29614 3.0405 3.0405 0 0 1 0 3.9104 0.18003 0.18003 0 1 0 0.27387 0.23012 3.4005 3.4005 0 0 0 0-4.3706 0.18003 0.18003 0 0 0-0.14084-0.065049v-9.802e-4zm-2.1144 0.089076 0.00195 0.014064a0.12002 0.12002 0 0 0-0.074032 0.029888l-1.2801 1.1002h-1.2703c-0.10001 0-0.18293 0.049119-0.24594 0.11213a0.34705 0.34705 0 0 0-0.11311 0.24594v1.3102c0 0.10001 0.049116 0.18312 0.11213 0.24613a0.34705 0.34705 0 0 0 0.24594 0.11193h1.2701l1.2803 1.1002a0.12002 0.12002 0 0 0 0.19612-0.090053v-4.0606a0.12002 0.12002 0 0 0-0.12307-0.11994zm0.95406 0.67119v0.00293a0.18003 0.18003 0 0 0-0.12404 0.30806 1.6703 1.6703 0 0 1 0 2.3604 0.18003 0.18003 0 1 0 0.25316 0.25297 2.0303 2.0303 0 0 0 0-2.8703 0.18003 0.18003 0 0 0-0.12912-0.053914z" fill="#fff" stroke-width=".10002"/>
</svg>
