<?xml version="1.0" encoding="UTF-8" standalone="no"?>
<!-- Created with Inkscape (http://www.inkscape.org/) -->

<svg
   width="96"
   height="96"
   viewBox="0 0 25.399999 25.399999"
   version="1.1"
   id="svg53"
   inkscape:version="1.1 (c4e8f9ed74, 2021-05-24)"
   sodipodi:docname="volume3.svg"
   xmlns:inkscape="http://www.inkscape.org/namespaces/inkscape"
   xmlns:sodipodi="http://sodipodi.sourceforge.net/DTD/sodipodi-0.dtd"
   xmlns="http://www.w3.org/2000/svg"
   xmlns:svg="http://www.w3.org/2000/svg">
  <sodipodi:namedview
     id="namedview55"
     pagecolor="#ffffff"
     bordercolor="#666666"
     borderopacity="1.0"
     inkscape:pageshadow="2"
     inkscape:pageopacity="0.0"
     inkscape:pagecheckerboard="true"
     inkscape:document-units="mm"
     showgrid="false"
     units="px"
     inkscape:zoom="4.8604938"
     inkscape:cx="36.313183"
     inkscape:cy="51.640844"
     inkscape:window-width="1920"
     inkscape:window-height="1024"
     inkscape:window-x="1920"
     inkscape:window-y="0"
     inkscape:window-maximized="1"
     inkscape:current-layer="layer1" />
  <defs
     id="defs50" />
  <g
     inkscape:label="Layer 1"
     inkscape:groupmode="layer"
     id="layer1">
    <path
       d="m 19.662299,4.9783671 a 0.47624999,0.47624999 0 0 0 -0.396875,0.759354 11.694583,11.694583 0 0 1 0,13.8906249 0.47624999,0.47624999 0 1 0 0.759355,0.563562 12.647083,12.647083 0 0 0 0,-15.0283319 0.47624999,0.47624999 0 0 0 -0.36248,-0.195792 z m -3.280833,1.751542 a 0.47624999,0.47624999 0 0 0 -0.351896,0.783167 8.0433332,8.0433332 0 0 1 0,10.3452069 0.47624999,0.47624999 0 1 0 0.724959,0.608542 8.9958332,8.9958332 0 0 0 0,-11.5622909 0.47624999,0.47624999 0 0 0 -0.373063,-0.171979 z m -3.069167,2.018771 a 0.47624999,0.47624999 0 0 0 -0.328083,0.814916 4.4185416,4.4185416 0 0 1 0,6.2441659 0.47624999,0.47624999 0 1 0 0.669396,0.669396 5.3710416,5.3710416 0 0 0 0,-7.5935409 0.47624999,0.47624999 0 0 0 -0.341313,-0.142875 z m -2.518833,-1.74625 a 0.3175,0.3175 0 0 0 -0.195791,0.07938 l -3.3866673,2.910416 h -3.360208 c -0.264584,0 -0.484188,0.1296459 -0.650875,0.2963339 a 0.91810416,0.91810416 0 0 0 -0.298979,0.650875 v 3.466041 c 0,0.264583 0.129645,0.484187 0.296333,0.650875 a 0.91810416,0.91810416 0 0 0 0.650875,0.296333 h 3.360208 l 3.3866673,2.910417 a 0.3175,0.3175 0 0 0 0.518583,-0.238125 V 7.2828881 a 0.3175,0.3175 0 0 0 -0.325437,-0.3175 z"
       id="path28"
       inkscape:label="Volume 100%"
       style="stroke-width:0.264583;fill:#ffffff" />
  </g>
</svg>
