<?xml version="1.0" encoding="UTF-8" standalone="no"?>
<!-- Created with Inkscape (http://www.inkscape.org/) -->

<svg
   width="96"
   height="96"
   viewBox="0 0 25.399999 25.399999"
   version="1.1"
   id="svg53"
   sodipodi:docname="volume2.svg"
   inkscape:version="1.1 (c4e8f9ed74, 2021-05-24)"
   xmlns:inkscape="http://www.inkscape.org/namespaces/inkscape"
   xmlns:sodipodi="http://sodipodi.sourceforge.net/DTD/sodipodi-0.dtd"
   xmlns="http://www.w3.org/2000/svg"
   xmlns:svg="http://www.w3.org/2000/svg">
  <sodipodi:namedview
     id="namedview55"
     pagecolor="#ffffff"
     bordercolor="#666666"
     borderopacity="1.0"
     inkscape:pageshadow="2"
     inkscape:pageopacity="0.0"
     inkscape:pagecheckerboard="true"
     inkscape:document-units="mm"
     showgrid="false"
     units="px"
     inkscape:zoom="4.8604938"
     inkscape:cx="36.313183"
     inkscape:cy="51.640844"
     inkscape:window-width="1920"
     inkscape:window-height="1024"
     inkscape:window-x="1920"
     inkscape:window-y="0"
     inkscape:window-maximized="1"
     inkscape:current-layer="layer1" />
  <defs
     id="defs50" />
  <g
     inkscape:label="Layer 1"
     inkscape:groupmode="layer"
     id="layer1">
    <path
       d="m 10.79082,7.0024344 a 0.3175,0.3175 0 0 0 -0.195792,0.079375 L 7.2083617,9.992226 H 3.8481535 c -0.264583,0 -0.484188,0.132292 -0.650875,0.296333 a 0.91810416,0.91810416 0 0 0 -0.296333,0.650875 v 3.466042 c 0,0.267229 0.132291,0.486833 0.296333,0.653521 a 0.91810416,0.91810416 0 0 0 0.650875,0.293687 h 3.3602082 l 3.3866663,2.936875 a 0.3175,0.3175 0 0 0 0.52123,-0.238125 V 7.3093511 a 0.3175,0.3175 0 0 0 -0.325438,-0.3175 z m 2.518833,1.74625 a 0.47624999,0.47624999 0 0 0 -0.330729,0.8122708 4.4185416,4.4185416 0 0 1 0,6.2441668 0.47624999,0.47624999 0 1 0 0.669396,0.672041 5.3710416,5.3710416 0 0 0 0,-7.5935411 0.47624999,0.47624999 0 0 0 -0.338667,-0.142875 z M 16.37882,6.7272677 a 0.47624999,0.47624999 0 0 0 -0.351896,0.7831667 8.0433332,8.0433332 0 0 1 0,10.3452086 0.47624999,0.47624999 0 1 0 0.724958,0.608541 8.9958332,8.9958332 0 0 0 0,-11.5622913 0.47624999,0.47624999 0 0 0 -0.373062,-0.174625 z"
       id="path20"
       inkscape:label="Volume 67%"
       style="stroke-width:0.264583;fill:#ffffff" />
  </g>
</svg>
