<?xml version="1.0" encoding="UTF-8"?>
<!-- Created with Inkscape (http://www.inkscape.org/) -->
<svg id="svg53" width="96" height="96" version="1.1" viewBox="0 0 25.4 25.4" xmlns="http://www.w3.org/2000/svg">
 <path id="path4" transform="scale(.26458)" d="m40.785 26.336v0.11914a1.2 1.2 0 0 0-0.74023 0.30078l-12.801 11h-12.699c-0.99999 0-1.8309 0.49915-2.4609 1.1191a3.47 3.47 0 0 0-1.1191 2.4609v13.1c0 1.01 0.49915 1.8407 1.1191 2.4707a3.47 3.47 0 0 0 2.4609 1.1191h12.699l12.801 11a1.2 1.2 0 0 0 1.9707-0.90039v-40.6a1.2 1.2 0 0 0-1.2305-1.1895z" fill="#fff"/>
</svg>
