<?xml version="1.0" encoding="UTF-8"?>
<!-- Created with Inkscape (http://www.inkscape.org/) -->
<svg id="svg53" width="32" height="32" version="1.1" viewBox="0 0 8.4667 8.4667" xmlns="http://www.w3.org/2000/svg">
 <path id="path28" d="m5.6251 1.9765c-0.15104 0.00378-0.23052 0.18071-0.13303 0.29614 0.94937 1.1306 0.94937 2.7798 0 3.9104-0.19546 0.18499 0.12534 0.45453 0.27387 0.23012 1.0602-1.264 1.0602-3.1066 0-4.3706-0.034717-0.041837-0.086481-0.065744-0.14084-0.065049v-9.802e-4zm-2.1144 0.089076 0.00195 0.014064c-0.027365 0.00122-0.053489 0.011769-0.074032 0.029888l-1.2801 1.1002h-1.2703c-0.10001 0-0.18293 0.049119-0.24594 0.11213-0.069438 0.06329-0.11025 0.15203-0.11311 0.24594v1.3102c0 0.10001 0.049116 0.18312 0.11213 0.24613 0.063493 0.069001 0.1522 0.10937 0.24594 0.11193h1.2701l1.2803 1.1002c0.077353 0.063473 0.19385 0.00998 0.19612-0.090053v-4.0606c-2.32e-5 -0.067463-0.055628-0.12165-0.12307-0.11994zm0.95406 0.67119v0.00293c-0.15968 0.00222-0.23762 0.19581-0.12404 0.30806 0.65112 0.65208 0.65112 1.7083 0 2.3604-0.20904 0.16765 0.08567 0.46213 0.25316 0.25297 0.79225-0.79278 0.79225-2.0776 0-2.8703-0.03401-0.034646-0.080571-0.054088-0.12912-0.053914z" fill="#fff" stroke-width=".10002"/>
</svg>
