<?xml version="1.0" encoding="UTF-8"?>
<svg id="svg14" width="512" height="512" enable-background="new 0 0 100 100" version="1.1" viewBox="0 0 512 512" xml:space="preserve" xmlns="http://www.w3.org/2000/svg"><path id="rect843" d="m0 0v512h512v-512h-512z" fill="#0f0f0f" stroke-linejoin="round" stroke-width="1.1898"/><path id="path823" d="m197.75 69c-0.63078 0-1.1558 0.05078-1.7988 0.05078-0.67993 0.04915-1.408 0.09272-2.0879 0.19922-0.37683 0.05325-0.79894 0.11811-1.1758 0.22461-0.94208 0.1024-1.8327 0.31403-2.7871 0.57617-0.1024 0-0.26498 0.05862-0.36328 0.09961-3.7438 0.95437-7.3184 2.3745-10.648 4.3242h0.0488l0.20117 0.20117c2.1668 0.95028 4.1257 1.8512 5.9238 2.9121l89.764 51.875-49.525-49.35c-1.11-1.1141-2.2638-2.1057-3.5254-3.1133 0 0-0.0625-0.0017-0.0625-0.05078-0.99123-0.73728-1.8979-1.4232-2.9629-2.1113-0.0942-0.05734-0.24344-0.09467-0.30078-0.20117-0.94208-0.57344-1.8857-1.116-2.8359-1.6484-0.26214-0.1024-0.58428-0.25678-0.78906-0.36328-0.84788-0.37274-1.6974-0.78012-2.5371-1.0996-0.42598-0.21299-0.84965-0.31929-1.3125-0.42578-0.75367-0.26624-1.4674-0.47008-2.2129-0.73633-0.1024-0.05734-0.31324-0.11328-0.42383-0.11328-0.4178-0.11059-0.83768-0.19732-1.2637-0.23828-0.63078-0.11469-1.2707-0.33347-1.8359-0.38672-0.68813-0.1065-1.3708-0.206-2.0508-0.3125-0.59392-0.05325-1.0551-0.0982-1.6367-0.21289-0.67149-0.04917-1.4287-0.04636-2.125-0.09961h-1.6758zm-39.412 16.75c-0.4096 0-0.83793 0.03711-1.3008 0.03711-0.63078 0-1.3127 0.06414-1.8984 0.11328-0.67993 0.05734-1.3708 0.10607-2.0508 0.26172-0.58572 0.05325-1.0687 0.09983-1.6504 0.26367-0.67993 0.09421-1.3654 0.31734-2.0371 0.42383-0.58572 0.1024-1.1165 0.25237-1.6367 0.41211-0.57753 0.21709-1.1607 0.37899-1.7383 0.58789-0.68813 0.26214-1.3809 0.47148-2.0117 0.75-0.36044 0.09421-0.72472 0.29143-1.1016 0.45117-0.83969 0.36864-1.7345 0.7942-2.5742 1.2734-0.1024 0.05734-0.26383 0.09877-0.38672 0.20117-5.9433 3.2236-11.154 8.0669-14.738 14.338-2.1136 3.6332-3.4884 7.4914-4.2871 11.387 0 0.0493 4e-3 0.10198-0.0371 0.26172-0.27034 1.11-0.37416 2.2202-0.47656 3.3262-0.0493 0.36455-0.0488 0.72335-0.0488 1.0879-0.0576 0.84788-0.11328 1.6933-0.11328 2.5371v281.83c0 0.83149 0.0603 1.6898 0.11328 2.5254 0 0.37684 0.0488 0.73097 0.0488 1.0996 0.1024 1.1059 0.31682 2.2202 0.47656 3.3262 0 0.0531-4e-3 0.1096 0.0371 0.27344 0.79873 3.8912 2.1736 7.7342 4.2871 11.363 3.584 6.2628 8.7908 11.06 14.738 14.324 0.11879 0.0576 0.28023 0.1023 0.38672 0.21289 0.83968 0.42189 1.7345 0.83769 2.5742 1.2637 0.37684 0.21709 0.74112 0.33068 1.1016 0.48633 0.68814 0.25395 1.3236 0.47201 2.0117 0.73828 0.57754 0.2048 1.1075 0.37352 1.7383 0.57422 0.57753 0.0942 1.0551 0.31928 1.6367 0.42578 0.67175 0.21299 1.3572 0.30561 2.0371 0.41211 0.47104 0.11059 1.0688 0.22486 1.6504 0.26172 0.67995 0.1065 1.3708 0.22271 2.0508 0.26367 0.63079 0.0493 1.2676 0.0622 1.8984 0.11133 0.41779 0 0.83793 0.0508 1.3008 0.0508h0.48828c0.78235 0 1.5099-0.0508 2.3496-0.0996 0.42599-0.0493 0.9572-0.0585 1.375-0.0996 0.95847-0.43008 1.8444-0.58838 2.7988-0.78906 0.31948-0.0531 0.58395-0.0577 0.83789-0.11133 1.0486-0.26214 2.1176-0.48539 3.1621-0.80078 0.11059-0.0448 0.24859-0.0305 0.36328-0.0879 1.11-0.36454 2.2666-0.78248 3.4258-1.2617h0.0625c1.4254-0.63488 2.8394-1.2796 4.1992-2.0742l243.29-140.43c4.7842-2.7402 8.681-6.3731 11.688-10.588 0.2089-0.25395 0.36727-0.59564 0.57617-0.84961 0.48742-0.69223 1.0142-1.4172 1.4238-2.1504 0.0576-0.1024 0.21314-0.25999 0.25-0.42383 0.27853-0.37683 0.43796-0.78853 0.63867-1.2637 0.26214-0.47923 0.57657-1.0112 0.73633-1.4863 0.37684-0.74138 0.68052-1.5127 1-2.25 0.1024-0.32358 0.2685-0.63682 0.375-1.0137 0.3113-0.83968 0.63251-1.7768 0.84961-2.6738 0.0493-0.26214 0.10639-0.47558 0.21289-0.75 0.26214-0.93799 0.40848-1.7839 0.61328-2.7383 0.0576-0.3113 0.12165-0.62618 0.23633-0.9375 0.0942-0.79463 0.25163-1.6882 0.30078-2.4746 0.0576-0.47514 0.0623-0.95417 0.0996-1.4375 0.0655-0.67585 0.0625-1.3042 0.0625-1.9883 0-0.69223-2e-3 -1.3154-0.0625-2.0117 0-0.46694-0.035-0.93697-0.0879-1.4121-0.0493-0.79462-0.21829-1.686-0.3125-2.4766-0.0576-0.31949-0.10992-0.62618-0.22461-0.9375-0.2089-0.96666-0.36286-1.8647-0.625-2.7617-0.0576-0.26624-0.0984-0.47227-0.25-0.77539-0.27853-0.96256-0.6033-1.7981-0.86133-2.6992-0.0942-0.3072-0.26497-0.62316-0.36328-1-0.31129-0.74137-0.62317-1.534-1-2.2754-0.27033-0.46694-0.45945-0.98743-0.78711-1.5117-0.21709-0.37274-0.36285-0.80025-0.625-1.2754-0.0576-0.1024-0.21395-0.25646-0.27539-0.41211-0.4096-0.74138-0.94107-1.4876-1.4121-2.1758-0.21709-0.25805-0.3708-0.57575-0.58789-0.83789-3.0474-4.2189-6.9539-7.8026-11.701-10.588l-243.17-140.39c-1.3599-0.78234-2.7779-1.465-4.1992-2.0508h-0.0644c-1.1062-0.47105-2.2073-0.84392-3.4238-1.2617-0.11059-0.05325-0.24859-0.04223-0.36328-0.09961-1.0486-0.31539-2.1176-0.64104-3.1621-0.80078-0.31129-0.04915-0.57576-0.09961-0.83789-0.09961-0.95029-0.2048-1.8363-0.3111-2.7988-0.42578-0.41779-0.05734-0.94902-0.05049-1.375-0.09961-0.78235-0.05734-1.52-0.09961-2.3516-0.09961h-0.48633zm50.85 113.51h0.67578c0.31129 0 0.58745 8e-3 0.84961 0.0645 0.21709 0 0.30667-4e-3 0.47461 0.0488 0.31129 0.0576 0.68051 0.0508 1 0.0996 0.1024 0 0.20658 0.0625 0.30078 0.0625 0.37684 0.0448 0.74375 0.20738 1.1738 0.32617 0.041 0 0.0426-5e-3 0.0879 0.0371 0.43008 0.1024 0.80026 0.32338 1.2754 0.42578 0.47104 0.26215 1.0497 0.42643 1.5371 0.75l88.238 50.924c1.7285 0.99534 3.1547 2.2609 4.1992 3.8379 0.0576 0.1024 0.0982 0.22182 0.21289 0.32422 0.2089 0.25395 0.37221 0.47174 0.47461 0.78711 0.0576 0.0493 0.0546 0.10159 0.0996 0.10156 0.0576 0.1024 0.10393 0.32963 0.26367 0.42383 0.0942 0.213 0.21363 0.36318 0.32422 0.57617 0.0942 0.25805 0.25678 0.57823 0.36328 0.78711 0.0493 0.1024 0.11133 0.26851 0.11133 0.375 0.11059 0.31539 0.24338 0.62317 0.30078 1 0 0.1024 0.0625 0.20954 0.0625 0.32422 0.0576 0.3113 0.21289 0.67698 0.21289 0.98828 0 0.11059 0.0488 0.26384 0.0488 0.38672 0.0576 0.29491 0.0565 0.61799 0.10156 0.9375 0 0.2089 6e-3 0.32716 0.0625 0.47461v1.4766c0 0.21299-5e-3 0.31486-0.0625 0.47461 0 0.31949-0.035 0.63028-0.0879 0.9375 0 0.1065-0.0625 0.26441-0.0625 0.375-0.0576 0.31539-0.0957 0.6846-0.26367 1 0 0.1065-0.0625 0.21773-0.0625 0.32422-0.0576 0.3113-0.20191 0.68517-0.3125 0.98828-0.0493 0.11059-0.051 0.28079-0.0879 0.375-0.11059 0.32359-0.26031 0.58233-0.375 0.78711-0.0576 0.21709-0.2101 0.3708-0.3125 0.58789-0.0576 0.1024-0.11016 0.30971-0.26172 0.41211 0 0.0576-0.0603 0.0996-0.11328 0.0996-0.20889 0.25395-0.31758 0.59598-0.46094 0.80078-0.0655 0.1065-0.11458 0.20191-0.21289 0.3125-1.11 1.5196-2.537 2.842-4.2246 3.8496l-88.238 50.938c-0.47923 0.31129-1.0052 0.58671-1.5254 0.73828-0.42598 0.21709-0.79205 0.331-1.2754 0.4375-0.041 0-0.0463-8e-3 -0.0996 0.0488-0.37683 0.0942-0.74841 0.25515-1.1621 0.3125-0.1024 0-0.2149 0.0508-0.30078 0.0508-0.31949 0.0576-0.68403 0.11133-1.0117 0.11133-0.2007 0-0.31121 2e-3 -0.46289 0.0508-0.31949 0-0.57575 0.0625-0.83789 0.0625h-0.69922c-0.26214 0-0.42944 3e-3 -0.6875-0.0625-0.26214 0-0.46655-0.0508-0.72461-0.0508-0.22528 0-0.38252-0.0625-0.59961-0.0625-0.25395-0.0576-0.46382-0.1023-0.73828-0.21289-0.2007-0.0614-0.36286-0.0996-0.625-0.0996-0.2089-0.0576-0.4284-0.10992-0.625-0.22461-0.27034-0.0493-0.47825-0.19675-0.73633-0.25-0.10239-0.0531-0.25785-0.1023-0.42578-0.21289-0.31949-0.0983-0.62617-0.31324-0.9375-0.42383-0.0576 0-0.0682-0.0625-0.11328-0.0625-2.1586-1.1592-4.01-2.8869-5.3125-5.2012-0.74548-1.3107-1.275-2.7443-1.5371-4.1738v-0.0508c-0.0576-0.42599-0.0982-0.78657-0.21289-1.2617v-0.375c0-0.3154-0.0488-0.61798-0.0488-0.9375v-102.09h0.0488v-0.21289c0-0.31129 6e-3 -0.62209 0.0625-0.9375v-0.38672c0.0576-0.42189 0.0947-0.77485 0.20117-1.25v-0.0644c0.31949-1.4172 0.78812-2.7763 1.5254-4.1484 1.3189-2.2651 3.1697-4.01 5.3242-5.2266 0.0576 0 0.0546-0.0488 0.0996-0.0488 0.31949-0.21709 0.63171-0.30152 0.95117-0.41211 0.1106-0.0493 0.26818-0.11049 0.42383-0.21289 0.26214-0.1024 0.4802-0.21257 0.73828-0.26172 0.21709-0.0576 0.42783-0.10778 0.63672-0.22656 0.2089-0.0576 0.37105-0.0996 0.625-0.0996 0.26214-0.0614 0.47201-0.0968 0.73828-0.19922 0.21709-0.0576 0.36532-0.0625 0.57422-0.0625 0.26214-0.0531 0.48021-0.0508 0.73828-0.0508 0.26215 0 0.43295-6e-3 0.69922-0.0625zm226.2 106.16c-2.2159 1.8473-4.6286 3.5295-7.1641 5l-85.137 49.037 64.213-17.338c5.2798-1.4254 10.01-3.9467 14.012-7.1621 0.25395-0.2048 0.48403-0.43353 0.78711-0.6875 0.68814-0.58573 1.3229-1.0938 1.9004-1.7246 0.1106-0.1065 0.26031-0.26883 0.375-0.32617 0.31949-0.31949 0.63172-0.68404 0.95117-1.0117 0.36046-0.41779 0.72278-0.76666 1.0996-1.25 0.57754-0.63078 1.0497-1.32 1.5371-2 0.2007-0.31129 0.41201-0.57984 0.625-0.83789 0.57754-0.78643 1.0462-1.5271 1.5254-2.375 0.1024-0.26215 0.26819-0.42534 0.42383-0.6875 0.42599-0.78643 0.83326-1.6841 1.3125-2.4746 0.0942-0.31129 0.26032-0.58395 0.375-0.83789 0.29492-0.7414 0.62207-1.5394 0.9375-2.375 0.22528-0.42189 0.31929-0.84145 0.42578-1.3125 0.2089-0.63078 0.379-1.26 0.58789-1.8867 0.20071-0.63079 0.30914-1.3324 0.42383-1.9141 0.0942-0.41779 0.21862-0.94354 0.26367-1.3613 0.1024-0.79464 0.26303-1.6841 0.36133-2.4746 0.0576-0.31949 0.0645-0.64397 0.0645-0.95117 0.0493-0.95438 0.0996-1.8368 0.0996-2.7871v-0.26172zm-330.25 4.3125-15.639 58.986c-0.06554 0.2048-0.06627 0.31486-0.11133 0.47461-0.2089 0.78644-0.36868 1.6328-0.46289 2.4766-0.04928 0.36454-0.10992 0.74679-0.22461 1.1113-0.2089 1.11-0.32585 2.2107-0.375 3.3125v0.27539c-0.26214 3.9486 0.11017 8.0531 1.2734 12.051 1.7367 7.0656 5.5427 13.016 10.438 17.648 0.1024 0.0493 0.20191 0.21043 0.3125 0.26367 0.68813 0.69223 1.4172 1.3212 2.1504 1.8496 0.31949 0.25396 0.63168 0.46792 0.95117 0.73828 0.58573 0.42598 1.1588 0.77896 1.7363 1.25 0.1024 0.0614 0.21558 0.11755 0.32617 0.23633v-0.0742c-0.0576-0.41779-0.0602-0.9332-0.11328-1.3633v-0.19922c-0.0493-1.0035-0.1064-2.0603-0.21289-3.1621 0-0.31949-0.0488-0.63649-0.0488-1.0625v-94.812z" fill="#fff"/></svg>
