<?xml version="1.0" encoding="UTF-8"?>
<svg id="svg14" width="512" height="512" enable-background="new 0 0 100 100" version="1.1" viewBox="0 0 512 512" xml:space="preserve" xmlns="http://www.w3.org/2000/svg"><path id="path823" d="m173.19 22.249c-0.78848 0-1.4462 0.06248-2.25 0.06248-0.84992 0.06144-1.7594 0.11688-2.6094 0.25-0.47104 0.06656-0.99768 0.14813-1.4687 0.28125-1.1776 0.128-2.2914 0.39107-3.4844 0.71875-0.128 0-0.33024 0.07376-0.45312 0.125-4.6797 1.193-9.1496 2.9691-13.313 5.4062h0.0624l0.25 0.25c2.7085 1.1878 5.1586 2.3146 7.4062 3.6406l112.2 64.844-61.906-61.687c-1.3875-1.3926-2.8293-2.6311-4.4062-3.8906 0 0-0.0784-0.0011-0.0784-0.06248-1.239-0.9216-2.3719-1.7805-3.7031-2.6406-0.11776-0.07168-0.30328-0.11688-0.37504-0.25-1.1776-0.7168-2.359-1.3969-3.5469-2.0625-0.32768-0.128-0.7284-0.32001-0.9844-0.45313-1.0598-0.46592-2.1222-0.9756-3.1718-1.375-0.53248-0.26624-1.0621-0.39814-1.6406-0.53125-0.94208-0.3328-1.8338-0.58907-2.7656-0.92184-0.128-0.07168-0.39304-0.14062-0.53128-0.14062-0.52224-0.13824-1.0456-0.24567-1.5781-0.29687-0.78848-0.14336-1.5903-0.41782-2.2969-0.48438-0.86016-0.13312-1.7126-0.2575-2.5625-0.39062-0.7424-0.06656-1.3198-0.12226-2.0469-0.26562-0.83968-0.06144-1.7858-0.0584-2.6562-0.125h-2.0938zm-49.266 20.938c-0.512 0-1.0464 0.04688-1.625 0.04688-0.78848 0-1.6428 0.0792-2.375 0.14062-0.84992 0.07168-1.7126 0.13357-2.5625 0.32813-0.73216 0.06656-1.3354 0.12333-2.0625 0.32813-0.84992 0.11776-1.7072 0.39814-2.5469 0.53125-0.73216 0.128-1.3966 0.31594-2.0469 0.51562-0.72192 0.27136-1.4499 0.47325-2.1718 0.73438-0.86016 0.32768-1.7271 0.58934-2.5156 0.93752-0.45056 0.11776-0.904 0.36282-1.375 0.5625-1.0496 0.4608-2.1691 0.99472-3.2187 1.5938-0.128 0.07168-0.3308 0.122-0.4844 0.25-7.4291 4.0294-13.942 10.083-18.422 17.922-2.6419 4.5414-4.361 9.3656-5.3594 14.234 0 0.0616 0.0051 0.12848-0.04688 0.32816-0.33792 1.3875-0.46575 2.7738-0.59375 4.1562-0.0616 0.45568-0.06248 0.90368-0.06248 1.3594-0.072 1.0598-0.14062 2.1171-0.14062 3.1718v352.28c0 1.0394 0.0744 2.1118 0.14062 3.1562 0 0.47104 0.06248 0.91424 0.06248 1.375 0.128 1.3824 0.39407 2.7738 0.59375 4.1562 0 0.0664-0.0051 0.13896 0.04688 0.34376 0.9984 4.864 2.7174 9.6664 5.3594 14.203 4.48 7.8286 10.987 13.826 18.422 17.906 0.14848 0.072 0.35128 0.12736 0.4844 0.2656 1.0496 0.52736 2.1691 1.0457 3.2187 1.5782 0.47104 0.27136 0.9244 0.4148 1.375 0.60936 0.86016 0.31744 1.6554 0.58904 2.5156 0.92184 0.72192 0.256 1.3834 0.46784 2.1718 0.71872 0.72192 0.11776 1.3198 0.39816 2.0469 0.53128 0.83968 0.26624 1.697 0.38248 2.5469 0.5156 0.5888 0.13824 1.3354 0.28208 2.0625 0.32816 0.84992 0.13312 1.7126 0.27696 2.5625 0.32816 0.78848 0.0616 1.5865 0.0792 2.375 0.14064 0.52224 0 1.0464 0.0624 1.625 0.0624h0.60936c0.97792 0 1.8879-0.064 2.9375-0.12504 0.53248-0.0616 1.1965-0.0736 1.7187-0.12504 1.1981-0.5376 2.307-0.73352 3.5-0.9844 0.39936-0.0664 0.72944-0.0736 1.0469-0.14064 1.3107-0.32768 2.6475-0.60576 3.9531-1 0.13824-0.056 0.30976-0.0376 0.45312-0.10936 1.3875-0.45568 2.8323-0.97904 4.2813-1.5781h0.0784c1.7818-0.7936 3.5502-1.6005 5.25-2.5938l304.11-175.53c5.9802-3.4253 10.851-7.9658 14.61-13.234 0.26112-0.31744 0.4576-0.74504 0.71872-1.0625 0.60928-0.86528 1.2693-1.771 1.7813-2.6875 0.072-0.128 0.2664-0.32648 0.31248-0.53128 0.34816-0.47104 0.546-0.98416 0.79688-1.5781 0.32768-0.59904 0.72216-1.2654 0.92184-1.8594 0.47104-0.92672 0.85064-1.8909 1.25-2.8125 0.128-0.40448 0.3356-0.79456 0.46872-1.2656 0.38912-1.0496 0.79112-2.2225 1.0625-3.3438 0.0616-0.32768 0.13248-0.59448 0.2656-0.93752 0.32768-1.1725 0.5096-2.2289 0.7656-3.4218 0.072-0.38912 0.15352-0.78272 0.29688-1.1718 0.11776-0.99328 0.31352-2.1107 0.37496-3.0938 0.072-0.59392 0.0784-1.1927 0.12504-1.7969 0.0819-0.8448 0.0784-1.6294 0.0784-2.4844 0-0.86528-2e-3 -1.6452-0.0784-2.5156 0-0.58368-0.0432-1.1717-0.10936-1.7656-0.0616-0.99328-0.27288-2.1056-0.39064-3.0938-0.072-0.39936-0.13792-0.78272-0.28128-1.1718-0.26112-1.2083-0.4536-2.3318-0.78128-3.4531-0.072-0.3328-0.12304-0.58984-0.31248-0.96872-0.34816-1.2032-0.7556-2.2486-1.0782-3.375-0.11776-0.384-0.33024-0.77896-0.45312-1.25-0.38912-0.92672-0.77896-1.917-1.25-2.8438-0.33792-0.58368-0.5748-1.2353-0.9844-1.8906-0.27136-0.46592-0.4536-0.99984-0.78128-1.5938-0.072-0.128-0.26696-0.32104-0.34376-0.5156-0.512-0.92672-1.1768-1.8586-1.7656-2.7187-0.27136-0.32256-0.46304-0.7192-0.7344-1.0469-3.8093-5.2736-8.6912-9.7528-14.625-13.234l-303.97-175.49c-1.6998-0.97792-3.4734-1.8303-5.25-2.5625h-0.0784c-1.3828-0.58881-2.7606-1.0559-4.2813-1.5782-0.13824-0.06656-0.30976-0.05328-0.45312-0.125-1.3107-0.39424-2.6475-0.80032-3.9531-1-0.38912-0.06144-0.7192-0.125-1.0469-0.125-1.1878-0.256-2.2968-0.3879-3.5-0.53125-0.52224-0.07168-1.1862-0.0636-1.7187-0.125-0.97792-0.07168-1.8982-0.125-2.9375-0.125h-0.60936zm63.562 141.89h0.84376c0.38912 0 0.7348 7e-3 1.0625 0.0784 0.27136 0 0.38384-4e-3 0.59376 0.0624 0.38912 0.072 0.85064 0.064 1.25 0.12504 0.128 0 0.25728 0.0784 0.37496 0.0784 0.47104 0.056 0.93112 0.25776 1.4687 0.40624 0.0512 0 0.0528-5e-3 0.10936 0.0472 0.5376 0.128 0.99984 0.40328 1.5938 0.53128 0.5888 0.32768 1.3126 0.53304 1.9219 0.93752l110.3 63.656c2.1606 1.2442 3.9444 2.8257 5.25 4.7969 0.072 0.128 0.12224 0.27824 0.2656 0.40624 0.26112 0.31744 0.46576 0.59016 0.59376 0.9844 0.072 0.0616 0.0688 0.12504 0.12504 0.12496 0.072 0.128 0.1284 0.41352 0.32808 0.53128 0.11776 0.26624 0.268 0.45248 0.40624 0.71872 0.11776 0.32256 0.32 0.72328 0.45312 0.9844 0.0616 0.128 0.14064 0.3356 0.14064 0.46872 0.13824 0.39424 0.30336 0.77896 0.37504 1.25 0 0.128 0.0784 0.26288 0.0784 0.40624 0.072 0.38912 0.2656 0.84528 0.2656 1.2344 0 0.13824 0.0624 0.3308 0.0624 0.4844 0.072 0.36864 0.0688 0.77248 0.12504 1.1718 0 0.26112 7e-3 0.40944 0.0784 0.59376v1.8438c0 0.26624-6e-3 0.39408-0.0784 0.59376 0 0.39936-0.0432 0.78784-0.10936 1.1718 0 0.13312-0.0784 0.33048-0.0784 0.46872-0.072 0.39424-0.11824 0.85576-0.32808 1.25 0 0.13312-0.0784 0.27312-0.0784 0.40624-0.072 0.38912-0.2524 0.85552-0.39064 1.2344-0.0616 0.13824-0.0632 0.35096-0.10936 0.46872-0.13824 0.40448-0.32536 0.7284-0.46872 0.9844-0.072 0.27136-0.26264 0.46304-0.39064 0.7344-0.072 0.128-0.13872 0.3876-0.32808 0.5156 0 0.072-0.0744 0.12504-0.14064 0.12504-0.26112 0.31744-0.39888 0.744-0.57808 1-0.0819 0.13312-0.14272 0.2524-0.2656 0.39064-1.3875 1.8995-3.1718 3.553-5.2813 4.8125l-110.3 63.672c-0.59904 0.38912-1.256 0.7324-1.9062 0.92184-0.53248 0.27136-0.9896 0.41376-1.5938 0.54688-0.0512 0-0.0584-9e-3 -0.12504 0.0624-0.47104 0.11776-0.936 0.31896-1.4531 0.39064-0.128 0-0.2676 0.0624-0.37496 0.0624-0.39936 0.072-0.856 0.14064-1.2656 0.14064-0.25088 0-0.38856 1e-3 -0.57816 0.0624-0.39936 0-0.7192 0.0784-1.0469 0.0784h-0.87504c-0.32768 0-0.5368 4e-3 -0.85936-0.0784-0.32768 0-0.58368-0.0624-0.90624-0.0624-0.2816 0-0.47864-0.0784-0.75-0.0784-0.31744-0.072-0.5788-0.12736-0.92184-0.2656-0.25088-0.0768-0.4536-0.12504-0.78128-0.12504-0.26112-0.072-0.53552-0.13792-0.78128-0.28128-0.33792-0.0616-0.59928-0.24592-0.92184-0.31248-0.128-0.0664-0.32136-0.12736-0.53128-0.2656-0.39936-0.12288-0.78272-0.39304-1.1718-0.53128-0.072 0-0.0842-0.0784-0.14064-0.0784-2.6982-1.449-5.0125-3.6072-6.6406-6.5-0.93184-1.6384-1.5942-3.4318-1.9218-5.2187v-0.0624c-0.072-0.53248-0.12224-0.98416-0.2656-1.5782v-0.46872c0-0.39424-0.0624-0.77248-0.0624-1.1718v-127.61h0.0624v-0.2656c0-0.38912 7e-3 -0.7776 0.0784-1.1718v-0.4844c0.072-0.52736 0.11688-0.96856 0.25-1.5625v-0.0784c0.39936-1.7715 0.98464-3.4723 1.9062-5.1875 1.6486-2.8314 3.9631-5.0106 6.6562-6.5313 0.072 0 0.0688-0.0624 0.12504-0.0624 0.39936-0.27136 0.78816-0.37736 1.1875-0.5156 0.13824-0.0616 0.33672-0.1376 0.53128-0.2656 0.32768-0.128 0.59928-0.26672 0.92192-0.32808 0.27136-0.072 0.53576-0.1328 0.79688-0.28128 0.26112-0.072 0.46384-0.12504 0.78128-0.12504 0.32768-0.0768 0.58904-0.122 0.92192-0.25 0.27136-0.072 0.4576-0.0784 0.71872-0.0784 0.32768-0.0664 0.59928-0.0624 0.92184-0.0624 0.32768 0 0.54216-7e-3 0.87504-0.0784zm282.75 132.7c-2.7699 2.3091-5.7838 4.4119-8.9528 6.25l-106.42 61.297 80.264-21.672c6.5997-1.7818 12.514-4.9339 17.516-8.9528 0.31744-0.256 0.60552-0.54192 0.9844-0.85936 0.86016-0.73216 1.6531-1.3678 2.375-2.1562 0.13824-0.13312 0.32536-0.33456 0.46872-0.40624 0.39936-0.39936 0.78816-0.856 1.1875-1.2656 0.45056-0.52224 0.90392-0.95832 1.375-1.5625 0.72192-0.78848 1.3126-1.6501 1.9219-2.5 0.25088-0.38912 0.51504-0.72432 0.78128-1.0469 0.72192-0.98304 1.3072-1.9089 1.9062-2.9687 0.128-0.32768 0.33672-0.53168 0.53128-0.85936 0.53248-0.98304 1.0416-2.1056 1.6406-3.0938 0.11776-0.38912 0.32536-0.72944 0.46872-1.0469 0.36864-0.92672 0.7776-1.9242 1.1718-2.9687 0.2816-0.52736 0.39816-1.0518 0.53128-1.6406 0.26112-0.78848 0.47328-1.576 0.7344-2.3594 0.25088-0.78848 0.38792-1.6636 0.53128-2.3906 0.11776-0.52224 0.27184-1.1809 0.32816-1.7031 0.128-0.99328 0.33024-2.1056 0.45312-3.0938 0.072-0.39936 0.0784-0.80352 0.0784-1.1875 0.0616-1.193 0.12504-2.2966 0.12504-3.4844v-0.32816zm-412.82 5.3906-19.547 73.734c-0.08192 0.256-0.0843 0.39408-0.14062 0.59376-0.26112 0.98304-0.46037 2.039-0.57813 3.0938-0.0616 0.45568-0.13789 0.93496-0.28125 1.3906-0.26112 1.3875-0.40731 2.7634-0.46875 4.1406v0.34376c-0.32768 4.9357 0.13966 10.066 1.5938 15.062 2.1709 8.832 6.9284 16.272 13.047 22.062 0.128 0.0616 0.25238 0.26152 0.39062 0.32816 0.86016 0.86528 1.771 1.652 2.6875 2.3125 0.39936 0.31744 0.78813 0.58392 1.1875 0.92184 0.73216 0.53248 1.4499 0.97368 2.1718 1.5625 0.128 0.0768 0.26801 0.1484 0.40625 0.29688v-0.0938c-0.072-0.52224-0.07424-1.1655-0.14062-1.7031v-0.25c-0.0616-1.2544-0.1325-2.5758-0.26562-3.9531 0-0.39936-0.06248-0.7956-0.06248-1.3282v-118.51z" fill="#fff" stroke-width="8"/></svg>
