<?xml version="1.0" encoding="UTF-8" standalone="no"?>
<svg
   version="1.1"
   x="0px"
   y="0px"
   viewBox="0 0 64 64"
   enable-background="new 0 0 100 100"
   xml:space="preserve"
   id="svg14"
   sodipodi:docname="logo.svg"
   width="64"
   height="64"
   inkscape:export-filename="/home/nathan/workspace/personal/open-player/App/Branding/Icons/logo.png"
   inkscape:export-xdpi="96"
   inkscape:export-ydpi="96"
   inkscape:version="1.1.1 (3bf5ae0d25, 2021-09-20)"
   xmlns:inkscape="http://www.inkscape.org/namespaces/inkscape"
   xmlns:sodipodi="http://sodipodi.sourceforge.net/DTD/sodipodi-0.dtd"
   xmlns="http://www.w3.org/2000/svg"
   xmlns:svg="http://www.w3.org/2000/svg"><defs
     id="defs18" /><sodipodi:namedview
     id="namedview16"
     pagecolor="#505050"
     bordercolor="#ffffff"
     borderopacity="1"
     inkscape:pageshadow="0"
     inkscape:pageopacity="0"
     inkscape:pagecheckerboard="1"
     showgrid="false"
     inkscape:zoom="6.664"
     inkscape:cx="18.457383"
     inkscape:cy="21.383553"
     inkscape:window-width="1920"
     inkscape:window-height="1024"
     inkscape:window-x="1920"
     inkscape:window-y="0"
     inkscape:window-maximized="1"
     inkscape:current-layer="svg14"
     inkscape:snap-page="true" /><path
     id="path823"
     style="fill:#ffffff;stroke-width:1;stroke:none;stroke-opacity:1;stroke-miterlimit:4;stroke-dasharray:none"
     d="M 21.648438 2.78125 C 21.549878 2.78125 21.467667 2.7890625 21.367188 2.7890625 C 21.260948 2.7967425 21.147257 2.8036725 21.041016 2.8203125 C 20.982136 2.8286325 20.916303 2.8388288 20.857422 2.8554688 C 20.710221 2.8714688 20.570996 2.9043525 20.421875 2.9453125 C 20.405875 2.9453125 20.380594 2.9545375 20.365234 2.9609375 C 19.78027 3.1100584 19.221495 3.3320769 18.701172 3.6367188 L 18.708984 3.6367188 L 18.740234 3.6679688 C 19.078796 3.8164497 19.385055 3.957286 19.666016 4.1230469 L 33.691406 12.228516 L 25.953125 4.5175781 C 25.779684 4.3434971 25.599466 4.1886909 25.402344 4.03125 C 25.402344 4.03125 25.392578 4.0311175 25.392578 4.0234375 C 25.237698 3.9082368 25.096089 3.8008801 24.929688 3.6933594 C 24.914967 3.6843994 24.891772 3.6787494 24.882812 3.6621094 C 24.735612 3.5725094 24.587933 3.4874974 24.439453 3.4042969 C 24.398493 3.3882969 24.348406 3.3642963 24.316406 3.3476562 C 24.183925 3.2894162 24.051123 3.2257015 23.919922 3.1757812 C 23.853362 3.1425013 23.787164 3.126014 23.714844 3.109375 C 23.597083 3.067775 23.485622 3.0357412 23.369141 2.9941406 C 23.353141 2.9851806 23.320014 2.9765625 23.302734 2.9765625 C 23.237454 2.9592825 23.17203 2.9458531 23.105469 2.9394531 C 23.006909 2.9215331 22.90668 2.8872262 22.818359 2.8789062 C 22.710839 2.8622662 22.604287 2.8467181 22.498047 2.8300781 C 22.405247 2.8217581 22.333067 2.814795 22.242188 2.796875 C 22.137227 2.789195 22.018956 2.78957 21.910156 2.78125 L 21.648438 2.78125 z M 15.490234 5.3984375 C 15.426234 5.3984375 15.359429 5.4042969 15.287109 5.4042969 C 15.188549 5.4042969 15.081755 5.414197 14.990234 5.421875 C 14.883993 5.430835 14.776163 5.4385706 14.669922 5.4628906 C 14.578402 5.4712106 14.502991 5.4783062 14.412109 5.5039062 C 14.305869 5.5186262 14.198709 5.5536735 14.09375 5.5703125 C 14.00223 5.5863125 13.919171 5.6098056 13.837891 5.6347656 C 13.747651 5.6686856 13.656646 5.6939215 13.566406 5.7265625 C 13.458885 5.7675225 13.350513 5.8002305 13.251953 5.84375 C 13.195633 5.85847 13.138958 5.8891025 13.080078 5.9140625 C 12.948876 5.9716625 12.808934 6.0384008 12.677734 6.1132812 C 12.661734 6.1222413 12.636387 6.1285313 12.617188 6.1445312 C 11.688546 6.6482139 10.874456 7.4049204 10.314453 8.3847656 C 9.9842116 8.9524498 9.7693322 9.5554192 9.6445312 10.164062 C 9.6445312 10.171762 9.6451629 10.180118 9.6386719 10.205078 C 9.5964319 10.378519 9.5804531 10.551808 9.5644531 10.724609 C 9.5567531 10.781569 9.5566406 10.837571 9.5566406 10.894531 C 9.5476406 11.027012 9.5390625 11.159175 9.5390625 11.291016 L 9.5390625 11.365234 L 9.5390625 55.251953 L 9.5390625 55.326172 C 9.5390625 55.456092 9.5483606 55.590142 9.5566406 55.720703 C 9.5566406 55.779583 9.5644531 55.834978 9.5644531 55.892578 C 9.5804531 56.065379 9.6137119 56.239308 9.6386719 56.412109 C 9.6386719 56.420409 9.6380403 56.429478 9.6445312 56.455078 C 9.7693322 57.063082 9.9842116 57.663426 10.314453 58.230469 C 10.874456 59.209035 11.6879 59.958667 12.617188 60.46875 C 12.635748 60.47775 12.661094 60.484673 12.677734 60.501953 C 12.808934 60.567873 12.948878 60.632659 13.080078 60.699219 C 13.138958 60.733139 13.195632 60.751071 13.251953 60.775391 C 13.359473 60.815071 13.458885 60.849021 13.566406 60.890625 C 13.656646 60.922625 13.739331 60.949109 13.837891 60.980469 C 13.928131 60.995189 14.002869 61.030235 14.09375 61.046875 C 14.19871 61.080155 14.305869 61.094688 14.412109 61.111328 C 14.485709 61.128608 14.579042 61.146584 14.669922 61.152344 C 14.776163 61.168984 14.883993 61.186959 14.990234 61.193359 C 15.088794 61.201059 15.188548 61.203257 15.287109 61.210938 C 15.352389 61.210938 15.417913 61.21875 15.490234 61.21875 L 15.566406 61.21875 C 15.688647 61.21875 15.802393 61.210755 15.933594 61.203125 C 16.000154 61.195425 16.083156 61.19393 16.148438 61.1875 C 16.298199 61.1203 16.436816 61.09581 16.585938 61.064453 C 16.635858 61.056153 16.677118 61.055255 16.716797 61.046875 C 16.880638 61.005915 17.047736 60.971155 17.210938 60.921875 C 17.228217 60.914875 17.249658 60.917173 17.267578 60.908203 C 17.441019 60.851243 17.621613 60.785819 17.802734 60.710938 L 17.8125 60.710938 C 18.035222 60.611737 18.256269 60.51088 18.46875 60.386719 L 56.482422 38.445312 C 57.229948 38.01715 57.838831 37.44958 58.308594 36.791016 C 58.341234 36.751336 58.365797 36.697886 58.398438 36.658203 C 58.474598 36.550043 58.557093 36.436827 58.621094 36.322266 C 58.630094 36.306266 58.654396 36.281459 58.660156 36.255859 C 58.703676 36.196979 58.728406 36.132834 58.759766 36.058594 C 58.800726 35.983714 58.850036 35.900412 58.875 35.826172 C 58.93388 35.710331 58.98133 35.58981 59.03125 35.474609 C 59.04725 35.424049 59.073204 35.375289 59.089844 35.316406 C 59.138484 35.185205 59.188734 35.038598 59.222656 34.898438 C 59.230356 34.857478 59.239219 34.824128 59.255859 34.78125 C 59.296819 34.634689 59.319563 34.502637 59.351562 34.353516 C 59.360563 34.304876 59.370752 34.255676 59.388672 34.207031 C 59.403392 34.08287 59.427867 33.943193 59.435547 33.820312 C 59.444547 33.746072 59.445342 33.671223 59.451172 33.595703 C 59.461412 33.490102 59.460937 33.392037 59.460938 33.285156 C 59.460938 33.176996 59.460738 33.079503 59.451172 32.970703 C 59.451172 32.897743 59.44577 32.824241 59.4375 32.75 C 59.4298 32.62584 59.403392 32.486802 59.388672 32.363281 C 59.379672 32.313361 59.371436 32.265441 59.353516 32.216797 C 59.320876 32.065756 59.296819 31.925317 59.255859 31.785156 C 59.246859 31.743556 59.240477 31.711427 59.216797 31.664062 C 59.173277 31.513662 59.122347 31.382988 59.082031 31.242188 C 59.067311 31.194188 59.040751 31.144817 59.025391 31.085938 C 58.976751 30.970098 58.928021 30.846309 58.869141 30.730469 C 58.826901 30.657509 58.797291 30.576061 58.746094 30.494141 C 58.712174 30.435901 58.689398 30.369162 58.648438 30.294922 C 58.639437 30.278922 58.615069 30.254789 58.605469 30.230469 C 58.541469 30.114628 58.458366 29.998145 58.384766 29.890625 C 58.350846 29.850305 58.326889 29.800725 58.292969 29.759766 C 57.816806 29.100562 57.206608 28.540672 56.464844 28.105469 L 18.46875 6.1699219 C 18.256269 6.0476812 18.034582 5.9411299 17.8125 5.8496094 L 17.802734 5.8496094 C 17.629884 5.7760084 17.457659 5.7176242 17.267578 5.6523438 C 17.250298 5.6440237 17.228857 5.6456838 17.210938 5.6367188 C 17.047096 5.5874387 16.879998 5.5366784 16.716797 5.5117188 C 16.668157 5.5040388 16.626897 5.4960937 16.585938 5.4960938 C 16.437455 5.4640937 16.298838 5.4476065 16.148438 5.4296875 C 16.083157 5.4207275 16.000153 5.4217375 15.933594 5.4140625 C 15.811352 5.4051025 15.696328 5.3984375 15.566406 5.3984375 L 15.490234 5.3984375 z M 23.435547 23.134766 L 23.509766 23.134766 L 23.541016 23.134766 C 23.589656 23.134766 23.632866 23.135585 23.673828 23.144531 C 23.707748 23.144531 23.721807 23.144087 23.748047 23.152344 C 23.796687 23.161344 23.854377 23.160339 23.904297 23.167969 C 23.920297 23.167969 23.936452 23.177734 23.951172 23.177734 C 24.010052 23.184734 24.067566 23.209956 24.134766 23.228516 C 24.141166 23.228516 24.141368 23.227884 24.148438 23.234375 C 24.215637 23.250375 24.273416 23.284781 24.347656 23.300781 C 24.421256 23.341741 24.511731 23.367411 24.587891 23.417969 L 38.375 31.375 C 38.645081 31.530521 38.868049 31.728208 39.03125 31.974609 C 39.04025 31.990609 39.046533 32.009391 39.064453 32.025391 C 39.097093 32.065071 39.122672 32.099161 39.138672 32.148438 C 39.147672 32.156137 39.147267 32.164063 39.154297 32.164062 C 39.163297 32.180062 39.170352 32.215749 39.195312 32.230469 C 39.210032 32.263749 39.228814 32.287033 39.246094 32.320312 C 39.260814 32.360633 39.286094 32.410722 39.302734 32.443359 C 39.310434 32.459359 39.320313 32.485313 39.320312 32.501953 C 39.337592 32.551233 39.358227 32.599323 39.367188 32.658203 C 39.367188 32.674203 39.376953 32.691064 39.376953 32.708984 C 39.385953 32.757624 39.410156 32.814641 39.410156 32.863281 C 39.410156 32.880561 39.417969 32.904628 39.417969 32.923828 C 39.426969 32.969908 39.426564 33.020389 39.433594 33.070312 C 39.433594 33.102953 39.434414 33.121491 39.443359 33.144531 L 39.443359 33.259766 L 39.443359 33.375 C 39.443359 33.40828 39.442629 33.424259 39.433594 33.449219 C 39.433594 33.499139 39.428192 33.547699 39.419922 33.595703 C 39.419922 33.612343 39.410156 33.637017 39.410156 33.654297 C 39.401156 33.703577 39.395381 33.761266 39.369141 33.810547 C 39.369141 33.827187 39.359375 33.844688 39.359375 33.861328 C 39.350375 33.909968 39.327827 33.968265 39.310547 34.015625 C 39.302847 34.032905 39.302645 34.059499 39.296875 34.074219 C 39.279595 34.124779 39.256201 34.165269 39.238281 34.197266 C 39.229281 34.231186 39.205453 34.255143 39.189453 34.289062 C 39.180453 34.305062 39.172118 34.337516 39.148438 34.353516 C 39.148438 34.362516 39.139139 34.369141 39.130859 34.369141 C 39.098219 34.408821 39.080994 34.462141 39.058594 34.494141 C 39.048354 34.510781 39.040751 34.525689 39.025391 34.542969 C 38.85195 34.78041 38.628916 34.98709 38.365234 35.144531 L 24.578125 43.103516 C 24.503245 43.152156 24.421124 43.195066 24.339844 43.21875 C 24.273284 43.25267 24.216146 43.270469 24.140625 43.287109 C 24.134225 43.287109 24.13333 43.286022 24.125 43.294922 C 24.06612 43.309642 24.007999 43.33479 23.943359 43.34375 C 23.927359 43.34375 23.909914 43.351562 23.896484 43.351562 C 23.846564 43.360563 23.789482 43.369141 23.738281 43.369141 C 23.706921 43.369141 23.689706 43.369285 23.666016 43.376953 C 23.616096 43.376953 23.576115 43.386719 23.535156 43.386719 L 23.5 43.386719 L 23.425781 43.386719 C 23.384821 43.386719 23.35868 43.387227 23.318359 43.376953 C 23.277399 43.376953 23.2454 43.369141 23.205078 43.369141 C 23.169878 43.369141 23.145248 43.359375 23.111328 43.359375 C 23.071648 43.350375 23.038978 43.343452 22.996094 43.326172 C 22.964734 43.316572 22.939398 43.310547 22.898438 43.310547 C 22.865797 43.301547 22.831501 43.293311 22.800781 43.275391 C 22.758541 43.267691 22.725871 43.244648 22.685547 43.236328 C 22.669547 43.228028 22.645381 43.220405 22.619141 43.203125 C 22.569221 43.187765 22.521301 43.153999 22.472656 43.136719 C 22.463656 43.136719 22.462128 43.126953 22.455078 43.126953 C 22.117795 42.945832 21.828521 42.676055 21.625 42.314453 C 21.508518 42.109652 21.425726 41.885471 21.384766 41.662109 L 21.384766 41.654297 C 21.375766 41.587737 21.369483 41.531272 21.351562 41.457031 L 21.351562 41.398438 C 21.351562 41.349157 21.34375 41.301878 21.34375 41.251953 L 21.34375 41.21875 L 21.34375 25.300781 L 21.351562 25.300781 L 21.351562 25.267578 C 21.351562 25.218938 21.352384 25.170378 21.361328 25.121094 L 21.361328 25.060547 C 21.370328 24.994627 21.375938 24.939476 21.392578 24.865234 L 21.392578 24.855469 C 21.442498 24.634027 21.515659 24.421432 21.630859 24.207031 C 21.836941 23.853109 22.126249 23.580706 22.462891 23.390625 C 22.471891 23.390625 22.471486 23.382812 22.478516 23.382812 C 22.528436 23.348893 22.577036 23.335639 22.626953 23.318359 C 22.644233 23.310659 22.669039 23.301156 22.693359 23.285156 C 22.734319 23.269156 22.768269 23.251821 22.808594 23.244141 C 22.842514 23.235141 22.875563 23.227544 22.908203 23.208984 C 22.940843 23.199984 22.966179 23.193359 23.005859 23.193359 C 23.046819 23.183759 23.079489 23.178109 23.121094 23.162109 C 23.155014 23.153109 23.178297 23.152344 23.210938 23.152344 C 23.251897 23.144044 23.285848 23.144531 23.326172 23.144531 C 23.367132 23.144531 23.393942 23.143711 23.435547 23.134766 z M 58.779297 39.722656 C 58.433055 40.011297 58.056319 40.274145 57.660156 40.503906 L 44.357422 48.166016 L 54.390625 45.457031 C 55.215589 45.23431 55.954793 44.840294 56.580078 44.337891 C 56.619758 44.305891 56.655765 44.27015 56.703125 44.230469 C 56.810646 44.138949 56.90976 44.059497 57 43.960938 C 57.01728 43.944297 57.040674 43.919116 57.058594 43.910156 C 57.108514 43.860236 57.15711 43.803153 57.207031 43.751953 C 57.263351 43.686673 57.320025 43.632162 57.378906 43.556641 C 57.469146 43.458081 57.542981 43.350382 57.619141 43.244141 C 57.650501 43.195501 57.683517 43.153602 57.716797 43.113281 C 57.807037 42.990401 57.880197 42.874668 57.955078 42.742188 C 57.971078 42.701228 57.997164 42.675726 58.021484 42.634766 C 58.088044 42.511885 58.151681 42.371567 58.226562 42.248047 C 58.241282 42.199407 58.267236 42.156869 58.285156 42.117188 C 58.331236 42.001346 58.38236 41.876655 58.431641 41.746094 C 58.466841 41.680174 58.481407 41.614617 58.498047 41.541016 C 58.530687 41.442456 58.557204 41.344015 58.589844 41.246094 C 58.621204 41.147534 58.63833 41.038147 58.65625 40.947266 C 58.67097 40.881986 58.690226 40.799655 58.697266 40.734375 C 58.713266 40.610214 58.738546 40.471176 58.753906 40.347656 C 58.762906 40.297736 58.763672 40.24722 58.763672 40.199219 C 58.771372 40.050098 58.779297 39.912153 58.779297 39.763672 L 58.779297 39.722656 z M 7.1777344 40.396484 L 4.734375 49.613281 C 4.724135 49.645281 4.7238369 49.66254 4.7167969 49.6875 C 4.6841569 49.810381 4.6592512 49.942378 4.6445312 50.074219 C 4.6368313 50.131179 4.627295 50.191087 4.609375 50.248047 C 4.576735 50.421488 4.5584613 50.593464 4.5507812 50.765625 L 4.5507812 50.808594 C 4.5098212 51.425557 4.568239 52.066763 4.75 52.691406 C 5.021362 53.795413 5.6160544 54.725374 6.3808594 55.449219 C 6.3968594 55.456919 6.4124075 55.481914 6.4296875 55.490234 C 6.5372075 55.598394 6.651065 55.696736 6.765625 55.779297 C 6.815545 55.818977 6.8641415 55.852291 6.9140625 55.894531 C 7.0055825 55.961091 7.0953069 56.016244 7.1855469 56.089844 C 7.2015469 56.099444 7.2190481 56.108393 7.2363281 56.126953 L 7.2363281 56.115234 C 7.2273281 56.049954 7.22705 55.969545 7.21875 55.902344 L 7.21875 55.871094 C 7.21105 55.714293 7.2021869 55.549114 7.1855469 55.376953 C 7.1855469 55.327033 7.1777344 55.277499 7.1777344 55.210938 L 7.1777344 40.396484 z " /></svg>
